<svg width="85" height="162" viewBox="0 0 85 162" fill="none" xmlns="http://www.w3.org/2000/svg">
<path d="M41.8024 144L43.3024 0L45.8024 4L43.8024 144H41.8024Z" fill="#240B03"/>
<g filter="url(#filter0_d_2014_132)">
<path d="M40.8024 131V15C34.8024 19 25.6358 88.6667 21.8024 123H18.8024C16.6358 118.5 11.9024 109.6 10.3024 110C8.30242 110.5 -0.197581 129.5 1.80242 134C6.30242 133 11.3024 138 12.8024 139.5C14.0024 140.7 11.6358 141.333 10.3024 141.5C10.4691 142 10.9024 143 11.3024 143C13.3024 144 10.3024 159.5 14.8024 160.5C19.3024 161.5 65.8024 158 68.3024 156C70.3024 154.4 73.8024 144 75.3024 139C73.8024 139.667 69.4024 141.2 63.8024 142C56.8024 143 22.3024 142 19.8024 142C17.3024 142 18.8024 139 19.8024 138.5C20.6024 138.1 34.1358 138.667 40.8024 139V136.5C40.8024 136.9 32.1358 135.667 27.8024 135C28.1358 134.5 29.1024 133.3 30.3024 132.5C31.5024 131.7 37.8024 131.167 40.8024 131Z" fill="url(#paint0_linear_2014_132)"/>
</g>
<g filter="url(#filter1_d_2014_132)">
<path d="M43.8024 130.5C45.0024 123.3 44.3024 41.5 43.8024 1.5C51.8024 12.5 58.3024 56 59.3024 64.5C60.1024 71.3 63.3024 107.667 64.8024 125H84.3024L84.8024 134.5L57.8024 142.5L57.3024 140H44.3024C43.8024 139.333 43.2024 138 44.8024 138C46.8024 138 56.3024 136 56.3024 134C56.3024 132 49.3024 131 43.8024 130.5Z" fill="url(#paint1_linear_2014_132)"/>
</g>
<defs>
<filter id="filter0_d_2014_132" x="0" y="14" width="75.8024" height="147.676" filterUnits="userSpaceOnUse" color-interpolation-filters="sRGB">
<feFlood flood-opacity="0" result="BackgroundImageFix"/>
<feColorMatrix in="SourceAlpha" type="matrix" values="0 0 0 0 0 0 0 0 0 0 0 0 0 0 0 0 0 0 127 0" result="hardAlpha"/>
<feOffset dx="-0.5"/>
<feGaussianBlur stdDeviation="0.5"/>
<feComposite in2="hardAlpha" operator="out"/>
<feColorMatrix type="matrix" values="0 0 0 0 0.0673077 0 0 0 0 0.0272628 0 0 0 0 0.00679549 0 0 0 1 0"/>
<feBlend mode="normal" in2="BackgroundImageFix" result="effect1_dropShadow_2014_132"/>
<feBlend mode="normal" in="SourceGraphic" in2="effect1_dropShadow_2014_132" result="shape"/>
</filter>
<filter id="filter1_d_2014_132" x="39.7645" y="0.5" width="45.0379" height="143" filterUnits="userSpaceOnUse" color-interpolation-filters="sRGB">
<feFlood flood-opacity="0" result="BackgroundImageFix"/>
<feColorMatrix in="SourceAlpha" type="matrix" values="0 0 0 0 0 0 0 0 0 0 0 0 0 0 0 0 0 0 127 0" result="hardAlpha"/>
<feOffset dx="-3"/>
<feGaussianBlur stdDeviation="0.5"/>
<feComposite in2="hardAlpha" operator="out"/>
<feColorMatrix type="matrix" values="0 0 0 0 0.0666667 0 0 0 0 0.027451 0 0 0 0 0.00784314 0 0 0 0.54 0"/>
<feBlend mode="normal" in2="BackgroundImageFix" result="effect1_dropShadow_2014_132"/>
<feBlend mode="normal" in="SourceGraphic" in2="effect1_dropShadow_2014_132" result="shape"/>
</filter>
<linearGradient id="paint0_linear_2014_132" x1="71.8024" y1="142" x2="5.30243" y2="130" gradientUnits="userSpaceOnUse">
<stop stop-color="#230E09"/>
<stop offset="0.868481" stop-color="#643F27"/>
</linearGradient>
<linearGradient id="paint1_linear_2014_132" x1="47.3024" y1="119.5" x2="90.3024" y2="116" gradientUnits="userSpaceOnUse">
<stop stop-color="#4F2F1D"/>
<stop offset="0.929606" stop-color="#250B01"/>
</linearGradient>
</defs>
</svg>
