<svg width="532" height="530" viewBox="0 0 532 530" fill="none" xmlns="http://www.w3.org/2000/svg">
<g filter="url(#filter0_dd_2018_6)">
<path d="M530 26H53.25C53.2499 54.7266 36 263 92 326.963C103.27 353.503 126.675 377.617 147.5 397.93C168.325 418.242 180.467 434.355 207.676 445.349C234.885 456.342 264.047 462 293.498 462C322.949 462 352.112 456.342 379.321 445.349C406.53 434.355 431.253 418.242 452.078 397.93C472.903 377.617 512.73 332.04 524 305.5C526.909 298.651 528.796 278.633 530 252.208V506H46V24H530V26Z" fill="#C26B30"/>
</g>
<defs>
<filter id="filter0_dd_2018_6" x="0" y="0" width="532" height="530" filterUnits="userSpaceOnUse" color-interpolation-filters="sRGB">
<feFlood flood-opacity="0" result="BackgroundImageFix"/>
<feColorMatrix in="SourceAlpha" type="matrix" values="0 0 0 0 0 0 0 0 0 0 0 0 0 0 0 0 0 0 127 0" result="hardAlpha"/>
<feOffset dx="-6"/>
<feGaussianBlur stdDeviation="3.5"/>
<feComposite in2="hardAlpha" operator="out"/>
<feColorMatrix type="matrix" values="0 0 0 0 0 0 0 0 0 0 0 0 0 0 0 0 0 0 0.25 0"/>
<feBlend mode="normal" in2="BackgroundImageFix" result="effect1_dropShadow_2018_6"/>
<feColorMatrix in="SourceAlpha" type="matrix" values="0 0 0 0 0 0 0 0 0 0 0 0 0 0 0 0 0 0 127 0" result="hardAlpha"/>
<feOffset dx="-22"/>
<feGaussianBlur stdDeviation="12"/>
<feComposite in2="hardAlpha" operator="out"/>
<feColorMatrix type="matrix" values="0 0 0 0 0.196078 0 0 0 0 0.133333 0 0 0 0 0.0901961 0 0 0 0.42 0"/>
<feBlend mode="normal" in2="effect1_dropShadow_2018_6" result="effect2_dropShadow_2018_6"/>
<feBlend mode="normal" in="SourceGraphic" in2="effect2_dropShadow_2018_6" result="shape"/>
</filter>
</defs>
</svg>
