<svg width="516" height="97" viewBox="0 0 516 97" fill="none" xmlns="http://www.w3.org/2000/svg">
<g clip-path="url(#clip0_2017_146)" filter="url(#filter0_i_2017_146)">
<g filter="url(#filter1_d_2017_146)">
<path d="M4.66734e-08 104.673C0.00270416 104.485 1.83154 102.181 4.06407 99.5522C6.2966 96.9238 10.8377 91.3118 14.1555 87.0811C17.4733 82.8505 22.2879 76.9687 24.8547 74.0105C29.9189 68.1742 29.6346 68.3459 36.0824 67.2292C40.0641 66.5396 43.0047 64.9254 50.6081 59.2554C57.626 54.022 58.4546 53.5812 69.3784 49.2697C81.5996 44.4461 81.6609 44.4126 87.0219 39.6203C89.7134 37.2142 93.3108 34.2622 95.0161 33.0603C100.514 29.1851 105.298 28.9979 110.491 32.4548L113.036 34.1495L117.909 33.7633C125.15 33.1895 127.745 33.3532 129.804 34.5137C131.661 35.5602 131.472 35.5599 138.375 34.5264C140.504 34.2078 141.118 34.3126 143.369 35.3804C145.891 36.5759 153.241 40.9716 155.919 42.8859C161.347 46.7647 166.674 51.0234 171.257 55.1475C175.995 59.4116 176.749 59.9291 177.839 59.6667C179.974 59.1526 182.768 57.2717 187.272 53.316C189.672 51.2076 192.145 49.3545 192.767 49.198C194.583 48.7409 197.88 49.3499 201.539 50.8191C205.582 52.4419 206.327 52.4838 210.094 51.3001C218.746 48.5807 225.984 50.3449 234.014 57.13C237.468 60.0483 237.726 60.1795 239.896 60.1245C242.68 60.0539 244.216 59.4245 251.591 55.3327C256.735 52.4788 257.569 52.1527 259.019 52.4255C263.159 53.2042 277.26 58.4236 280.173 60.2552C284.24 62.8124 292.047 60.6967 316.837 50.3186L330.228 44.7127L334.54 44.7136C338.398 44.7144 339.188 44.8652 342.03 46.1451C353.663 51.3825 353.495 51.3249 358.536 51.7946C373.769 53.2139 373.775 53.2157 378.266 58.3242C379.721 59.9789 381.457 61.609 382.124 61.9466C384.019 62.9051 389.76 64.0507 392.668 64.0507C395.236 64.0507 395.35 63.9975 396.946 62.0435C398.653 59.9552 401.238 58.589 403.483 58.589C404.192 58.589 405.975 59.2102 407.446 59.9695L410.119 61.35L414.452 60.7995L418.784 60.2491L421.942 61.9847C428.902 65.8108 434.464 68.6021 435.127 68.6021C435.512 68.6021 436.519 68.0728 437.365 67.4259C440.187 65.268 442.486 64.8748 450.293 65.2154C457.924 65.5483 459.091 65.3305 462.208 62.989C464.865 60.9925 465.38 61.0427 468.534 63.6065C470.295 65.0381 474.287 67.3545 478.89 69.616C488.508 74.3419 490.6 75.7002 492.72 78.595C493.972 80.3061 495.149 81.2947 496.95 82.1498C500.12 83.6546 503.473 86.7746 509.737 94.0468C514.981 100.135 517.137 101.981 521.149 103.817L523.602 104.939L261.798 104.976C117.807 104.997 -0.00270764 104.86 4.66734e-08 104.673Z" fill="#65452E"/>
</g>
</g>
<defs>
<filter id="filter0_i_2017_146" x="-1" y="0" width="517" height="100" filterUnits="userSpaceOnUse" color-interpolation-filters="sRGB">
<feFlood flood-opacity="0" result="BackgroundImageFix"/>
<feBlend mode="normal" in="SourceGraphic" in2="BackgroundImageFix" result="shape"/>
<feColorMatrix in="SourceAlpha" type="matrix" values="0 0 0 0 0 0 0 0 0 0 0 0 0 0 0 0 0 0 127 0" result="hardAlpha"/>
<feOffset dx="-1" dy="3"/>
<feGaussianBlur stdDeviation="1.5"/>
<feComposite in2="hardAlpha" operator="arithmetic" k2="-1" k3="1"/>
<feColorMatrix type="matrix" values="0 0 0 0 0 0 0 0 0 0 0 0 0 0 0 0 0 0 0.18 0"/>
<feBlend mode="normal" in2="shape" result="effect1_innerShadow_2017_146"/>
</filter>
<filter id="filter1_d_2017_146" x="-5" y="24" width="533.602" height="84.9781" filterUnits="userSpaceOnUse" color-interpolation-filters="sRGB">
<feFlood flood-opacity="0" result="BackgroundImageFix"/>
<feColorMatrix in="SourceAlpha" type="matrix" values="0 0 0 0 0 0 0 0 0 0 0 0 0 0 0 0 0 0 127 0" result="hardAlpha"/>
<feOffset dy="-1"/>
<feGaussianBlur stdDeviation="2.5"/>
<feComposite in2="hardAlpha" operator="out"/>
<feColorMatrix type="matrix" values="0 0 0 0 0.129808 0 0 0 0 0.0740283 0 0 0 0 0.0287075 0 0 0 0.48 0"/>
<feBlend mode="normal" in2="BackgroundImageFix" result="effect1_dropShadow_2017_146"/>
<feBlend mode="normal" in="SourceGraphic" in2="effect1_dropShadow_2017_146" result="shape"/>
</filter>
<clipPath id="clip0_2017_146">
<rect width="516" height="97" fill="white"/>
</clipPath>
</defs>
</svg>
