<?xml version="1.0" encoding="UTF-8" standalone="no"?>
<svg
   width="495.16397"
   height="46.344086"
   viewBox="0 0 495.16397 46.344086"
   fill="none"
   version="1.1"
   id="svg330"
   sodipodi:docname="water-reflex.svg"
   xmlns:inkscape="http://www.inkscape.org/namespaces/inkscape"
   xmlns:sodipodi="http://sodipodi.sourceforge.net/DTD/sodipodi-0.dtd"
   xmlns="http://www.w3.org/2000/svg"
   xmlns:svg="http://www.w3.org/2000/svg">
  <defs
     id="defs334" />
  <sodipodi:namedview
     id="namedview332"
     pagecolor="#ffffff"
     bordercolor="#000000"
     borderopacity="0.25"
     inkscape:showpageshadow="2"
     inkscape:pageopacity="0.0"
     inkscape:pagecheckerboard="0"
     inkscape:deskcolor="#d1d1d1"
     showgrid="false"
     inkscape:zoom="0.81148921"
     inkscape:cx="215.03675"
     inkscape:cy="212.57214"
     inkscape:window-width="1366"
     inkscape:window-height="651"
     inkscape:window-x="0"
     inkscape:window-y="32"
     inkscape:window-maximized="1"
     inkscape:current-layer="svg330" />
  <path
     d="m 203.49496,44.807082 c 5.77,-0.858 10.168,-0.66 12.703,0.574 m 37.525,0.189 c -6.469,-0.733 -11.923,-1.438 -12.12,-1.566 -0.196,-0.129 -3.246,-0.601 -6.778,-1.049 -3.532,-0.449 -7.095,-0.976 -7.916,-1.172 -1.44,-0.343 -1.412,-0.37 0.747,-0.741 1.233,-0.213 4.259,-0.427 6.725,-0.478 4.611,-0.094 7.34,-0.576 6.471,-1.144 -0.498,-0.325 -25.182,0.378 -37.606,1.071 -6.25,0.349 -8.966,0.044 -8.966,-1.006 0,-0.8 4.226,-0.924 27.398,-0.802 23.244,0.122 33.654,0.563 34.17,1.448 0.144,0.246 0.025,0.447 -0.266,0.447 -0.29,0 -0.528,0.266 -0.528,0.591 0,0.424 2.215,0.507 7.846,0.293 4.315,-0.164 7.398,-0.178 6.85,-0.033 -0.548,0.146 -1.333,0.429 -1.744,0.629 -0.411,0.201 8.265,0.483 19.279,0.628 14.739,0.194 20.186,0.433 20.63,0.903 0.472,0.5 0.154,0.715 -1.47,0.99 -3.28,0.555 -2.417,1.27 1.538,1.273 m -173.759,0.457 m -24.879,-0.666 3.985,-0.295 -4.551,0.996 m 346.283,-0.495 c 0.446,-0.763 6.339,-0.649 15.723,0.303 m -33.407,-0.306 c -3.749,-0.292 -3.379,-0.341 3.238,-0.42 4.977,-0.06 7.223,0.08 6.725,0.42 -0.789,0.54 -3.05,0.54 -9.963,0 z m -37.361,-1.266 c -3.699,-0.318 -6.483,-0.745 -6.187,-0.95 0.847,-0.584 20.294,0.022 26.362,0.825 l 5.479,0.723 -9.465,-0.009 c -5.205,-0.005 -12.491,-0.271 -16.189,-0.589 z m -382.083502,-0.594 c -2.0215,-0.53 -3.5234,-0.588 -5.7287,-0.223 -1.6439,0.273 -5.0625,0.498 -7.59685,0.5 L 0,44.268082 v -2.321 -2.322 l 2.366228,-0.029 c 1.30142,-0.017 5.27904,-0.395 8.83913,-0.842 8.5039,-1.066 11.9127,-1.077 11.5356,-0.037 -0.1543,0.425 -0.0101,0.959 0.3204,1.186 0.3305,0.226 11.2489,0.412 24.2631,0.412 16.9202,0 24.8688,0.195 27.8966,0.686 2.3288,0.377 7.1485,0.894 10.7103,1.15 4.7277,0.34 1.7691,0.398 -10.9594,0.218 -15.1328,-0.215 -19.8694,-0.072 -35.867,1.088 -10.1374,0.735 -18.4316,1.316 -18.4316,1.292 0,-0.021 -1.233,-0.368 -2.7399,-0.763 z m 77.7118,0.303 c 0.959,-0.265 5.217702,-0.604 9.464702,-0.754 4.951,-0.175 6.917,-0.111 5.48,0.178 -3.225,0.648 -17.148802,1.185 -14.944702,0.576 z m 377.303702,-0.329 c -1.344,-0.366 -3.064,-0.916 -3.822,-1.223 -0.758,-0.307 -3.448,-0.823 -5.978,-1.147 -2.53,-0.324 -6.281,-1.155 -8.336,-1.848 -2.055,-0.693 -4.253,-1.262 -4.886,-1.266 -0.633,-0.005 -1.022,-0.226 -0.865,-0.495 0.159,-0.273 2.53,-0.386 5.384,-0.256 12.689,0.578 26.299,1.403 29.26,1.775 3.162,0.397 3.117,0.408 -1.909,0.478 -3.873,0.055 -5.097,0.236 -4.942,0.731 0.15,0.479 2.655,0.747 9.133,0.978 4.91,0.175 8.983,0.352 9.051,0.395 0.069,0.042 0.125,0.409 0.125,0.814 0,0.739 -0.356,0.773 -16.237,1.555 -1.944,0.096 -4.634,-0.125 -5.978,-0.491 z m -288.134,-0.22 c 0,-0.318 1.828,-0.502 4.608,-0.465 3.189,0.044 4.148,0.187 3.113,0.465 -2.255,0.607 -7.721,0.607 -7.721,0 z m 176.097,-0.527 c -0.548,-0.249 -1.725,-0.47 -2.616,-0.49 -0.89,-0.019 -1.619,-0.253 -1.619,-0.517 0,-0.761 5.811,-0.893 10.711,-0.243 5.452,0.723 5.139,0.631 4.234,1.25 -0.916,0.626 -9.333,0.626 -10.71,0 z m -218.44,-1.008 c -1.056,-0.319 -0.875,-0.431 1.19,-0.738 3.069,-0.457 6.242,-0.408 7.506,0.116 1.951,0.807 -6.161,1.387 -8.696,0.622 z m 23.537,-1.804 c -6.58,-1.132 -2.252,-1.96 9.784,-1.87 4.551,0.034 9.732,0.216 11.512,0.404 2.96,0.313 3.089,0.375 1.495,0.722 -2.803,0.609 -12.919,1.446 -16.439,1.359 -1.781,-0.043 -4.639,-0.32 -6.352,-0.615 z m 233.011,0.177 c -1.728,-0.385 -1.723,-0.389 0.498,-0.412 1.233,-0.012 3.363,0.162 4.733,0.387 l 2.491,0.411 -2.989,0.001 c -1.644,0 -3.774,-0.174 -4.733,-0.387 z m -305.740902,-0.32 c 0.4795,-0.156 0.8718,-0.505 0.8718,-0.773 0,-0.28 -3.5645,-0.495 -8.3441,-0.505 -9.3229,-0.016 -9.7136,-0.487 -1.4794,-1.778 7.669,-1.201 16.149602,-1.113 20.533602,0.213 2.655,0.803 4.977,1.054 9.756,1.054 3.449,0 8.382,0.335 10.961,0.745 3.474,0.552 6.045,0.626 9.92,0.286 2.876,-0.252 6.015,-0.442 6.974,-0.423 1.689,0.034 1.673,0.051 -0.498,0.556 -2.519,0.586 -18.062,0.815 -28.644,0.422 -3.836,-0.142 -10.113,-0.09 -13.949002,0.115 -3.8353,0.206 -6.5814,0.245 -6.1019,0.088 z m 341.109902,-0.171 c 0,-0.274 1.982,-0.449 4.481,-0.395 2.464,0.052 4.482,0.273 4.483,0.49 0.002,0.218 -2.015,0.396 -4.481,0.396 -2.465,0 -4.483,-0.221 -4.483,-0.491 z m -63.265,-0.511 c -1.647,-0.232 -2,-0.421 -1.329,-0.711 1.145,-0.497 15.563,-0.522 17.83,-0.032 1.623,0.351 1.638,0.377 0.436,0.738 -1.492,0.449 -13.767,0.453 -16.937,0.005 z m 47.2,0.083 c 2.26,-0.098 5.959,-0.098 8.219,0 2.261,0.097 0.411,0.177 -4.11,0.177 -4.52,0 -6.37,-0.08 -4.109,-0.177 z m -74.599,-0.662 c 0.411,-0.282 2.317,-0.485 4.235,-0.454 3.349,0.056 3.398,0.075 1.245,0.48 -3.313,0.624 -6.409,0.609 -5.48,-0.026 z m -15.924,-0.506 c 0.42,-0.26 2.438,-0.508 4.483,-0.549 4.543,-0.094 5.156,0.006 3.222,0.527 -2.186,0.589 -8.649,0.607 -7.705,0.022 z m -173.374,-1.076 c 0.685,-0.232 4.048,-0.409 7.473,-0.394 5.33,0.024 5.761,0.083 2.989,0.413 -4.508,0.536 -12.059,0.523 -10.462,-0.019 z m 237.121,-0.022 c -0.717,-0.256 1.821,-0.317 5.978,-0.143 3.973,0.166 7.316,0.39 7.431,0.497 0.43,0.405 -12.219,0.07 -13.409,-0.354 z m -387.811812,-0.505 c -0.19448,-0.333 0.94146,-0.513 3.08405,-0.49 2.35706,0.026 3.08796,0.175 2.39566,0.49 -1.39533,0.634 -5.10915,0.634 -5.47971,0 z m 66.25431,-0.527 c 0.5479,-0.249 1.7248,-0.47 2.6153,-0.49 0.8904,-0.02 1.619,-0.244 1.619,-0.497 0,-0.954 -4.0555,-1.084 -9.7717,-0.313 -5.4508,0.736 -26.7808,1.591 -24.2272,0.971 0.6164,-0.149 1.1208,-0.52 1.1208,-0.824 0,-0.367 -1.3847,-0.446 -4.1098,-0.237 -8.3906,0.646 -24.6383,0.895 -27.772,0.427 -3.93412,-0.589 -4.12815,-0.577 14.1974,-0.846 7.3976,-0.109 15.0879,-0.459 17.0897,-0.778 2.4686,-0.393 4.9723,-0.42 7.7813,-0.082 4.3859,0.527 4.6813,0.494 9.7476,-1.101 3.6403,-1.147 13.2106,-1.966 11.9587,-1.025 -0.411,0.309 -1.1263,0.566 -1.5896,0.57 -0.4633,0.005 -0.9879,0.257 -1.1657,0.562 -0.2239,0.383 2.1803,0.447 7.8165,0.209 5.2477,-0.222 8.5823,-0.149 9.3852,0.204 1.1955,0.526 1.2011,0.549 0.1389,0.581 -0.6086,0.018 -2.9493,0.745 -5.2015,1.615 -3.0729,1.186 -4.9102,1.572 -7.362,1.544 -2.2871,-0.026 -2.9683,-0.173 -2.2709,-0.49 z m 62.518502,-0.993 c 0,-0.719 6.101,-1.242 9.714,-0.832 5.371,0.608 3.651,1.298 -3.238,1.298 -3.562,0 -6.476,-0.21 -6.476,-0.466 z m 175.236,0.17 c -0.154,-0.163 -5.852,-0.471 -12.662,-0.685 -10.307,-0.324 -12.146,-0.495 -10.979,-1.022 2.556,-1.153 32.799,-0.642 45.175,0.763 2.737,0.311 3.007,0.426 1.743,0.741 -1.781,0.446 -22.874,0.629 -23.277,0.203 z m 104.227,-0.259 c -3.699,-0.206 -7.678,-0.403 -8.842,-0.437 -3.063,-0.09 -2.609,-1.115 0.498,-1.124 4.526,-0.013 19.009,1.146 20.051,1.605 1.174,0.518 -1.815,0.506 -11.707,-0.044 z m 46.328,0.206 c -0.685,-0.113 -3.823,-0.683 -6.974,-1.266 -3.151,-0.582 -7.97,-1.229 -10.71,-1.438 l -4.982,-0.378 6.016,-0.723 c 5.581,-0.672 6.617,-0.643 14.359,0.395 5.053,0.678 8.766,1.432 9.414,1.912 0.67,0.496 2.377,0.825 4.57,0.878 l 3.501,0.085 -3.736,0.373 c -4.089,0.408 -9.501,0.485 -11.458,0.162 z m -288.043,-1.092 c 1.172,-0.111 2.965,-0.11 3.985,0.004 1.02,0.113 0.062,0.204 -2.13,0.202 -2.192,-0.002 -3.027,-0.095 -1.855,-0.206 z m 17.821,-0.072 c 0.26,-0.252 4.62,-0.727 9.689,-1.056 10.325,-0.669 11.732,-0.709 11.371,-0.327 -0.256,0.271 -17.355,1.842 -20.053,1.842 -0.87,0 -1.286,-0.189 -1.007,-0.459 z m 49.043,-0.006 c 0,-0.653 6.97,-1.274 8.746,-0.78 l 1.466,0.408 -1.495,0.356 c -2.248,0.536 -8.717,0.547 -8.717,0.016 z m 124.787,-0.062 c 0.171,-0.294 2.331,-0.511 4.886,-0.49 3.022,0.024 4.24,0.191 3.582,0.49 -1.438,0.654 -8.85,0.654 -8.468,0 z m 129.9,-0.378 c 0.757,-0.122 1.878,-0.118 2.491,0.007 0.612,0.125 -0.007,0.224 -1.377,0.22 -1.37,-0.004 -1.871,-0.106 -1.114,-0.227 z m -342.744,-0.669 c -5.501,-0.662 -3.982,-1.062 4.035,-1.062 7.613,0 10.137,0.573 5.493,1.246 -2.68,0.389 -5.163,0.341 -9.528,-0.184 z m 236.328,-0.121 c 1.041,-0.355 3.126,-0.362 6.227,-0.022 l 4.661,0.511 -6.227,0.022 c -4.876,0.017 -5.887,-0.094 -4.661,-0.511 z m -287.006802,-0.414 c -0.3181,-0.544 1.801802,-0.64 11.758802,-0.53 2.906,0.032 8.622,-0.33 12.703,-0.805 5.05,-0.587 8.454,-0.726 10.658,-0.436 3.011,0.397 2.715,0.451 -4.234,0.78 -4.11,0.194 -9.826,0.607 -12.703,0.918 -6.707,0.724 -17.776402,0.769 -18.182802,0.073 z m 124.786802,-0.445 -1.743,-0.379 2.436,-0.379 c 3.893,-0.604 14.27,-0.425 12.758,0.221 -1.558,0.665 -11.108,1.046 -13.451,0.537 z m 37.86,-0.667 c -4.247,-0.279 -8.73,-0.709 -9.963,-0.956 l -2.242,-0.449 2.989,-0.059 c 1.644,-0.032 4.861,-0.335 7.149,-0.673 3.169,-0.468 6.49,-0.468 13.948,0 5.384,0.338 17.354,0.761 26.601,0.939 9.247,0.178 16.813,0.489 16.813,0.691 0,0.201 -6.669,0.352 -14.82,0.334 -8.151,-0.018 -18.855,0.128 -23.787,0.324 -4.932,0.195 -12.441,0.128 -16.688,-0.151 z m 73.727,0.058 c -1.945,-0.32 -1.714,-0.378 1.743,-0.44 2.734,-0.048 3.751,0.09 3.238,0.44 -0.815,0.558 -1.592,0.558 -4.981,0 z m -330.770122,-0.695 c -2.87301,-0.479 -3.77046001,-0.835 -3.89721001,-1.545 -0.206616,-1.157 0.87356,-1.173 20.74363001,-0.299 l 14.6083,0.643 6.8122,-1.408 c 7.969,-1.647 8.9208,-1.685 29.3343,-1.151 9.8515,0.257 15.4381,0.593 15.2483,0.918 -0.1845,0.316 -3.1889,0.406 -7.8265,0.234 -5.1398,-0.19 -9.4228,-0.03 -13.5048,0.504 -3.9066,0.511 -7.445,0.656 -10.2121,0.418 -5.712,-0.49 -7.0819,-0.396 -13.051,0.894 -4.3996,0.952 -7.2279,1.132 -19.8271,1.263 -9.5718,0.099 -15.99688,-0.065 -18.42802,-0.471 z m 42.58842,0.168 c 0.548,-0.249 2.5655,-0.453 4.4834,-0.453 2.3852,0 3.1722,0.143 2.4907,0.453 -0.5479,0.249 -2.5654,0.453 -4.4833,0.453 -2.3852,0 -3.1723,-0.143 -2.4908,-0.453 z m 134.625702,-0.372 c 0.617,-0.126 1.625,-0.126 2.242,0 0.616,0.126 0.112,0.229 -1.121,0.229 -1.233,0 -1.737,-0.103 -1.121,-0.229 z m 167.006,-0.155 c -0.516,-0.353 0.514,-0.513 3.333,-0.519 2.244,-0.005 4.219,0.229 4.388,0.519 0.404,0.692 -6.709,0.692 -7.721,0 z m -162.517,-0.373 c 0.62,-0.126 1.517,-0.121 1.993,0.011 0.476,0.132 -0.031,0.235 -1.127,0.229 -1.096,-0.006 -1.485,-0.114 -0.866,-0.24 z m 221.797,-0.108 -1.744,-0.343 1.993,-0.373 c 2.423,-0.453 14.804,-0.402 18.93,0.078 2.62,0.306 2.133,0.396 -3.94,0.734 -7.835,0.435 -12.688,0.405 -15.239,-0.096 z m 45.332,-0.489 c -8.24,-0.694 -9.374,-0.887 -7.473,-1.276 4.788,-0.979 24.948,0.531 26.308,1.971 0.463,0.489 -8.864,0.145 -18.835,-0.695 z m 28.891,0.409 c -3.971,-0.447 -6.474,-1.217 -6.474,-1.994 0,-0.642 3.326,-1.036 12.329,-1.46 l 7.597,-0.358 v 2.186 2.187 l -4.857,-0.07 c -2.672,-0.039 -6.539,-0.259 -8.595,-0.491 z m -379.964,-0.329 c 0.479,-0.133 1.264,-0.133 1.743,0 0.48,0.132 0.087,0.241 -0.872,0.241 -0.958,0 -1.351,-0.109 -0.871,-0.241 z m 112.664,-0.091 c 0.447,-0.765 4.766,-1.153 8.842,-0.793 2.132,0.188 3.756,0.545 3.611,0.794 -0.145,0.249 -3.066,0.453 -6.491,0.453 -3.425,0 -6.108,-0.204 -5.962,-0.454 z m -53.011,-0.535 c 0,-0.684 11.307,-1.587 22.915,-1.829 5.617,-0.117 9.988,-0.131 9.714,-0.03 -0.274,0.101 -5.959,0.664 -12.634,1.252 -12.963,1.142 -19.995,1.355 -19.995,0.607 z m 215.701,-0.087 c -1.507,-0.221 -5.655,-0.448 -9.216,-0.506 -3.562,-0.057 -7.037,-0.314 -7.722,-0.571 -0.744,-0.279 4.749,-0.356 13.652,-0.192 8.193,0.151 15.142,0.441 15.442,0.643 1.387,0.937 -7.057,1.371 -12.156,0.626 z m -254.921,-0.871 c 0.485,-0.133 1.158,-0.125 1.495,0.02 0.337,0.144 -0.059,0.254 -0.881,0.243 -0.822,-0.011 -1.098,-0.129 -0.614,-0.263 z m 20.042,-0.162 c 2.303,-0.62 7.133,-0.62 6.227,0 -0.411,0.282 -2.317,0.487 -4.235,0.457 -2.648,-0.041 -3.127,-0.151 -1.992,-0.457 z m -36.116,-1.448 c -1.109,-0.531 -4.101,-0.978 -8.220002,-1.228 -10.297,-0.623 -10.5758,-1.467 -0.4981,-1.507 5.044102,-0.02 12.043102,-0.465 17.310102,-1.101 8.4,-1.014 9.171,-1.026 15.443,-0.24 3.63,0.455 6.937,0.965 7.348,1.133 1.961,0.8 -3.061,1.406 -12.205,1.472 -9.264,0.066 -10.102,0.153 -11.948,1.232 -2.298,1.343 -4.756,1.425 -7.23,0.239 z m 127.028,0.106 c -2.876,-0.377 -8.252,-0.859 -11.946,-1.072 -5.244,-0.302 -6.463,-0.506 -5.563,-0.931 0.797,-0.376 5.208,-0.35 14.314,0.087 13.573,0.65 20.818,1.457 20.345,2.267 -0.391,0.669 -11.018,0.451 -17.15,-0.351 z m -228.402512,-0.239 c -1.28933,-0.586 3.46388,-0.603 6.97411,-0.024 2.2816,0.376 2.1351,0.413 -1.7435,0.444 -2.32887,0.018 -4.68264,-0.171 -5.23061,-0.42 z m 31.50811,0.146 c 0.8905,-0.117 2.3476,-0.117 3.238,0 0.8905,0.117 0.1619,0.213 -1.619,0.213 -1.7809,0 -2.5094,-0.096 -1.619,-0.213 z m 299.316402,-0.235 c -6.609,-0.675 -5.466,-0.881 4.93,-0.89 5.48,-0.004 9.515,0.181 8.967,0.412 -1.542,0.65 -9.526,0.925 -13.897,0.478 z m 69.815,0.244 c 0.616,-0.125 1.625,-0.125 2.241,0 0.617,0.126 0.113,0.229 -1.12,0.229 -1.233,0 -1.738,-0.103 -1.121,-0.229 z m -269.127,-0.594 c 0.598,-0.657 12.725,-2.207 16.937,-2.165 1.644,0.016 3.886,0.209 4.981,0.428 1.871,0.374 1.765,0.42 -1.743,0.746 -2.055,0.191 -6.65,0.484 -10.212,0.65 -3.562,0.165 -7.373,0.433 -8.469,0.595 -1.371,0.202 -1.837,0.123 -1.494,-0.254 z m 176.346,-0.088 c 1.251,-0.569 6.753,-0.584 9.714,-0.027 1.677,0.316 0.61,0.43 -4.235,0.451 -4.027,0.018 -6.099,-0.142 -5.479,-0.424 z m -296.401002,-0.344 c -0.822,-0.103 -2.7166,-0.327 -4.2104,-0.5 -5.29014,-0.609 -1.305,-1.147 5.2067,-0.702 3.5618,0.243 7.2606,0.477 8.2195,0.52 1.6105,0.071 1.6485,0.109 0.4982,0.499 -1.2511,0.424 -6.925,0.531 -9.714,0.183 z m 248.329002,-0.183 c -2.33,-0.519 10.759,-0.537 14.696,-0.02 2.199,0.288 0.882,0.394 -4.982,0.4 -4.384,0.005 -8.755,-0.166 -9.714,-0.38 z m -85.807,-0.372 c 0.617,-0.126 1.625,-0.126 2.242,0 0.616,0.126 0.112,0.228 -1.121,0.228 -1.233,0 -1.737,-0.102 -1.121,-0.228 z m 211.217,-0.014 c 1.164,-0.111 3.07,-0.111 4.234,0 1.165,0.111 0.212,0.202 -2.117,0.202 -2.329,0 -3.281,-0.091 -2.117,-0.202 z m -198.965,-0.738 c 1.125,-0.692 11.191,-0.67 12.84,0.028 0.832,0.353 -1.042,0.507 -6.286,0.52 -5.55,0.012 -7.236,-0.128 -6.554,-0.548 z M 0,23.504082 c 0,-0.947 2.222188,-1.207 2.739838,-0.32 0.16933,0.29 -0.02326,0.527 -0.42801,0.527 -0.40474,0 -1.09047,0.144 -1.52386001,0.32 C 0.27089799,24.241082 0,24.059082 0,23.504082 Z m 75.221058,-0.242 c -0.8523,-0.281 0.4781,-0.518 4.2147,-0.748 5.2361,-0.324 6.2745,-0.238 5.612,0.463 -0.48,0.507 -8.4514,0.739 -9.8267,0.285 z m 204.491902,-0.078 c 0.548,-0.249 1.556,-0.466 2.241,-0.482 0.982,-0.023 1.087,0.079 0.499,0.482 -0.411,0.281 -1.42,0.498 -2.242,0.482 -1.283,-0.025 -1.354,-0.093 -0.498,-0.482 z m 159.782,0.141 c -1.164,-0.111 -2.117,-0.425 -2.117,-0.699 0,-0.586 3.584,-0.633 9.465,-0.123 3.176,0.276 3.861,0.457 2.74,0.726 -1.593,0.381 -6.598,0.428 -10.088,0.096 z m -144.7,-0.528 c 1.172,-0.111 2.965,-0.11 3.985,0.004 1.02,0.113 0.062,0.204 -2.13,0.202 -2.192,-0.002 -3.027,-0.095 -1.855,-0.206 z m 194.266,0.038 c 0.343,-0.147 0.903,-0.147 1.246,0 0.342,0.146 0.062,0.266 -0.623,0.266 -0.685,0 -0.965,-0.12 -0.623,-0.266 z m -474.260202,-0.672 c -1.586,-0.234 -3.0023,-0.551 -3.1474,-0.705 -0.5264,-0.557 9.374,-1.025 13.6259,-0.644 3.5651,0.319 4.1336,0.483 3.1154,0.898 -1.7011,0.694 -10.0652,0.971 -13.5939,0.451 z m 82.7126,0.122 c 0.6165,-0.126 1.6256,-0.126 2.2416,0 0.617002,0.125 0.112,0.228 -1.1207,0.228 -1.233,0 -1.7374,-0.103 -1.1209,-0.228 z m 226.036602,-0.185 c -3.562,-0.207 -18.357,-0.408 -32.878,-0.446 -24.643,-0.063 -31.305,-0.409 -25.318,-1.315 8.057,-1.219 10.212,-1.292 16.674,-0.563 3.658,0.413 11.695,0.76 17.86,0.771 14.052,0.024 32.823,0.861 34.414,1.533 1.43,0.606 -0.651,0.61 -10.752,0.02 z m 35.185,-0.101 c 2.432,-0.325 6.112,-0.327 10.212,-0.005 l 6.411,0.503 -10.212,0.005 c -8.841,0.005 -9.702,-0.063 -6.411,-0.503 z m 107.66,0.274 c 1.028,-0.114 2.709,-0.114 3.737,0 1.027,0.113 0.186,0.206 -1.869,0.206 -2.054,0 -2.895,-0.093 -1.868,-0.206 z m -299.016,-0.656 c -3.47,-0.283 -2.624,-0.363 4.691,-0.443 4.909,-0.054 8.832,-0.01 8.718,0.098 -0.461,0.437 -9.444,0.668 -13.409,0.345 z m -118.560002,-0.558 c -2.0549,-0.205 -6.0899,-0.436 -8.9668,-0.514 -2.8768,-0.077 -4.6701,-0.247 -3.9852,-0.377 0.685,-0.13 1.4696,-0.47 1.7436,-0.755 0.3269,-0.341 -1.214,-0.371 -4.4834,-0.09 -2.7399,0.236 -5.8782,0.404 -6.9741,0.373 -1.096,-0.03 -7.4287,-0.124 -14.0729,-0.208 L 0,19.336082 v -1.319 -1.319 l 6.718808,0.357 c 5.15485,0.274 7.46195,0.174 9.91125,-0.427 4.556,-1.118 9.1304,-1.462 12.0137,-0.903 l 2.4908,0.483 -2.9889,0.078 c -2.7456,0.073 -2.91,0.142 -2.0195,0.855 0.7331,0.587 2.3119,0.757 6.476,0.7 3.0286,-0.042 7.2999,0.195 9.4917,0.526 2.1919,0.332 9.2532,0.836 15.6918,1.121 12.06,0.534 14.5724,0.844 13.3677,1.652 -0.7769,0.522 -16.887,0.463 -22.3344,-0.081 z m 149.944002,-1.33 c -3.699,-0.372 -6.837,-0.702 -6.974,-0.735 -0.137,-0.032 0.155,-0.308 0.648,-0.611 1.039,-0.64 22.195,0.928 22.989,1.703 0.668,0.652 -8.605,0.453 -16.663,-0.357 z m -112.084402,-0.264 c -2.3289,-0.216 -7.0364,-0.437 -10.4612,-0.491 -9.2024,-0.144 -5.5824,-0.845 8.3225,-1.611 7.8372,-0.431 15.481102,-0.512 22.563102,-0.237 13.075,0.507 11.877,0.505 19.428,0.029 4.783,-0.303 7.324,-0.2 10.959,0.443 2.603,0.461 5.629,0.871 6.725,0.911 1.308,0.049 0.708,0.226 -1.743,0.517 -2.177,0.258 -6.024,0.229 -9.216,-0.07 -8.036,-0.752 -22.012,-0.62 -29.142,0.275 -6.571902,0.824 -10.506502,0.877 -17.435402,0.234 z m 246.585402,0.257 c 0.685,-0.121 7.758,-0.69 15.717,-1.265 11.087,-0.8 15.806,-0.934 20.176,-0.57 3.136,0.261 15.555,0.611 27.597,0.778 13.528,0.187 22.084,0.504 22.392,0.829 0.782,0.828 -27.936,0.639 -42.697,-0.28 -10.037,-0.625 -14.352,-0.678 -19.677,-0.24 -6.811,0.559 -25.865,1.166 -23.508,0.748 z m 96.144,-0.209 c -2.049,-0.23 1.32,-0.397 9.174,-0.455 6.827,-0.05 12.319,-0.002 12.205,0.106 -0.43,0.407 -18.275,0.699 -21.379,0.349 z m -247.69,-0.408 c 1.447,-0.107 3.689,-0.106 4.981,0.002 1.293,0.108 0.108,0.196 -2.632,0.194 -2.739,-0.001 -3.797,-0.089 -2.349,-0.196 z m -32.77,-1.214 c 4.039,-0.591 8.366,-0.58 8.717,0.022 0.2,0.341 -1.762,0.501 -5.574,0.452 -4.945,-0.062 -5.446,-0.137 -3.143,-0.474 z m -104.861502,-0.765 -5.4796,-0.635 4.7324,-0.049 c 3.8486,-0.04 10.2887,0.659 8.1357,0.883 -0.32,0.033 -0.8804,0.145 -1.2453,0.248 -0.3649,0.103 -3.1293,-0.099 -6.1432,-0.447 z m 208.412502,0.543 c -0.161,-0.17 -5.747,-0.428 -12.414,-0.573 -6.666,-0.144 -12.227,-0.375 -12.358,-0.513 -0.13,-0.138 1.313,-0.249 3.208,-0.245 1.895,0.003 6.153,-0.269 9.461,-0.605 5.212,-0.53 6.501,-0.495 9.651,0.257 1.999,0.478 5.214,0.869 7.144,0.869 1.93,0 3.415,0.089 3.301,0.199 -0.381,0.367 -7.695,0.926 -7.993,0.611 z m -51.743,-0.898 c -2.329,-0.26 -5.923,-0.334 -7.985,-0.166 -2.246,0.183 -4.245,0.079 -4.982,-0.261 -1.439,-0.662 18.175,-0.229 21.933,0.484 2.11,0.401 2.036,0.425 -1.245,0.42 -1.918,-0.003 -5.393,-0.218 -7.721,-0.477 z m 255.054,0.061 c -1.233,-0.232 -7.006,-0.44 -12.828,-0.461 -6.7,-0.025 -10.586,-0.233 -10.586,-0.567 0,-1.198 31.48,-0.315 36.849,1.034 2.333,0.586 -10.32,0.58 -13.435,-0.006 z m -389.057502,-0.432 -2.2417,-0.352 1.7435,-0.365 c 6.8416,-1.431 26.3253,-1.709 29.6139,-0.422 0.5476,0.215 -3.8179,0.548 -9.7012,0.74 -5.8832,0.192 -12.1539,0.44 -13.9348,0.551 -1.7809,0.111 -4.2468,0.042 -5.4797,-0.152 z m 73.726502,-0.596 c 1.835,-0.621 7.971,-0.621 7.971,0 0,0.318 -1.835,0.507 -4.608,0.475 -3.074,-0.035 -4.194,-0.193 -3.363,-0.475 z m -81.572402,-0.377 c 0.7534,-0.121 1.9864,-0.121 2.7398,0 0.7535,0.121 0.137,0.22 -1.3699,0.22 -1.5069,0 -2.1234,-0.099 -1.3699,-0.22 z m -20.1752,-0.838 c -2.7278,-0.625 -3.1054,-1.242 -0.7472,-1.221 0.8904,0.008 6.9795,-0.282 13.5313,-0.645 17.4666,-0.969 38.9675,-0.768 37.9073,0.354 -0.4561,0.482 -16.1779,0.49 -15.896,0.007 0.4427,-0.758 -3.7821,-0.493 -13.9485,0.875 -10.143,1.365 -16.7701,1.566 -20.8469,0.63 z m 133.629602,0.34 c 0,-0.243 -4.651,-0.37 -10.336,-0.281 -5.686,0.089 -11.57,-0.078 -13.077,-0.37 -2.408,-0.468 -2.047,-0.511 2.989,-0.36 3.15,0.095 9.26,-0.145 13.576,-0.534 7.628,-0.688 9.626,-0.607 9.057,0.367 -0.152,0.261 1.332,0.472 3.324,0.472 1.98,0 3.506,0.09 3.392,0.2 -0.455,0.439 -8.925,0.919 -8.925,0.506 z m 44.42,-0.639 c -1.483,-0.995 5.723,-1.481 11.352,-0.766 1.992,0.253 2.458,0.453 1.744,0.749 -1.338,0.553 -12.275,0.567 -13.096,0.017 z m 93.568,-0.052 c -0.508,-0.358 2.662,-0.528 9.922,-0.534 5.867,-0.004 10.56,0.107 10.427,0.248 -0.507,0.536 -19.61,0.805 -20.349,0.286 z m -210.837002,-0.388 c 0.619002,-0.126 1.516002,-0.121 1.992002,0.011 0.477,0.132 -0.03,0.235 -1.126,0.229 -1.096002,-0.005 -1.485802,-0.114 -0.866002,-0.24 z m 149.482002,-0.616 c 0.366,-0.245 2.495,-0.452 4.732,-0.46 3.948,-0.014 3.987,-0.002 1.328,0.402 -3.825,0.581 -6.883,0.61 -6.06,0.058 z m 40.184,-0.089 c 3.741,-0.617 10.626,-0.6 9.714,0.024 -0.411,0.281 -3.326,0.483 -6.476,0.449 -4.68,-0.051 -5.273,-0.138 -3.238,-0.473 z m 76.715,-0.028 c -6.923,-0.763 -6.692,-0.935 0.996,-0.741 4.11,0.104 8.033,0.428 8.718,0.721 1.006,0.43 0.574,0.525 -2.242,0.496 -1.918,-0.021 -5.28,-0.235 -7.472,-0.476 z m 17.435,0.076 c -8.683,-1.179 13.163,-1.835 27.15,-0.815 l 7.223,0.526 -5.231,0.331 c -6.713,0.426 -25.898,0.398 -29.142,-0.042 z m 58.409,0.117 c 1.164,-0.111 3.07,-0.111 4.234,0 1.165,0.111 0.212,0.202 -2.117,0.202 -2.329,0 -3.282,-0.091 -2.117,-0.202 z m 40.973,-0.137 c -1.507,-0.235 -5.697,-0.45 -9.311,-0.479 -6.824,-0.054 -9.225,-0.766 -4.256,-1.262 3.504,-0.35 21.904,0.62 23.281,1.226 0.798,0.352 0.638,0.447 -0.802,0.475 -0.99,0.02 -2.783,0.133 -3.986,0.251 -1.202,0.119 -3.419,0.024 -4.926,-0.211 z m -287.91,-0.505 c -0.473,-0.317 1.306,-0.543 5.107,-0.651 3.208,-0.091 5.832,-0.023 5.831,0.152 -10e-4,0.308 -6.295,1.008 -8.918,0.992 -0.712,-0.005 -1.621,-0.226 -2.02,-0.493 z m -55.183,-0.391 c 0.484,-0.134 1.157,-0.125 1.494,0.019 0.338,0.145 -0.059,0.254 -0.881,0.243 -0.822,-0.01 -1.098,-0.129 -0.613,-0.262 z m 73.094,-0.689 c 0.987,-0.675 6.829,-0.675 7.223,0 0.196,0.335 -1.196,0.524 -3.831,0.519 -2.856,-0.006 -3.907,-0.167 -3.392,-0.519 z m 48.819,-0.048 c 1.614,-0.485 6.485,-0.479 9.963,0.011 1.994,0.282 0.841,0.384 -4.234,0.375 -3.836,-0.007 -6.414,-0.181 -5.729,-0.386 z m -247.581702,-0.479 c -1.214,-0.412 -1.2077,-0.423 0.2491,-0.436 0.8219,-0.007 2.5032,0.177 3.7361,0.409 l 2.2417,0.422 -2.4907,0.013 c -1.37,0.007 -3.0512,-0.176 -3.7362,-0.408 z m 264.269702,0.036 -1.494,-0.366 1.63,-0.406 c 2.096,-0.5239998 6.33,0.151 4.846,0.772 -1.192,0.498 -2.946,0.498 -4.982,0 z m 59.031,0.039 c -1.557,-0.334 -1.37,-0.414 1.744,-0.748 4.571,-0.4899998 9.711,-0.4219998 10.959,0.146 0.708,0.321 0.116,0.463 -2.044,0.49 -1.672,0.02 -4.362,0.138 -5.978,0.261 -1.615,0.124 -3.722,0.056 -4.681,-0.149 z m 96.891,-0.088 c -3.014,-0.189 -10.523,-0.639 -16.688,-1.001 -6.165,-0.3619998 -11.993,-0.8369998 -12.952,-1.0559998 l -1.744,-0.398 2.242,-0.671 c 1.779,-0.532 3.747,-0.546 9.53,-0.066 4.009,0.332 12.079,0.592 17.934,0.577 13.674,-0.035 38.31,1.153 34.058,1.6419998 -1.644,0.189 -7.304,0.37 -12.578,0.401 -6.025,0.036 -9.59,0.253 -9.59,0.585 0,0.552 -1.233,0.551 -10.212,-0.013 z m -257.296,-0.488 c 0,-0.287 3.2,-0.5679998 7.498,-0.6589998 7.837,-0.165 10.909,0.2039998 6.733,0.8099998 -3.686,0.534 -14.231,0.423 -14.231,-0.151 z m -136.120002,-0.398 c 0.6165,-0.126 1.6252,-0.126 2.2417,0 0.6165,0.125 0.1121,0.228 -1.1208,0.228 -1.233,0 -1.7373,-0.103 -1.1209,-0.228 z m 5.4855,-0.5279998 c 0.6197,-0.126 1.5163,-0.122 1.9926,0.011 0.4763,0.131 -0.0307,0.235 -1.1266,0.229 -1.096,-0.006 -1.4857,-0.114 -0.866,-0.24 z m 5.3138,-0.094 c 0.4492,-0.769 4.4922,-1.191 7.336,-0.767 l 2.6626,0.398 -2.2417,0.379 c -3.2212,0.5439998 -8.0768,0.5379998 -7.7569,-0.01 z m 172.055702,-0.556 c -4.297,-0.173 -7.996,-0.511 -8.22,-0.753 -0.46,-0.497 15.831,0.117 19.271,0.727 l 2.242,0.397 -2.74,-0.028 c -1.507,-0.016 -6.256,-0.17 -10.553,-0.343 z m 73.952,0.13 c 0.485,-0.134 1.157,-0.125 1.495,0.02 0.337,0.144 -0.06,0.254 -0.882,0.243 -0.822,-0.011 -1.098,-0.129 -0.613,-0.263 z m -192.919,-0.735 c -1.781,-0.282 -4.309,-0.379 -5.617402,-0.214 -1.6303,0.206 -2.693,0.068 -3.3748,-0.437 -1.584,-1.174 31.037202,-1.579 43.285202,-0.538 5.025,0.428 9.55,0.94 10.056,1.138 0.505,0.198 -2.458,0.41 -6.586,0.471 -5.814,0.085 -7.826,-0.066 -8.932,-0.671 -1.167,-0.639 -1.993,-0.678 -4.543,-0.217 -4.32,0.783 -20.362,1.092 -24.288,0.468 z m 67.126,0.224 c 0.343,-0.146 0.903,-0.146 1.246,0 0.342,0.146 0.062,0.266 -0.623,0.266 -0.685,0 -0.965,-0.12 -0.623,-0.266 z m 107.607,-0.024 c 0.62,-0.126 1.516,-0.121 1.993,0.011 0.476,0.132 -0.031,0.235 -1.127,0.23 -1.096,-0.006 -1.486,-0.114 -0.866,-0.241 z m -251.033902,-0.639 c -2.9228,-0.168 -5.4468,-0.446 -5.6088,-0.618 -0.382,-0.405 14.3076,-1.015 23.3319,-0.969 8.272,0.042 7.783,0.651 -1.2004,1.496 -6.4182,0.603 -7.5135,0.609 -16.5227,0.091 z m 160.986902,0.037 c -4.537,-0.567 -1.282,-1.082 8.718,-1.38 8.26,-0.245 8.798,-0.207 6.828,0.49 -2.468,0.874 -11.529,1.392 -15.546,0.89 z m -174.228802,-0.456 c 0.7534,-0.121 1.9863,-0.121 2.7398,0 0.7535,0.12 0.137,0.219 -1.3699,0.219 -1.5069,0 -2.1234,-0.099 -1.3699,-0.219 z m 46.4527,-0.15 -2.4908,-0.361 2.2417,-0.075 c 1.2329,-0.041 2.5779,0.155 2.9889,0.436 0.411,0.281 0.5231,0.477 0.2491,0.436 -0.274,-0.041 -1.619,-0.237 -2.9889,-0.436 z m 102.252102,0.154 c 0.619,-0.126 1.516,-0.121 1.992,0.011 0.476,0.132 -0.031,0.235 -1.127,0.229 -1.095,-0.005 -1.485,-0.114 -0.865,-0.24 z m 98.139,-0.009 c 0.895,-0.117 2.24,-0.115 2.989,0.006 0.748,0.12 0.014,0.216 -1.628,0.213 -1.644,-0.003 -2.257,-0.101 -1.361,-0.219 z m 49.931,-0.145 c 1.729,-0.586 11.501,-0.586 10.212,0 -0.548,0.249 -3.35,0.446 -6.227,0.438 -3.343,-0.01 -4.781,-0.168 -3.985,-0.438 z m -233.883102,-0.53 c 1.9216,-0.447 12.0881,-0.731 11.6651,-0.325 -0.1141,0.109 -3.2338,0.332 -6.9326,0.494 -4.3996,0.193 -6.0361,0.135 -4.7325,-0.169 z m 162.647102,-0.024 c 1.233,-0.232 3.586,-0.41 5.23,-0.395 l 2.989,0.027 -2.241,0.422 c -1.233,0.232 -3.587,0.41 -5.231,0.395 l -2.989,-0.027 z m 99.132,0.027 c 0,-0.29 0.897,-0.527 1.993,-0.527 1.096,0 1.992,0.237 1.992,0.527 0,0.29 -0.896,0.527 -1.992,0.527 -1.096,0 -1.993,-0.237 -1.993,-0.527 z m 26.9,-0.066 c 3.706,-0.483 21.559,-0.465 24.659,0.024 1.389,0.219 -4.121,0.38 -12.454,0.363 -8.219,-0.017 -13.712,-0.191 -12.205,-0.387 z m -309.103302,-1.302 -4.9816,-0.684 4.9816,0.232 c 2.7398,0.129 7.2232,0.264 9.963,0.302 4.1568,0.057 4.6104,0.139 2.7399,0.491 -3.0473,0.573 -6.7766,0.473 -12.7029,-0.341 z m 153.306302,0.478 c 0.48,-0.133 1.264,-0.133 1.744,0 0.479,0.132 0.087,0.241 -0.872,0.241 -0.959,0 -1.351,-0.109 -0.872,-0.241 z m 80.327,-0.025 c -0.548,-0.147 -1.557,-0.516 -2.241,-0.822 -1.16,-0.518 -1.075,-0.583 1.245,-0.945 3.404,-0.53 11.18,-0.478 12.703,0.086 0.769,0.284 -0.898,0.348 -4.359,0.166 -3.669,-0.192 -5.604,-0.108 -5.604,0.245 0,0.297 1.065,0.691 2.366,0.877 1.301,0.185 2.59,0.418 2.864,0.517 0.797,0.289 -5.873,0.17 -6.974,-0.124 z m -284.195822,-0.68 c -1.23293,-0.233 -3.30649,-0.577 -4.60791,-0.764 C 0.78899799,4.2580822 0,3.8910822 0,3.3860822 c 0,-0.958 0.95219799,-0.952 5.809468,0.034 5.53159,1.123 16.99289,1.092 22.05639,-0.059 3.7982,-0.864 4.4358,-0.86 13.8373,0.093 9.1412,0.925 9.6631,1.033 7.1993,1.485 -1.7906,0.328 -4.7127,0.265 -8.9667,-0.193 -5.4964,-0.592 -7.1283,-0.568 -12.6501,0.182 -6.5936,0.896 -16.4399,1.052 -20.31152,0.321 z m 349.085822,0.168 c 0.62,-0.126 1.517,-0.121 1.993,0.011 0.476,0.132 -0.031,0.235 -1.127,0.229 -1.096,-0.006 -1.485,-0.114 -0.866,-0.24 z m 120.997,-0.022 c -0.127,-0.218 0.925,-0.328 2.337,-0.245 4.581,0.269 5.138,0.48 1.477,0.561 -1.97,0.043 -3.686,-0.099 -3.814,-0.316 z m -397.980502,-0.802 c 1.7384,-0.354 3.9841,-0.357 6.725,-0.009 l 4.1151,0.521 -6.7251,0.01 c -5.8961,0.008 -6.4033,-0.056 -4.115,-0.522 z m 75.484502,0.304 c 0.485,-0.133 1.158,-0.124 1.495,0.02 0.337,0.145 -0.059,0.254 -0.881,0.243 -0.822,-0.011 -1.098,-0.129 -0.614,-0.263 z m 25.272,-0.161 c 0.411,-0.281 3.213,-0.511 6.227,-0.511 3.72,0 5.24,0.164 4.732,0.511 -0.411,0.281 -3.213,0.511 -6.226,0.511 -3.72,0 -5.24,-0.165 -4.733,-0.511 z m 268.386,0.154 c 0.619,-0.126 1.516,-0.121 1.992,0.011 0.477,0.132 -0.031,0.235 -1.126,0.229 -1.096,-0.006 -1.486,-0.114 -0.866,-0.24 z m -304.626,-0.532 c 0.753,-0.121 1.986,-0.121 2.739,0 0.754,0.121 0.137,0.22 -1.37,0.22 -1.506,0 -2.123,-0.099 -1.369,-0.22 z m 85.962,0.018 c 0.36,-0.153 0.789,-0.134 0.955,0.041 0.165,0.175 -0.129,0.3 -0.654,0.277 -0.58,-0.025 -0.698,-0.15 -0.301,-0.318 z m 139.576,-0.018 c 0,-0.62 4.673,-1.204 9.638,-1.204 5.691,0 3.234,0.944 -3.536,1.358 -3.968,0.242 -6.102,0.189 -6.102,-0.154 z m 27.938,0.186 c 0.574,-0.532 5.438,-0.847 5.438,-0.354 0,0.312 -1.21,0.546 -2.823,0.546 -1.552,0 -2.729,-0.087 -2.615,-0.192 z m -331.424202,-0.722 c 1.1717,-0.111 2.965,-0.11 3.9852,0.003 1.0202,0.114 0.0616,0.205 -2.1303,0.203 -2.1918,-0.002 -3.0266,-0.095 -1.8549,-0.206 z m 54.314202,-0.341 c -2.107,-0.339 -3.994,-0.788 -4.192,-0.999 -0.486,-0.513 26.189,-0.418 27.438,0.098 1.543,0.639 -7.165,1.637 -13.719,1.573 -3.132,-0.03 -7.419,-0.333 -9.527,-0.672 z m 49.544,0.349 c 0.758,-0.121 1.878,-0.118 2.491,0.007 0.613,0.126 -0.007,0.225 -1.377,0.221 -1.37,-0.004 -1.871,-0.107 -1.114,-0.228 z m 40.717,-0.65 c 0,-0.28 2.139,-0.514 4.857,-0.53 2.672,-0.017 7.828,-0.142 11.458,-0.28 6.763,-0.256 9.026,0.366 3.538,0.973 -4.795,0.53 -19.853,0.407 -19.853,-0.163 z m 47.206,0.129 c 0.62,-0.126 1.517,-0.122 1.993,0.01 0.476,0.132 -0.031,0.236 -1.127,0.23 -1.096,-0.006 -1.485,-0.114 -0.866,-0.24 z m 153.799,-0.155 c 0.371,-0.634 4.084,-0.634 5.48,0 0.692,0.315 -0.039,0.465 -2.396,0.49 -2.143,0.024 -3.279,-0.157 -3.084,-0.49 z m -401.511002,-0.527 c -3.6292,-0.526 -1.17958,-0.75 8.4686,-0.772 4.3838,-0.01 8.5309,-0.208 9.2158,-0.439 0.86,-0.29 1.0133,-0.264 0.4955,0.086 -1.9708,1.33 -12.342,1.972 -18.1799,1.125 z m 76.0928,0.15 c 0.7535,-0.121 1.9864,-0.121 2.7399,0 0.7534,0.121 0.137,0.219 -1.37,0.219 -1.5069,0 -2.1233,-0.098 -1.3699,-0.219 z m -30.6305,-0.523 c 0.6196,-0.126 1.5163,-0.121 1.9926,0.011 0.4762,0.132 -0.0308,0.235 -1.1267,0.23 -1.0959,-0.006 -1.4856,-0.114 -0.8659,-0.241 z m 21.1656,-0.011 c 1.0275,-0.114 2.7087,-0.114 3.7362,0 1.0274,0.114 0.1868,0.207 -1.8681,0.207 -2.0549,0 -2.8955,-0.093 -1.8681,-0.207 z m 125.161102,-0.143 c 2.213,-0.596 3.736,-0.596 3.736,0 0,0.292 -1.165,0.499 -2.615,0.465 -2.236,-0.054 -2.399,-0.121 -1.121,-0.465 z m 107.974,0.152 c -5.144,-0.106 -8.593,-0.383 -8.593,-0.691 0,-0.284 1.513,-0.522 3.363,-0.531 1.849,-0.009 6.837,-0.10399996 11.084,-0.21199996 9.454,-0.239 24.745,0.25699996 23.831,0.77399996 -0.866,0.49 -18.676,0.886 -29.685,0.66 z m 125.793,-0.007 c 0.895,-0.117 2.24,-0.115 2.989,0.006 0.748,0.12 0.014,0.216 -1.628,0.213 -1.644,-0.003 -2.257,-0.102 -1.361,-0.219 z m 22.283,-0.145 c 0.548,-0.249 2.566,-0.438 4.484,-0.42 l 3.487,0.034 -2.491,0.41 c -3.534,0.583 -6.782,0.568 -5.48,-0.024 z m -415.708102,-0.554 c 1.2329,-0.232 3.2504,-0.411 4.4833,-0.399 2.0224,0.021 2.0955,0.063 0.7473,0.426 -0.822,0.221 -2.8395,0.401 -4.4834,0.399 l -2.9889,-0.004 z m 310.847102,0.027 c -0.846,-0.287 0.113,-0.436 2.989,-0.466 2.329,-0.025 4.571,0.185 4.981,0.466 0.925,0.633 -6.104,0.633 -7.97,0 z m 15.692,0.06 c -1.564,-0.174 -0.92,-0.368 2.989,-0.90199996 5.688,-0.778 11.955,-0.902 18.729,-0.373 l 4.684,0.366 -4.483,0.67899996 c -4.123,0.626 -17.138,0.762 -21.919,0.23 z m -264.887,-0.433 c 0.62,-0.126 1.516,-0.121 1.993,0.011 0.476,0.132 -0.031,0.235 -1.127,0.229 -1.096,-0.005 -1.486,-0.114 -0.866,-0.24 z M 0.40474799,0.68608224 c 0.3596,-0.152 0.78926001,-0.134 0.95479001,0.042 0.16554,0.175 -0.12868,0.29899996 -0.65382001,0.27599996 -0.58032,-0.025 -0.698362,-0.14999996 -0.30097,-0.31799996 z m 23.38201001,0.011 c 0.3425,-0.146 0.9029,-0.146 1.2454,0 0.3425,0.146 0.0623,0.266 -0.6227,0.266 -0.6849,0 -0.9652,-0.12 -0.6227,-0.266 z m 95.272202,-0.178 c -0.521,-0.356 0.348,-0.513 2.864,-0.519000003672 2.081,-0.0049999963 3.611,0.215000003672 3.611,0.519000003672 0,0.67599996 -5.487,0.67599996 -6.475,0 z m 59.529,0.017 c 1.458,-0.409 14.568,-0.734 14.156,-0.351 -0.115,0.106 -3.683,0.322 -7.929,0.481 -4.247,0.158 -7.049,0.1 -6.227,-0.13 z m 71.864,0.137 c 0.62,-0.126 1.516,-0.121 1.993,0.011 0.476,0.132 -0.031,0.235 -1.127,0.229 -1.096,-0.005 -1.486,-0.114 -0.866,-0.24 z m 25.898,-0.02 c 2.809,-0.094 7.404,-0.094 10.212,0 2.809,0.094 0.511,0.171 -5.106,0.171 -5.616,0 -7.914,-0.077 -5.106,-0.171 z m 213.209,0.012 c 0.891,-0.117 2.348,-0.117 3.238,0 0.891,0.117 0.162,0.212 -1.619,0.212 -1.78,0 -2.509,-0.095 -1.619,-0.212 z m -268.006,-0.527 c 0.891,-0.117 2.348,-0.117 3.238,0 0.891,0.117 0.162,0.212 -1.619,0.212 -1.78,0 -2.509,-0.095 -1.619,-0.212 z"
     style="display:inline;fill:#fdebad"
     id="path780"
     inkscape:export-filename="./water-top.svg"
     inkscape:export-xdpi="96"
     inkscape:export-ydpi="96" />
</svg>
