<?xml version="1.0" encoding="UTF-8" standalone="no"?>
<svg
   width="495.22791"
   height="103.31311"
   viewBox="0 0 495.22791 103.31311"
   fill="none"
   version="1.1"
   id="svg330"
   sodipodi:docname="water-reflex.svg"
   xmlns:inkscape="http://www.inkscape.org/namespaces/inkscape"
   xmlns:sodipodi="http://sodipodi.sourceforge.net/DTD/sodipodi-0.dtd"
   xmlns="http://www.w3.org/2000/svg"
   xmlns:svg="http://www.w3.org/2000/svg">
  <defs
     id="defs334" />
  <sodipodi:namedview
     id="namedview332"
     pagecolor="#ffffff"
     bordercolor="#000000"
     borderopacity="0.25"
     inkscape:showpageshadow="2"
     inkscape:pageopacity="0.0"
     inkscape:pagecheckerboard="0"
     inkscape:deskcolor="#d1d1d1"
     showgrid="false"
     inkscape:zoom="0.81148921"
     inkscape:cx="215.03675"
     inkscape:cy="212.57214"
     inkscape:window-width="1366"
     inkscape:window-height="651"
     inkscape:window-x="0"
     inkscape:window-y="32"
     inkscape:window-maximized="1"
     inkscape:current-layer="svg330" />
  <path
     d="m 271.95089,102.24408 c -1.45,-0.015 -10.145,0.279 -19.324,0.655 -18.825,0.772 -25.187,0.498 -25.668,-1.106 -0.602,-2.006996 -2.043,-2.211996 -19.734,-2.801996 -15.035,-0.503 -19.588,-0.943 -17.614,-1.705 1.997,-0.77 4.007,-2.173 4.131,-2.883 0.092,-0.522 -0.387,-1.071 -1.243,-1.426 -1.883,-0.779 -13.205,-2.733 -15.84,-2.733 -1.164,0 -2.874,-0.166 -3.798,-0.368 -1.384,-0.302 -0.625,-0.539 4.296,-1.342 5.233,-0.854 10.078,-1.005 38.856,-1.208 25.719,-0.182 35.048,-0.064 42.841,0.538 23.506,1.818 51.688,2.438 61.273,1.349 2.74,-0.311 9.408,-1.166 14.819,-1.9 19.545,-2.651 28.05,-2.592 40.725,0.284 -34.53279,5.16126 -68.81723,15.621246 -103.72,14.646996 z m 48.301,-5.479996 c 1.669,-0.474 1.36,-1.141 -0.816,-1.761 -6.174,-1.759 -11.999,-2.762 -17.546,-3.02 -11.413,-0.532 -22.604,1.8 -18.502,3.855 0.48,0.24 6.813,0.573 14.073,0.74 7.261,0.166 15.107,0.348 17.435,0.403 2.329,0.055 4.739,-0.043 5.356,-0.217 z m -163.27,-2.793 c 0,-0.686 5.124,-1.289 6.547,-0.771 0.997,0.363 0.797,0.484 -1.316,0.798 -3.616,0.537 -5.231,0.529 -5.231,-0.027 z m 311.593,-2.337 c 0.973,0.395 0.955,1.049 -0.039,1.452 -37.44982,5.15508 -40.11454,-13.93944 0.039,-1.452 z m -340.984,0.207 c -6.914,-0.82 -12.454,-1.748 -12.454,-2.087 0,-0.513 11.755,-1.659 20.427,-1.991 10.668,-0.409 31.038,0.947 30.043,1.999 -1.446,1.53 -29.639,3.071 -38.016,2.079 z m 363.901,-0.015 c -1.278,-0.344 -1.115,-0.411 1.12,-0.465 1.451,-0.034 2.616,0.173 2.616,0.465 0,0.596 -1.523,0.596 -3.736,0 z m -4.484,-3.523 c -0.822,-0.111 -6.314,-0.907 -12.205,-1.769 -5.89,-0.862 -16.202,-2.154 -22.915,-2.872 -16.266,-1.739 -20.798,-2.577 -25.358,-4.689 -4.596,-2.128 -7.387,-2.808 -13.248,-3.225 -5.736,-0.409 -12.453,-1.266 -14.728,-1.88 -1.316,-0.355 -1.961,-0.925 -2.491,-2.198 -0.71,-1.707 -0.746,-1.722 -5.198,-2.11 -2.466,-0.215 -13.787,-0.334 -25.157,-0.264 l -20.673,0.128 -4.982,-1.784 -4.981,-1.785 -13.7,-0.431 c -7.534,-0.237 -18.182,-0.92 -23.662,-1.517 -13.89,-1.514 -14.761,-1.654 -14.547,-2.329 0.131,-0.411 3.796,-0.588 12.178,-0.588 6.595,0 12.16,-0.177 12.367,-0.393 0.207,-0.216 0.129,-0.967 -0.173,-1.668 -0.528,-1.228 -0.453,-1.299 2.037,-1.914 3.677,-0.909 5.942,-1.972 5.718,-2.684 -0.143,-0.452 -6.189,-0.632 -23.084,-0.686 l -22.89,-0.073 -6.617,-1.694 c -7.874,-2.015 -11.823,-2.141 -25.358,-0.812 -8.341,0.82 -9.21,0.823 -10.959,0.043 -2.337,-1.042 -11.918,-1.534 -34.28,-1.762 -11.604,-0.118 -17.025,-0.38 -19.926,-0.962 -2.192,-0.439 -6.451,-1.185 -9.465,-1.656 -7.53,-1.178 -7.804,-1.247 -7.449,-1.855 0.204,-0.348 4.726,-0.484 12.848,-0.386 l 12.535,0.15 4.104,-1.692 c 3.071,-1.265 5.518,-1.837 9.714,-2.269 3.085,-0.317 10.093,-1.493 15.573,-2.612 16.544,-3.38 18.935,-3.613 23.354,-2.279 1.507,0.454 -0.08,1.204 -2.569,1.214 -1.81,0.007 -2.201,0.205 -2.603,1.325 -0.26,0.725 -0.689,1.318 -0.951,1.318 -0.263,0 -1.102,0.251 -1.864,0.557 -2.847,1.146 -0.158,1.597 7.386,1.24 7.387,-0.351 14.857,0.057 14.857,0.811 0,0.225 -1.737,0.704 -3.861,1.063 -2.123,0.36 -4.605,0.981 -5.515,1.38 -3.203,1.403 -1.32,1.823 6.793,1.515 8.926,-0.34 14.896,-1.009 19.052,-2.135 1.822,-0.494 4.594,-0.726 7.529,-0.63 4.321,0.141 4.656,0.231 4.798,1.285 0.109,0.807 0.611,1.221 1.744,1.438 3.616,0.693 13.402,1.416 25.702,1.898 18.733,0.734 20.631,1.02 17.996,2.716 -1.311,0.843 -1.521,1.18 -0.969,1.55 0.389,0.26 5.233,0.477 10.765,0.481 5.532,0.005 10.176,0.211 10.321,0.458 0.145,0.248 -0.313,0.728 -1.018,1.068 -2.855,1.376 0.491,2.749 9.282,3.81 6.456,0.779 10.067,0.8 29.99,0.175 11.723,-0.368 15.957,-0.671 16.435,-1.176 0.897,-0.951 -0.257,-1.657 -2.836,-1.736 -1.096,-0.033 -2.553,-0.24 -3.238,-0.459 l -1.246,-0.399 1.246,-0.325 c 5.332,-1.393 36.91,0.14 43.003,2.087 2.178,0.697 -0.265,0.938 -7.964,0.786 -6.646,-0.131 -8.211,-0.028 -8.035,0.529 0.12,0.381 1.641,0.998 3.38,1.37 1.74,0.372 3.274,0.795 3.409,0.938 0.9,0.952 -2.917,1.765 -10.255,2.184 -4.451,0.254 -6.103,0.531 -6.103,1.022 0,0.765 0.743,1.04 4.11,1.524 2.339,0.336 2.927,1.052 1.825,2.219 -1.151,1.217 1.091,1.483 12.746,1.512 12.875,0.032 15.165,0.325 23.064,2.949 3.791,1.26 6.082,1.666 10.629,1.887 6.905,0.335 20.725,-0.657 24.094,-1.73 1.319,-0.42 4.268,-0.764 6.554,-0.764 h 4.155 v 8.961 8.96 l -3.363,-0.079 c -1.849,-0.043 -4.035,-0.169 -4.857,-0.28 z m -35.369,-1.749 c -1.218,-0.328 -0.988,-0.402 1.246,-0.402 1.507,0 3.412,0.181 4.234,0.402 1.00837,0.97439 -3.83216,0.35632 -5.48,0 z m -37.361,-0.62 c -2.466,-0.201 -10.312,-0.62 -17.435,-0.932 -11.279,-0.495 -19.188,-1.444 -20.105,-2.414 -0.793,-0.839 2.332,-0.901 19.235,-0.382 15.542,0.477 19.358,0.744 22,1.54 5.894,1.775 4.121,2.825 -3.695,2.188 z m -263.025,-2.338 c -2.739,-0.417 -9.671,-0.93 -15.402,-1.14 -6.509,-0.239 -10.486,-0.59 -10.594,-0.935 -0.095,-0.303 1.4,-1.088 3.322,-1.743 6.402,-2.182 4.109,-2.713 -5.969,-1.383 -8.516,1.124 -42.003398,2.113 -44.775998,1.323 -1.2618,-0.359 -1.9922,-0.816 -1.737,-1.086 1.2773,-1.352 9.2834,-2.705 18.616,-3.148 5.897998,-0.28 12.869998,-0.991 17.748998,-1.811 8.479,-1.425 14.677,-1.67 21.432,-0.848 6.82,0.83 58.224,-0.699 76.052,-2.262 7.231,-0.634 8.623,-1.228 5.79,-2.47 -1.252,-0.548 -5.517,-0.591 -21.564,-0.219 -18.467,0.429 -54.601,0.366 -55.082,-0.096 -0.897,-0.861 7.228,-2.151 19.468,-3.092 5.808,-0.447 10.673,-0.931 10.81,-1.077 0.138,-0.146 0,-0.53 -0.306,-0.853 -0.392,-0.415 -2.962,-0.487 -8.684,-0.244 -4.471,0.19 -16.31,0.56 -26.311,0.822 -10,0.262 -21.321,0.84 -25.157,1.285 -10.195698,1.181 -26.408198,2.321 -38.357398,2.698 -5.7536,0.181 -12.5908,0.696 -15.1936,1.143 -3.6169,0.622 -6.758,0.738 -13.3256,0.492 -8.4655,-0.318 -10.4186,0.021 -6.9741,1.213 1.9757,0.683 11.8396,2.445 16.4338,2.936 3.716,0.397 4.2897,0.806 3.0171,2.153 -1.2292,1.3 -8.3617,0.796 -26.0918,-1.843 -7.8307,-1.165 -17.4139,-2.28 -21.29601,-2.476 l -7.05834798,-0.356 v -2.554 -2.555 l 12.57835798,0.015 c 6.9181,0.007 14.2596,0.247 16.3145,0.529 11.4517,1.573 16.9372,1.714 16.9372,0.435 0,-0.658 -0.3238,-0.735 -7.4723,-1.78 -3.4248,-0.501 -7.4697,-1.109 -8.9887,-1.351 -1.519,-0.243 -7.5716,-0.693 -13.4501,-1.001 -5.8786,-0.308 -11.86524,-0.706 -13.30366,-0.885 l -2.61529798,-0.325 v -2.036 -2.035 l 3.36252798,0.002 c 1.84939,0.002 5.49213,0.335 8.09503,0.741 2.6028,0.406 6.862,0.894 9.4648,1.085 2.6029,0.191 8.6555,0.907 13.4502,1.59 10.7274,1.529 18.4222,2.073 19.4135,1.373 1.19,-0.841 0.41,-1.125 -5.2878,-1.928 -7.8344,-1.103 -8.7025,-1.287 -8.4124,-1.784 0.1438,-0.246 1.439,-0.739 2.8783,-1.097 3.0529,-0.758 4.277,-1.366 5.336,-2.651 0.5567,-0.675 2.0694,-1.083 5.5003,-1.482 10.2237,-1.189 14.5184,-1.274 18.1826,-0.361 1.9179,0.477 5.5046,0.864 7.9704,0.859 5.223,-0.009 17.3118,-1.705 21.798498,-3.055 2.767,-0.833 5.155,-0.921 21.708,-0.805 10.23,0.072 18.96,0.345 19.401,0.606 0.878,0.52 -3.634,2.139 -9.71,3.484 -3.539,0.784 -3.891,0.97 -3.403,1.806 0.505,0.864 5.842,0.657 12.724,-0.492 6.01,-1.005 14.528,-1.393 16.145,-0.736 0.541,0.219 0.693,0.707 0.488,1.567 l -0.296,1.249 11.633,-0.07 c 7.258,-0.044 12.851,0.169 14.871,0.566 5.365,1.054 9.221,2.601 10.618,4.259 1.857,2.206 4.302,2.406 16.2,1.326 17.069,-1.55 36.504,-0.786 55.128,2.167 5.773,0.915 7.224,1.51 5.074,2.081 -1.605,0.426 -2.621,1.573 -1.844,2.081 0.297,0.194 3.502,0.694 7.123,1.112 3.621,0.418 11.404,1.397 17.294,2.175 8.05,1.063 12.722,1.399 18.808,1.352 4.78,-0.038 7.983,0.134 7.817,0.418 -0.155,0.265 -0.548,0.483 -0.875,0.485 -1.529,0.007 -4.329,1.175 -4.329,1.805 0,1.126 1.712,1.34 10.802,1.347 4.884,0.005 9.163,0.251 9.963,0.574 1.328,0.536 1.353,0.605 0.474,1.288 -0.51,0.397 -2.864,1.199 -5.23,1.782 -8.164,2.013 -14.005,2.297 -41.261,2.005 -26.834,-0.287 -29.9,-0.5 -43.493,-3.017 -8.972,-1.661 -15.105,-1.564 -26.9,0.426 -15.093,2.546 -20.05,2.896 -43.091,3.045 -16.562,0.107 -22.55,-0.032 -26.402,-0.618 z m -56.951998,-0.664 c -0.8004,-0.537 2.0201,-1.107 5.518,-1.116 3.031998,-0.007 3.067998,0.803 0.055,1.24 -3.0914,0.449 -4.7752,0.411 -5.573,-0.124 z m 251.700998,-5.564 c -0.931,-0.725 -0.932,-0.768 -0.049,-1.13 0.96,-0.394 8.723,0.062 10.664,0.626 2.548,0.74 0.795,1.257 -4.264,1.257 -3.883,0 -5.654,-0.21 -6.351,-0.753 z m -288.797498,-0.884 c 0.7284,-0.771 9.1138,-1.334 9.1138,-0.612 0,0.733 -2.4699,1.194 -6.3888,1.194 -2.3905,0 -3.1267,-0.157 -2.725,-0.582 z m 307.880498,-1.921 c -0.479,-0.115 -0.871,-0.457 -0.871,-0.759 0,-0.313 0.482,-0.413 1.12,-0.232 0.617,0.175 1.775,0.321 2.574,0.325 0.799,0.004 1.297,0.172 1.107,0.373 -0.403,0.427 -2.67,0.596 -3.93,0.293 z m -293.286998,-3.702 c 0,-0.551 8.2519,-1.717 11.802,-1.668 4.0245,0.057 0.9797,0.849 -4.8278,1.256 -2.8769,0.202 -5.623,0.485 -6.1024,0.629 -0.4795,0.144 -0.8718,0.047 -0.8718,-0.217 z m 386.896998,-1.149 c -4.002,-0.443 -5.215,-1.021 -4.546,-2.165 0.444,-0.761 18.803,-0.36 25.112,0.549 4.934,0.71 5.737,1.591 1.45,1.591 -1.792,0 -6.601,0.103 -10.685,0.229 -4.085,0.125 -9.184,0.033 -11.331,-0.204 z m 17.354,-6.877 c -1.077,-0.29 -0.45,-0.402 2.241,-0.402 2.055,0 4.409,0.181 5.231,0.402 1.077,0.29 0.45,0.402 -2.242,0.402 -2.054,0 -4.408,-0.181 -5.23,-0.402 z m -9.714,-2.635 c -0.926,-0.314 -0.446,-0.436 1.868,-0.475 1.777,-0.03 3.113,0.174 3.113,0.475 0,0.613 -3.17,0.613 -4.981,0 z m -265.515,-2.467 c -6.811,-1.17 -8.913,-2.422 -3.363,-2.002 12.668,0.96 17.867,1.507 18.098,1.902 0.26,0.445 -12.236,0.53 -14.735,0.1 z m 262.526,-1.248 c -6.3,-0.805 -13.67,-3.225 -13.313,-4.372 0.27,-0.868 8.866,-1.848 20.374,-2.323 5.391,-0.222 9.971,-0.584 10.179,-0.804 0.208,-0.22 0.113,-0.68 -0.211,-1.023 -0.453,-0.479 -3.261,-0.408 -12.172,0.307 -6.37,0.511 -11.993,1.016 -12.494,1.121 -2.432,0.508 -16.089,-1.174 -31.966,-3.939 -1.644,-0.286 -5.267,-1.582 -8.051,-2.88 -2.784,-1.297 -6.371,-2.715 -7.971,-3.15 -1.599,-0.435 -4.491,-1.253 -6.425,-1.817 -2.236,-0.652 -6.663,-1.231 -12.151,-1.59 -4.749,-0.309 -8.725,-0.659 -8.835,-0.775 -0.51,-0.54 7.389,-0.877 22.012,-0.941 13.885,-0.06 16.997,0.081 24.128,1.095 5.379,0.765 8.857,1.526 10.14,2.219 1.075,0.58 3.409,1.377 5.189,1.77 3.871,0.858 4.201,1.112 2.388,1.841 -0.761,0.306 -1.262,0.686 -1.112,0.844 0.149,0.158 3.15,0.399 6.669,0.536 10.096,0.394 18.379,1.228 24.581,2.475 4.06,0.817 7.761,1.166 12.703,1.197 3.836,0.022 7.254,0.084 7.597,0.132 0.448,0.063 0.623,1.471 0.623,5.014 v 4.927 l -5.605,0.341 c -7.24,0.442 -22.122,0.325 -26.277,-0.205 z m -26.513,-14.112 c 0.169,-0.541 -0.6,-0.672 -3.448,-0.586 -3.953,0.118 -4.591,0.285 -4.128,1.077 0.462,0.791 7.314,0.347 7.576,-0.491 z m -427.304098,10.088 c -1.23289,-0.097 -3.86687,-0.565 -5.85325,-1.041 -3.56086998,-0.853 -3.61160798,-0.889 -3.61160798,-2.553 v -1.687 l 6.42714798,-0.359 c 8.18381,-0.457 14.05811,0.028 17.18351,1.42 2.7048,1.204 0.6562,1.319 21.0812,-1.187 11.4087,-1.399 25.5663,-2.308 29.358,-1.883 2.1822,0.244 3.8296,0.099 5.7287,-0.506 3.0526,-0.971 18.8511,-1.743 17.1121,-0.836 -2.1173,1.105 -22.3197,3.843 -43.0348,5.832 -6.1342,0.59 -13.9203,1.541 -17.3026,2.115 -4.7674,0.81 -8.2505,1.024 -15.4981,0.952 -5.1417,-0.051 -10.3573,-0.171 -11.5903,-0.267 z m 358.172098,-0.103 -2.242,-0.339 1.681,-0.39 c 2.495,-0.578 9.029,-0.479 9.029,0.137 0,0.29 -0.756,0.527 -1.681,0.527 -0.925,0 -2.326,0.091 -3.113,0.203 -0.788,0.111 -2.441,0.049 -3.674,-0.138 z m 40.982,-0.56 c -2.578,-0.445 -3.338,-1.086 -1.286,-1.086 2.987,0 7.628,0.687 7.628,1.129 0,0.516 -3.227,0.494 -6.342,-0.043 z m 11.075,-2.389 -1.993,-0.695 3.3,-0.055 c 3.736,-0.063 6.414,0.382 6.414,1.065 0,0.697 -5.457,0.475 -7.721,-0.315 z m -328.259898,-0.209 c 0.7141,-0.811 5.771,-1.746 8.3359,-1.541 l 2.101998,0.168 -1.991998,0.67 c -2.8274,0.952 -9.1262,1.476 -8.4459,0.703 z m 270.224898,-2.497 c -5.165,-0.37 -7.971,-0.811 -7.971,-1.252 0,-0.496 4.391,-1.321 11.458,-2.154 9.085,-1.07 28.878,-0.585 36.739,0.901 2.759,0.522 1.931,1.611 -1.495,1.966 -3.729,0.386 -34.834,0.819 -38.731,0.539 z M 8.874172,44.548084 1.879498e-8,44.362084 0.15650202,42.925084 l 0.15651,-1.437 14.82007998,-0.14 c 14.0639,-0.132 17.0951,-0.485 13.4501,-1.563 -1.7581,-0.52 -16.7728,-0.525 -23.41319,-0.007 l -5.10606698,0.398 v -1.883 c 0,-1.711 0.102387,-1.849 1.12084698,-1.513 0.61646,0.203 1.56301,0.694 2.10345,1.089 1.50721,1.104 23.16836,0.979 30.40096,-0.175 4.3548,-0.695 9.4936,-0.882 25.0318,-0.912 10.7536,-0.019 19.5523,0.14 19.5525,0.358 2e-4,0.217 -0.2798,0.41 -0.6223,0.429 -0.3425,0.017 -4.5601,0.215 -9.3725,0.436 -4.8124,0.22 -9.0395,0.591 -9.3936,0.822 -1.3389,0.876 0.746,1.327 6.1629,1.335 6.8781,0.01 6.4393,0.796 -0.8834,1.582 -2.9654,0.318 -8.4575,1.068 -12.2047,1.666 -7.1406,1.14 -22.9998,1.559 -43.08572,1.138 z m 93.808718,-2.78 c 3.287,-1.288 19.927,-2.727 19.927,-1.723 0,0.221 -1.177,0.729 -2.616,1.128 -3,0.832 -19.348,1.394 -17.311,0.595 z m 228.03,-0.491 c -0.343,-0.116 -1.158,-0.649 -1.811,-1.186 -0.741,-0.608 -2.007,-0.975 -3.362,-0.975 -1.196,0 -2.175,-0.2 -2.175,-0.445 0,-0.244 4.267,-0.994 9.482,-1.666 9.016,-1.161 9.965,-1.189 19.303,-0.565 16.692,1.116 18.725,1.916 10.32,4.063 -2.814,0.719 -6.153,0.9 -17.311,0.938 -7.603,0.026 -14.104,-0.048 -14.446,-0.164 z m -170.244,-2.161 c 1.773,-0.601 6.054,-0.601 4.733,0 -0.548,0.249 -2.118,0.446 -3.487,0.437 -1.965,-0.012 -2.228,-0.104 -1.246,-0.437 z m 106.854,0.263 c -0.274,-0.099 -1.563,-0.332 -2.864,-0.517 -1.302,-0.186 -2.367,-0.588 -2.367,-0.895 0,-0.666 12.15,-0.315 13.699,0.396 0.844,0.386 0.691,0.515 -0.996,0.838 -2.046,0.392 -6.584,0.5 -7.472,0.178 z m 28.146,-1.91 c -2.055,-0.25 -6.763,-1.043 -10.462,-1.761 -3.698,-0.719 -9.527,-1.565 -12.952,-1.881 -3.424,-0.316 -9.029,-1.138 -12.454,-1.826 -3.424,-0.688 -7.627,-1.415 -9.34,-1.616 -3.13,-0.368 -3.858,-0.865 -2.242,-1.53 1.132,-0.465 5.508,-0.685 27.447,-1.38 15.601,-0.495 18.49,-0.714 20.876,-1.582 4.08,-1.485 12.109,-1.377 19.805,0.268 3.285,0.701 8.663,1.427 11.95,1.612 3.288,0.185 10.686,0.814 16.44,1.398 5.753,0.583 16.111,1.23 23.016,1.438 6.906,0.207 12.675,0.503 12.822,0.658 0.32,0.339 -19.238,1.541 -24.898,1.531 -2.202,-0.002 -6.686,-0.361 -9.963,-0.793 -9.175,-1.211 -16.669,-0.957 -16.669,0.565 0,0.383 0.392,0.94 0.871,1.239 1.346,0.839 0.197,1.352 -5.273,2.355 -10.444,1.916 -20.323,2.361 -28.974,1.305 z m 21.359,-7.79 c 1.206,-0.808 0.075,-1.632 -2.238,-1.632 -2.792,0 -6.748,1.018 -6.383,1.642 0.352,0.603 7.72,0.594 8.621,-0.01 z m -163.333,6.839 c -4.495,-0.294 -5.721,-0.587 -8.718,-2.085 -2.828,-1.414 -4.428,-1.83 -8.468,-2.199 -2.74,-0.251 -6.739,-0.821 -8.886,-1.267 -2.148,-0.446 -5.021,-0.812 -6.385,-0.812 -2.232,0 -2.45,-0.102 -2.173,-1.026 0.258,-0.859 -0.043,-1.126 -1.834,-1.629 -1.179,-0.331 -3.6,-1.263 -5.381,-2.071 -4.003,-1.815 -11.167,-2.415 -27.896298,-2.337 -6.1647,0.029 -10.648,-0.128 -9.9631,-0.349 0.685,-0.221 6.329,-0.659 12.5423,-0.973 6.2133,-0.315 13.947098,-0.944 17.186098,-1.398 4.991,-0.7 7.22,-0.735 14.607,-0.229 4.795,0.329 9.615,0.813 10.71,1.075 1.096,0.263 2.834,0.484 3.861,0.491 1.999,0.012 2.586,0.882 0.786,1.162 -2.032,0.317 -1.411,1.222 1.456,2.125 2.048,0.645 5.349,0.969 11.582,1.137 6.47,0.174 9.195,0.451 10.57,1.074 2.222,1.008 6.692,1.08 15.367,0.246 4.011,-0.385 7.86,-0.439 10.711,-0.149 2.907,0.295 3.759,0.503 2.457,0.601 -3.631,0.271 -5.231,0.708 -5.231,1.427 0,0.391 0.337,0.847 0.747,1.014 0.411,0.167 0.748,0.822 0.748,1.455 0,1.15 0.009,1.151 7.846,0.799 7.864,-0.353 14.072,-0.019 14.072,0.755 0,0.773 -5.414,2.562 -8.567,2.831 -5.28,0.45 -36.187,0.696 -41.746,0.332 z m -128.025198,-1.021 c 0.411,-0.269 2.9889,-0.629 5.7288,-0.799 2.9988,-0.187 4.4705,-0.131 3.6976,0.139 -1.9007,0.665 -10.3346,1.256 -9.4264,0.66 z m 65.0089,-0.454 c -0.8219,-0.123 -1.7074,-0.444 -1.9677,-0.711 -0.5702,-0.587 7.6008,-0.659 12.230998,-0.108 l 3.187,0.379 -2.491,0.365 c -2.699498,0.397 -8.559898,0.437 -10.959298,0.075 z m 155.672298,0.054 c -0.685,-0.103 -3.094,-0.451 -5.355,-0.774 -4.209,-0.601 -5.59,-1.54 -2.241,-1.523 2.954,0.015 10.521,0.941 11.172,1.367 0.409,0.267 0.295,0.51 -0.371,0.786 -1.024,0.425 -1.255,0.435 -3.205,0.144 z m -238.116518,-1.242 c 0,-0.295 0.67251,-0.537 1.49442,-0.537 0.822,0 1.4979,-0.178 1.5021,-0.395 0.024,-1.245 1.5971,-1.824 9.5806,-3.524 9.3251,-1.986 14.3686,-2.307 23.2899,-1.481 4.0501,0.376 3.873,0.404 -4.0691,0.656 -7.6745,0.244 -9.5379,0.537 -8.7449,1.376 0.1672,0.177 2.5023,0.486 5.1891,0.687 4.2581,0.319 4.5974,0.411 2.6433,0.715 -1.2329,0.193 -3.9229,0.476 -5.9778,0.629 -9.5274,0.714 -22.7747,1.91 -23.7868,2.148 -0.61644,0.145 -1.12082,0.019 -1.12082,-0.274 z m 471.252518,-0.791 c 0,-1.628 0.136,-1.596 -11.458,-2.682 -5.068,-0.474 -9.384,-0.971 -9.589,-1.103 -0.975,-0.626 -0.179,-1.232 1.619,-1.232 2.161,0 2.676,-0.737 0.872,-1.249 -0.617,-0.175 -4.423,-0.321 -8.46,-0.325 -7.928,-0.007 -19.805,-0.924 -20.471,-1.58 -0.226,-0.223 0.278,-0.659 1.121,-0.97 1.697,-0.626 1.895,-1.214 0.802,-2.372 -0.642,-0.679 -0.537,-0.808 0.871,-1.065 4.044,-0.737 17.413,-0.946 22.972,-0.359 6.292,0.665 7.092,0.903 9.635,2.87 1.012,0.782 3.315,1.611 6.181,2.224 3.269,0.699 4.628,1.221 4.779,1.833 0.244,0.986 3.315,1.508 8.902,1.516 1.948,0.002 4.582,0.155 5.853,0.339 l 2.312,0.336 v 2.234 c 0,2.081 -0.107,2.257 -1.557,2.564 -0.856,0.181 -4.443,0.329 -7.97,0.329 h -6.414 z m -418.287098,-0.981 c -3.884,-0.335 -7.2279,-0.788 -7.4307,-1.005 -0.2029,-0.218 -0.2375,-0.395 -0.077,-0.395 0.1605,0 3.1084,-0.593 6.5508,-1.318 8.888,-1.871 21.6308,-1.636 23.5878,0.435 0.7085,0.75 0.7449,1.003 0.1963,1.361 -1.7832,1.167 -14.1929,1.668 -22.8272,0.922 z m 155.511098,-0.102 c 1.662,-0.805 5.925,-0.964 10.762,-0.4 4.69,0.546 1.774,1.08 -6.029,1.105 -5.666,0.016 -6.092,-0.046 -4.733,-0.705 z m -110.81,-0.292 c -3.85,-0.799 -3.413,-0.981 2.065,-0.86 3.467,0.076 5.549,0.348 5.953,0.776 0.497,0.527 -0.022,0.647 -2.592,0.601 -1.767,-0.032 -4.209,-0.264 -5.426,-0.517 z m -103.146198,-3.573 c 0,-0.354 0.9608,-0.612 2.36623,-0.636 1.30142,-0.02 2.75763,-0.12 3.23601,-0.217 0.47839,-0.097 0.99596,0.04 1.15026,0.304 0.1542,0.264 -0.46134,0.483 -1.36796,0.486 -0.90661,0.002 -2.48902,0.153 -3.51646,0.333 -1.23941,0.216 -1.86808,0.126 -1.86808,-0.27 z m 211.599198,-2.032 c 0.895,-0.118 2.24,-0.115 2.989,0.005 0.748,0.12 0.016,0.216 -1.628,0.213 -1.644,-0.002 -2.256,-0.101 -1.361,-0.218 z m -182.706298,-1.222 c -1.507,-0.22 -7.3914,-0.424 -13.0765,-0.452 -6.1976,-0.032 -10.33672,-0.254 -10.33672,-0.556 0,-1.418 12.14412,-1.72 27.64752,-0.689 9.463,0.63 12.2047,1.031 12.2047,1.785 0,0.551 -12.5345,0.483 -16.439,-0.088 z m 193.283298,-0.493 c -2.603,-0.228 -9.664,-0.595 -15.692,-0.815 -12.237,-0.447 -15.716,-0.794 -15.746,-1.568 -0.012,-0.29 0.676,-0.742 1.527,-1.004 1.704,-0.524 1.785,-1.539 0.143,-1.795 -0.575,-0.09 -1.313,-0.505 -1.641,-0.923 -0.327,-0.417 -0.904,-0.759 -1.281,-0.759 -0.378,0 -0.686,-0.21 -0.686,-0.467 0,-0.964 6.869,-1.904 13.699,-1.875 4.932,0.019 9.891,0.475 16.937,1.552 9.02,1.378 11.26,1.525 23.662,1.546 7.535,0.012 18.519,-0.092 24.41,-0.234 8.99,-0.217 12.23,-0.07 20.175,0.912 5.206,0.643 13.724,1.534 18.93,1.979 11.315,0.969 19.786,2.3 19.353,3.041 -0.376,0.642 -7.763,0.211 -20.752,-1.211 -12.182,-1.334 -19.087,-1.369 -20.407,-0.104 -0.853,0.818 -2.676,0.964 -15.98,1.285 -30.521,0.737 -42.034,0.846 -46.651,0.44 z m -224.66695598,-1.856 c 0,-0.821 2.15523798,-1.096 3.69253798,-0.472 1.32917,0.539 0.33907,1.262 -1.72933,1.262 -1.41296998,0 -1.96320798,-0.221 -1.96320798,-0.79 z m 54.17405798,-0.65 c 1.1645,-0.111 3.0699,-0.111 4.2343,0 1.1645,0.111 0.2118,0.202 -2.1171,0.202 -2.3289,0 -3.2816,-0.091 -2.1172,-0.202 z m 333.388898,-0.69 c -3.151,-0.201 -9.876,-0.426 -14.945,-0.499 l -9.216,-0.133 4.733,-0.714 c 14.913,-2.25 25.555,-2.895 29.64,-1.795 0.822,0.221 1.214,0.431 0.872,0.465 -0.891,0.089 -0.773,1.644 0.124,1.644 0.411,0 0.747,0.205 0.747,0.455 0,0.457 -3.922,1.205 -5.424,1.035 -0.442,-0.05 -3.38,-0.256 -6.531,-0.458 z m 34.123,-0.171 c -2.633,-0.845 -1.384,-1.391 3.154,-1.38 3.983,0.009 5.498,0.697 3.397,1.543 -1.758,0.707 -4.013,0.651 -6.551,-0.163 z m -354.186298,-0.907 c -15.6982,-1.244 -18.5589,-1.519 -19.4223,-1.87 -0.8981,-0.364 -0.897,-0.39 0.0308,-0.762 0.5279,-0.211 2.7021,-0.557 4.8315,-0.767 3.6555,-0.362 5.3911,-1.168 3.8134,-1.773 -0.9481,-0.363 10.6843,-1.535 15.7847,-1.591 2.223,-0.021 5.2492,0.205 6.7251,0.508 2.0785,0.426 14.4278,1.78 19.3714,2.123 0.4109,0.028 0.0747,0.28 -0.7473,0.559 -0.8955,0.304 -5.3141,0.37 -11.0251,0.163 -9.1171,-0.33 -11.6408,-0.156 -11.6408,0.798 0,0.239 4.4273,0.623 9.8385,0.853 l 9.8385,0.419 -3.9852,0.653 c -5.6576,0.926 -16.4159,1.242 -23.4132,0.687 z m 93.403298,0.212 c -7.875,-0.476 -7.499,-1.481 0.754,-2.012 3.677,-0.237 6.904,-0.81 9.832,-1.747 8.015,-2.565 5.511,-2.977 -11.161,-1.839 -11.187,0.764 -14.247,0.806 -19.428,0.266 -3.382,-0.352 -7.158,-0.646 -8.391,-0.652 -1.954,-0.01 -2.114,-0.092 -1.246,-0.632 1.161,-0.722 55.948,-0.876 58.004,-0.163 1.144,0.397 1.161,0.462 0.309,1.121 -0.545,0.422 -0.805,1.103 -0.653,1.716 0.234,0.948 -0.234,1.059 -7.035,1.668 -5.434,0.485 -7.68,0.903 -8.839,1.643 -1.561,0.997 -3.999,1.124 -12.146,0.631 z m 329.528,-1.524 c -1.37,-0.417 -3.225,-0.908 -4.122,-1.089 -0.897,-0.182 -1.765,-0.561 -1.93,-0.843 -0.181,-0.31 0.267,-0.397 1.133,-0.22 0.788,0.161 3.282,0.448 5.542,0.638 3.587,0.302 4.11,0.473 4.11,1.345 0,1.209 -1.182,1.252 -4.733,0.169 z m -82.693,-0.224 c -0.197,-0.336 1.323,-0.527 4.205,-0.527 2.676,0 4.513,0.215 4.513,0.527 0,0.31 -1.734,0.528 -4.205,0.528 -2.313,0 -4.344,-0.238 -4.513,-0.528 z m -407.73795598,-1.458 c 0,-1.57 1.16851798,-2.688 1.75697798,-1.681 0.16194,0.277 -0.05505,0.504 -0.4822,0.504 -0.42713998,0 -0.77662998,0.229 -0.77662998,0.509 0,0.323 4.16472998,0.39 11.34690998,0.184 6.2408,-0.18 12.2373,-0.133 13.3256,0.103 l 1.9787,0.43 -1.9927,0.464 c -1.0959,0.256 -7.2045,0.603 -13.5746,0.772 l -11.58205798,0.306 z m 346.71395598,-0.459 c -3.672,-0.567 -6.476,-1.387 -6.476,-1.894 0,-0.406 3.287,-0.472 11.289,-0.226 6.209,0.192 13.652,0.348 16.539,0.348 3.003,0 5.047,0.196 4.776,0.458 -1.147,1.111 -20.986,2.109 -26.128,1.314 z m -42.343,-1.462 c -6.85,-0.451 -7.917,-0.611 -4.981,-0.747 5.553,-0.257 17.2,0.464 16.38,1.014 -0.379,0.253 -1.137,0.426 -1.685,0.384 -0.548,-0.043 -4.919,-0.336 -9.714,-0.651 z m -278.342498,-0.178 c -5.0002,-0.086 -9.0913,-0.362 -9.0913,-0.614 0,-0.253 5.8845,-0.581 13.0765,-0.731 9.8696,-0.205 13.7446,-0.477 15.8004,-1.111 2.7402,-0.844 11.9889,-1.208 11.2661,-0.444 -0.2054,0.218 -2.5227,0.514 -5.1496,0.659 -3.1915,0.176 -4.8443,0.483 -4.9817,0.923 -0.1219,0.391 0.2674,0.686 0.9568,0.725 3.1013,0.176 -3.9222,0.9 -8.0535,0.83 -2.6028,-0.044 -8.8235,-0.151 -13.8237,-0.237 z m 257.544498,-0.516 c 1.028,-0.114 2.709,-0.114 3.737,0 1.027,0.114 0.187,0.207 -1.869,0.207 -2.054,0 -2.895,-0.093 -1.868,-0.207 z m 107.726,-0.67 -3.487,-0.341 4.483,-0.047 c 2.466,-0.026 5.604,0.138 6.974,0.363 2.454,0.405 2.439,0.411 -0.996,0.388 -1.918,-0.012 -5.056,-0.176 -6.974,-0.363 z m -391.29895598,-1.84 v -1.468 l 4.10975798,0.322 c 2.26037,0.176 6.7998,0.5 10.0876,0.72 l 5.9778,0.4 -4.7324,0.343 c -2.6029,0.188 -7.14229,0.525 -10.08762,0.747 l -5.35513798,0.404 z m 88.29755798,0.949 c 0.4795,-0.132 1.2641,-0.132 1.7435,0 0.4795,0.133 0.0872,0.241 -0.8717,0.241 -0.959,0 -1.3513,-0.108 -0.8718,-0.241 z m 167.005398,-0.49 c -10.225,-1.568 -14.464,-1.784 -35.788,-1.821 -12.373,-0.019 -23.504,-0.211 -24.737,-0.421 l -2.242,-0.381 2.366,-0.402 c 1.838,-0.313 2.366,-0.621 2.366,-1.383 5.95337,-5.21605 25.91862,-0.38652 31.633,-0.315 8.084,0.097 11.82,0.382 16.439,1.253 6.399,1.207 15.289,2.214 19.553,2.215 1.438,0 2.615,0.237 2.615,0.527 0,0.29 -1.088,0.527 -2.418,0.527 -1.329,0 -3.739,0.097 -5.355,0.215 -1.615,0.118 -3.61,0.112 -4.432,-0.014 z m 66.005,-0.233 c -8.766,-0.486 -14.065,-1.227 -20.793,-2.909 -4.804,-1.201 -5.976,-1.275 -20.066,-1.275 -122.11493,-8.24768002 -42.68037,-12.78706 36.127,-0.237 5.179,0.843 20.271,1.72 32.041,1.862 9.079,0.109 10.335,0.698 3.079,1.443 -17.446,1.793 -17.886,1.809 -30.388,1.116 z m 103.616,0.136 c 0,-0.347 1.889,-0.624 4.959,-0.727 2.727,-0.092 4.801,-0.007 4.608,0.186 -0.641,0.646 -9.567,1.15 -9.567,0.541 z m -55.046,-0.981 c -1.096,-0.457 -4.122,-1 -6.725,-1.207 l -4.732,-0.377 5.729,-0.087 c 5.361,-0.081 14.955,0.599 18.062,1.279 2.939,0.644 0.551,1.268 -4.766,1.246 -3.856,-0.014 -6.189,-0.279 -7.568,-0.854 z m 78.958,0.296 c -9.634,-0.726 -9.63,-0.918 0.014,-0.717 5.077,0.106 9.784,0.427 10.461,0.712 1.528,0.646 -1.945,0.647 -10.475,0.005 z m -349.204998,-0.473 c 0,-0.29 0.056,-0.528 0.124,-0.529 0.069,-0.001 4.047998,-0.841 8.841998,-1.866 11.41933,-4.63973 24.77247,-0.008 33.348,-0.569 3.057,-0.205 5.831,-0.084 7.75,0.34 1.644,0.364 6.015,0.844 9.714,1.068 3.834,0.232 0.836,0.257 -6.974,0.059 -22.007,-0.558 -29.771,-0.369 -36.999,0.904 -6.66,1.173 -15.804998,1.516 -15.804998,0.593 z m -25.6553,-0.583 c -5.7988,-0.304 -15.6918,-1.808 -15.6918,-2.386 0,-0.123 4.9877,-0.173 11.0839,-0.111 29.335415,-4.31674 65.606068,-0.15239 14.5709,2.672 -1.9178,0.09 -6.4012,0.009 -9.963,-0.175 z m 215.451298,-0.471 c 0.685,-0.232 2.03,-0.429 2.989,-0.437 1.406,-0.012 1.55,0.072 0.747,0.437 -0.548,0.249 -1.893,0.446 -2.989,0.438 -1.712,-0.012 -1.817,-0.075 -0.747,-0.438 z m 107.352,-0.066 c -2.466,-0.285 -5.717,-0.855 -7.224,-1.266 -2.582,-0.705 -2.223,-0.734 6.227,-0.497 14.662,0.41 21.274,0.877 20.72,1.464 -0.686,0.726 -14.254,0.932 -19.723,0.299 z m 95.022,-0.824 c 0.48,-0.133 1.264,-0.133 1.744,0 0.479,0.132 0.087,0.241 -0.872,0.241 -0.959,0 -1.351,-0.109 -0.872,-0.241 z m -29.764,-0.968 c -23.61686,-3.57981 38.73436,0.67055 15.94,0.656 -4.931,-0.002 -12.105,-0.298 -15.94,-0.656 z m -427.772298,-0.639 c 1.4476,-0.108 3.6893,-0.106 4.9816,0.002 1.2922,0.108 0.1078,0.196 -2.632,0.194 -2.7399,-0.001 -3.7972,-0.09 -2.3496,-0.196 z m 147.187298,0.009 c 0.754,-0.121 1.986,-0.121 2.74,0 0.753,0.121 0.137,0.22 -1.37,0.22 -1.507,0 -2.123,-0.099 -1.37,-0.22 z"
     fill="#fdebad"
     id="path770"
     sodipodi:nodetypes="cccccccscccccccccccccscsccsccccscccccscsccccccsccccsccssccccccccccccccccccccsccsccccccccccccccccccccccccccsccsccssccccscsccsccccscccccccsscscccccccsccccccccccccccsccscccccssccccccsccccccccccccccccccsccccsccccccccccccccccsccssccsssccsccsscccscccscsccssccccccccsccccccsccccccscccccscccccccccsccccccccccccccsscccssccccsccsccccsccccsccccsccsccccsccccccscsccccsscccccccccccsccccccccccccscccccsccccsccccccsccccsccccccscccccscscsccccccccccccccscccssccccccccsssccscccscccccccccscscsccscccccccccccccscscccsccccccscscccccccsscccccccccccscssssssccccccssscccccccccccccccsccccccccccccccccccccscsccssscscssccccccscscscccccccsscccccccsccsccccccccccscccccccsccccccccccsscccscccccsccsscccccsccccsscccccsscscccccccccccccccscccccsccccsc"
     inkscape:export-filename="water01.svg"
     inkscape:export-xdpi="96"
     inkscape:export-ydpi="96" />
</svg>
