<svg width="497" height="420" viewBox="0 0 497 420" fill="none" xmlns="http://www.w3.org/2000/svg">
<path d="M0.950042 342.863C0.950042 338.969 0.982657 338.861 2.07089 339.143C2.68735 339.303 5.65758 339.716 8.67141 340.061C16.9457 341.008 31.3614 340.365 44.7968 338.45C56.6659 336.758 66.7226 336.386 73.3183 337.395C81.5774 338.659 99.0739 343.618 102.984 345.803C104.807 346.822 104.599 346.826 52.8825 346.85L0.950042 346.871V342.863ZM157.322 346.646C157.204 346.522 153.524 346.049 149.144 345.595C139.661 344.614 136.245 343.932 135.397 342.851C134.345 341.509 135.579 341.204 143.621 340.814C155.653 340.232 167.946 341.819 177.545 345.194L182.028 346.771L169.782 346.822C163.047 346.85 157.44 346.77 157.322 346.646ZM213.412 345.467C208.134 343.493 202.403 342.306 192.241 341.082C187.172 340.471 178.429 339.142 172.813 338.128C162.662 336.297 156.515 335.723 136.946 334.779C131.329 334.509 123.035 333.816 118.514 333.24C113.993 332.664 105.699 331.688 100.082 331.071C85.8568 329.508 82.9663 329.034 78.4128 327.521C73.5927 325.919 68.2006 323.397 68.2006 322.744C68.2006 321.21 75.3217 319.828 90.3864 318.437C101.228 317.436 105.554 316.59 105.93 315.397C106.227 314.456 103.103 313.856 94.8518 313.269C82.2362 312.372 72.5329 313.427 56.4941 317.439C32.7363 323.381 26.6471 324.207 13.7396 323.233C9.03421 322.879 4.23162 322.451 3.06719 322.284L0.950042 321.98V316.965V311.95L3.05771 312.307C7.82693 313.114 31.9772 310.435 36.2525 308.625C40.9816 306.623 37.5856 305.878 23.3669 305.797C14.5544 305.747 6.88517 305.224 2.56904 304.378L0.950042 304.061V296.788V289.515L5.30888 289.165C7.70624 288.972 13.2544 288.219 17.6382 287.49C25.8108 286.133 36.74 285.331 38.9784 285.926C39.7772 286.138 40.293 286.691 40.3941 287.444C40.5474 288.586 40.6988 288.62 44.5384 288.366C46.7303 288.221 56.4816 288.14 66.208 288.185C80.0033 288.25 85.566 288.484 91.5023 289.248C98.3211 290.127 100.795 290.933 98.2406 291.445C96.4088 291.812 91.6138 294.329 91.6138 294.924C91.6138 295.299 93.2188 295.755 95.7236 296.091C98.9858 296.529 100.389 297.013 102.528 298.434L105.223 300.225H123.202H141.18L141.091 298.81C140.988 297.183 141.081 297.149 148.154 296.245C154.408 295.445 164.791 295.572 169.824 296.509C172.153 296.943 176.636 297.778 179.787 298.364C186.738 299.659 189.293 300.498 194.198 303.099C199.688 306.01 205.826 307.252 224.371 309.204C234.192 310.237 240.063 309.668 240.063 307.682C240.063 305.717 241.425 305.427 258.993 303.648C270.249 302.509 276.719 301.447 277.512 300.608C278.422 299.645 275.726 298.29 272.837 298.258C271.387 298.243 262.692 298.537 253.513 298.913C234.688 299.685 228.326 299.411 227.845 297.807C227.243 295.8 225.802 295.595 208.111 295.005C193.076 294.502 188.523 294.062 190.497 293.3C192.494 292.53 194.504 291.127 194.628 290.417C194.72 289.895 194.241 289.346 193.385 288.991C191.502 288.212 180.18 286.258 177.545 286.258C176.381 286.258 174.671 286.092 173.747 285.89C172.363 285.588 173.122 285.351 178.043 284.548C183.276 283.694 188.121 283.543 216.899 283.34C242.618 283.158 251.947 283.276 259.74 283.878C283.246 285.696 311.428 286.316 321.013 285.227C323.753 284.916 330.421 284.061 335.832 283.327C355.377 280.676 363.882 280.735 376.557 283.611C387.737 286.147 395.676 287.683 403.763 288.874C407.842 289.475 413.308 290.45 415.911 291.042C425.073 293.124 430.226 293.616 443.31 293.658C450.296 293.68 459.039 293.887 462.737 294.118C468.726 294.491 469.735 294.696 471.953 295.988L474.444 297.439L483.053 297.132C487.788 296.963 492.663 296.969 493.888 297.146L496.114 297.469V303.449V309.428L494.767 309.786C494.027 309.983 488.591 309.866 482.687 309.527C464.469 308.48 454.185 308.862 453.871 310.599C453.648 311.834 454.792 312.357 461.034 313.876C469.544 315.947 477.341 316.828 487.172 316.828H496.114V326.315C496.114 331.534 495.945 335.803 495.739 335.803C495.533 335.803 493.011 335.085 490.135 334.208C473.277 329.068 471.681 328.756 461.99 328.723C457.059 328.709 449.101 328.759 444.306 328.841C438.183 328.945 434.105 328.743 430.607 328.159C419.979 326.385 411.718 325.25 400.219 323.983C393.644 323.258 384.341 322.02 379.546 321.232C371.823 319.962 369.408 319.797 358.375 319.782C349.146 319.77 345.622 319.94 344.768 320.441C343.255 321.329 343.885 322.136 347.306 323.694C349.113 324.518 353.171 325.342 360.616 326.398C366.507 327.234 374.689 328.491 378.799 329.192C382.909 329.893 389.768 330.954 394.041 331.55C398.315 332.146 403.975 333.228 406.62 333.955C409.264 334.681 413.539 335.856 416.12 336.565C422.315 338.268 429.743 339.405 437.085 339.772C443.446 340.091 446.785 340.485 467.968 343.421C475.366 344.446 484.332 345.611 487.894 346.008C493.516 346.636 476.062 346.733 355.635 346.75L216.899 346.767L213.412 345.467ZM404.185 342.472C406.212 340.904 404.152 340.191 392.498 338.427C383.602 337.081 370.38 335.803 365.38 335.807C355.874 335.814 354.81 338.957 363.674 340.846C373.309 342.898 402.139 344.056 404.185 342.472ZM314.034 341.408C314.936 340.71 314.931 340.667 313.9 340.083C312.265 339.157 302.343 338.218 301.674 338.925C300.832 339.816 302.289 341.023 304.85 341.554C308.386 342.288 312.991 342.214 314.034 341.408ZM347.54 335.272C348.978 334.937 350.155 334.453 350.155 334.198C350.155 333.532 348.719 332.839 346.435 332.402C343.694 331.877 325.924 332.045 323.567 332.617C319.372 333.637 320.41 334.939 326.083 335.773C330.359 336.401 344.068 336.081 347.54 335.272ZM287.388 330.857C289.573 330.119 290.085 328.155 288.281 327.429C286.118 326.559 277.725 325.284 270.451 324.721C266.478 324.414 259.526 323.817 255.001 323.395C250.477 322.972 243.464 322.627 239.418 322.627C233.247 322.627 232.014 322.758 231.767 323.44C231.604 323.887 231.61 324.4 231.779 324.579C232.331 325.163 242.267 326.778 253.86 328.169C260.108 328.919 267.574 329.984 270.451 330.537C278.799 332.141 283.333 332.227 287.388 330.857ZM297.14 320.468C309.257 319.182 308.094 316.763 294.892 315.79C286.819 315.195 265.487 314.334 242.554 313.677C232.248 313.382 224.056 312.893 221.133 312.398C218.245 311.909 212.131 311.538 205.442 311.446C196.109 311.317 193.871 311.443 190.368 312.294C188.105 312.844 185.863 313.615 185.386 314.007C184.565 314.682 184.569 314.761 185.447 315.481C186.217 316.111 188.138 316.189 196.656 315.937C211.087 315.509 224.965 316.431 234.048 318.42C240.898 319.92 241.821 319.994 254.467 320.05C261.751 320.083 269.84 320.281 272.443 320.492C280.007 321.104 291.25 321.093 297.14 320.471V320.468ZM172.068 319.99C174.03 319.201 173.591 317.276 171.266 316.473C168.461 315.503 162.221 314.721 157.209 314.711C154.695 314.706 150.62 314.351 148.154 313.923C145.688 313.494 142.289 313.142 140.601 313.141C137.652 313.139 130.112 314.396 129.558 314.982C128.718 315.871 131.172 316.483 137.28 316.906C141.069 317.169 147.083 317.963 150.645 318.67C159.542 320.437 158.964 320.367 165.183 320.447C168.248 320.486 171.346 320.281 172.068 319.99ZM424.544 313.691C425.593 313.438 426.587 313.088 426.752 312.913C427.691 311.92 425.176 311.4 417.574 311.016C412.961 310.783 402.949 309.972 395.327 309.213C381.498 307.837 370.33 307.59 370.33 308.659C370.33 309.713 375.857 312.02 379.795 312.61C381.987 312.938 385.798 313.543 388.264 313.953C391.712 314.527 396.196 314.636 407.692 314.425C415.911 314.275 423.495 313.945 424.544 313.691ZM62.4984 309.916C63.2991 309.51 64.0362 308.727 64.1365 308.176C64.3099 307.224 64.039 307.19 58.6629 307.505C49.5487 308.037 44.937 309.222 46.7842 310.558C47.8902 311.357 60.6875 310.835 62.4984 309.916ZM463.44 303.442C467.121 301.814 466.001 300.218 460.821 299.71C458.998 299.531 454.593 299.012 451.031 298.558C442.673 297.492 430.736 297.755 429.53 299.031C429.088 299.498 428.847 300.212 428.994 300.618C429.816 302.882 459.247 305.295 463.44 303.442ZM352.911 302.361C353.861 301.941 354.638 301.364 354.638 301.079C354.638 300.31 353.443 300.034 347.664 299.47C344.787 299.189 339.756 298.685 336.484 298.35C328.766 297.561 319.27 298.702 319.27 300.419C319.27 301.193 320.985 301.452 330.229 302.075C335.024 302.399 339.171 302.748 339.445 302.852C340.973 303.432 351.343 303.054 352.911 302.361ZM401.091 301.444C407.63 300.653 410.93 300.047 410.93 299.637C410.93 299.298 410.537 298.86 410.058 298.664C409.578 298.468 403.021 298.325 395.487 298.345C387.952 298.365 379.445 298.163 376.582 297.893C373.113 297.566 371.059 297.582 370.426 297.94C369.052 298.718 369.923 299.363 373.62 300.302C383.766 302.88 387.826 303.048 401.091 301.444ZM362.253 294.083C363.255 293.516 363.258 293.476 362.354 292.777C361.386 292.028 352.067 291.74 349.781 292.388C348.355 292.792 348.347 293.461 349.765 293.936C353.556 295.209 360.127 295.287 362.253 294.083ZM321.138 292.778C322.807 292.304 322.498 291.637 320.322 291.017C314.148 289.258 308.323 288.255 302.776 287.997C291.363 287.465 280.172 289.797 284.274 291.852C284.754 292.092 291.087 292.425 298.347 292.592C305.608 292.758 313.454 292.94 315.782 292.995C318.111 293.05 320.521 292.952 321.138 292.778ZM15.1491 334.611C11.8622 334.351 9.06658 334.026 8.93659 333.888C8.42672 333.349 10.2754 332.686 13.1388 332.381C19.039 331.753 30.7228 330.996 38.8096 330.719C45.6595 330.485 47.1951 330.57 48.0249 331.233C49.0037 332.015 48.9995 332.033 47.7758 332.322C44.6764 333.052 34.5532 334.257 29.3447 334.516C26.1939 334.672 23.0556 334.864 22.3706 334.942C21.6856 335.019 18.436 334.871 15.1491 334.611ZM157.868 289.985C157.868 289.299 162.992 288.696 164.415 289.214C165.412 289.577 165.212 289.698 163.099 290.012C159.483 290.549 157.868 290.541 157.868 289.985ZM444.804 288.814C435.099 287.866 429.361 286.35 429.361 284.733C429.361 284.097 432.491 283.635 436.834 283.629C443.394 283.622 466.573 286.475 469.461 287.648C470.434 288.043 470.416 288.697 469.422 289.1C468.278 289.565 450.354 289.357 444.804 288.814ZM128.477 287.855C121.563 287.035 116.023 286.107 116.023 285.768C116.023 285.255 127.778 284.109 136.45 283.777C147.118 283.368 167.488 284.724 166.493 285.776C165.047 287.306 136.854 288.847 128.477 287.855ZM492.378 287.84C491.1 287.496 491.263 287.429 493.498 287.375C494.949 287.341 496.114 287.548 496.114 287.84C496.114 288.436 494.591 288.436 492.378 287.84ZM0.950042 283.726C0.950042 281.695 1.04991 281.544 2.56904 281.271C3.45949 281.111 7.21431 280.404 10.9131 279.699C23.7539 277.253 34.9619 276.779 42.7977 278.352C48.0034 279.396 47.24 279.743 35.7277 281.561C30.4362 282.397 23.1926 283.561 19.6308 284.149C16.069 284.737 10.4087 285.369 7.05241 285.554L0.950042 285.891V283.726ZM487.894 284.317C487.072 284.206 481.58 283.41 475.689 282.548C469.799 281.686 459.487 280.394 452.774 279.676C436.508 277.937 431.976 277.099 427.416 274.987C422.82 272.859 420.029 272.179 414.168 271.762C408.432 271.353 401.715 270.496 399.44 269.882C398.124 269.527 397.479 268.957 396.949 267.684C396.239 265.977 396.203 265.962 391.751 265.574C389.285 265.359 377.964 265.24 366.594 265.31L345.921 265.438L340.939 263.654L335.958 261.869L322.258 261.438C314.724 261.201 304.076 260.518 298.596 259.921C284.706 258.407 283.835 258.267 284.049 257.592C284.18 257.181 287.845 257.004 296.227 257.004C302.822 257.004 308.387 256.827 308.594 256.611C308.801 256.395 308.723 255.644 308.421 254.943C307.893 253.715 307.968 253.644 310.458 253.029C314.135 252.12 316.4 251.057 316.176 250.345C316.033 249.893 309.987 249.713 293.092 249.659L270.202 249.586L263.585 247.892C255.711 245.877 251.762 245.751 238.227 247.08C229.886 247.9 229.017 247.903 227.268 247.123C224.931 246.081 215.35 245.589 192.988 245.361C181.384 245.243 175.963 244.981 173.062 244.399C170.87 243.96 166.611 243.214 163.597 242.743C156.067 241.565 155.793 241.496 156.148 240.888C156.352 240.54 160.874 240.404 168.996 240.502L181.531 240.652L185.635 238.96C188.706 237.695 191.153 237.123 195.349 236.691C198.434 236.374 205.442 235.198 210.922 234.079C227.466 230.699 229.857 230.466 234.276 231.8C235.783 232.254 234.196 233.004 231.707 233.014C229.897 233.021 229.506 233.219 229.104 234.339C228.844 235.064 228.415 235.657 228.153 235.657C227.89 235.657 227.051 235.908 226.289 236.214C223.442 237.36 226.131 237.811 233.675 237.454C241.062 237.103 248.532 237.511 248.532 238.265C248.532 238.49 246.795 238.969 244.671 239.328C242.548 239.688 240.066 240.309 239.156 240.708C235.953 242.111 237.836 242.531 245.949 242.223C254.875 241.883 260.845 241.214 265.001 240.088C266.823 239.594 269.595 239.362 272.53 239.458C276.851 239.599 277.186 239.689 277.328 240.743C277.437 241.55 277.939 241.964 279.072 242.181C282.688 242.874 292.474 243.597 304.774 244.079C323.507 244.813 325.405 245.099 322.77 246.795C321.459 247.638 321.249 247.975 321.801 248.345C322.19 248.605 327.034 248.822 332.566 248.826C338.098 248.831 342.742 249.037 342.887 249.284C343.032 249.532 342.574 250.012 341.869 250.352C339.014 251.728 342.36 253.101 351.151 254.162C357.607 254.941 361.218 254.962 381.141 254.337C392.864 253.969 397.098 253.666 397.576 253.161C398.473 252.21 397.319 251.504 394.74 251.425C393.644 251.392 392.187 251.185 391.502 250.966L390.256 250.567L391.502 250.242C396.834 248.849 428.412 250.382 434.505 252.329C436.683 253.026 434.24 253.267 426.541 253.115C419.895 252.984 418.33 253.087 418.506 253.644C418.626 254.025 420.147 254.642 421.886 255.014C423.626 255.386 425.16 255.809 425.295 255.952C426.195 256.904 422.378 257.717 415.04 258.136C410.589 258.39 408.937 258.667 408.937 259.158C408.937 259.923 409.68 260.198 413.047 260.682C415.386 261.018 415.974 261.734 414.872 262.901C413.721 264.118 415.963 264.384 427.618 264.413C440.493 264.445 442.783 264.738 450.682 267.362C454.473 268.622 456.764 269.028 461.311 269.249C468.216 269.584 482.036 268.592 485.405 267.519C486.724 267.099 489.673 266.755 491.959 266.755H496.114V275.716V284.676L492.751 284.597C490.902 284.554 488.716 284.428 487.894 284.317ZM452.525 282.568C451.307 282.24 451.537 282.166 453.771 282.166C455.278 282.166 457.183 282.347 458.005 282.568C459.223 282.896 458.993 282.97 456.76 282.97C455.253 282.97 453.347 282.789 452.525 282.568ZM415.164 281.948C412.698 281.747 404.852 281.328 397.729 281.016C386.45 280.521 378.541 279.572 377.624 278.602C376.831 277.763 379.956 277.701 396.859 278.22C412.401 278.697 416.217 278.964 418.859 279.76C424.753 281.535 422.98 282.585 415.164 281.948ZM152.139 279.61C149.4 279.193 142.468 278.68 136.737 278.47C130.228 278.231 126.251 277.88 126.143 277.535C126.048 277.232 127.543 276.447 129.465 275.792C135.867 273.61 133.574 273.079 123.496 274.409C114.98 275.533 81.4926 276.522 78.72 275.732C77.4582 275.373 76.7278 274.916 76.983 274.646C78.2603 273.294 86.2664 271.941 95.599 271.498C101.497 271.218 108.469 270.507 113.348 269.687C121.827 268.262 128.025 268.017 134.78 268.839C141.6 269.669 193.004 268.14 210.832 266.577C218.063 265.943 219.455 265.349 216.622 264.107C215.37 263.559 211.105 263.516 195.058 263.888C176.591 264.317 140.457 264.254 139.976 263.792C139.079 262.931 147.204 261.641 159.444 260.7C165.252 260.253 170.117 259.769 170.254 259.623C170.392 259.477 170.254 259.093 169.948 258.77C169.556 258.355 166.986 258.283 161.264 258.526C156.793 258.716 144.954 259.086 134.953 259.348C124.953 259.61 113.632 260.188 109.796 260.633C99.6003 261.814 83.3878 262.954 71.4386 263.331C65.685 263.512 58.8478 264.027 56.245 264.474C52.6281 265.096 49.487 265.212 42.9194 264.966C34.4539 264.648 32.5008 264.987 35.9453 266.179C37.921 266.862 47.7849 268.624 52.3791 269.115C56.0951 269.512 56.6688 269.921 55.3962 271.268C54.167 272.568 47.0345 272.064 29.3044 269.425C21.4737 268.26 11.8905 267.145 8.00839 266.949L0.950042 266.593V264.039V261.484L13.5284 261.499C20.4465 261.506 27.788 261.746 29.8429 262.028C41.2946 263.601 46.7801 263.742 46.7801 262.463C46.7801 261.805 46.4563 261.728 39.3078 260.683C35.883 260.182 31.8381 259.574 30.3191 259.332C28.8001 259.089 22.7475 258.639 16.869 258.331C10.9904 258.023 5.00376 257.625 3.56534 257.446L0.950042 257.121V255.085V253.05L4.31257 253.052C6.16196 253.054 9.8047 253.387 12.4076 253.793C15.0104 254.199 19.2696 254.687 21.8724 254.878C24.4753 255.069 30.5279 255.785 35.3226 256.468C46.05 257.997 53.7448 258.541 54.7361 257.841C55.9261 257 55.1461 256.716 49.4483 255.913C41.6139 254.81 40.7458 254.626 41.0359 254.129C41.1797 253.883 42.4749 253.39 43.9142 253.032C46.9671 252.274 48.1912 251.666 49.2502 250.381C49.8069 249.706 51.3196 249.298 54.7505 248.899C64.9742 247.71 69.2689 247.625 72.9331 248.538C74.851 249.015 78.4377 249.402 80.9035 249.397C86.1265 249.388 98.2153 247.692 102.702 246.342C105.469 245.509 107.857 245.421 124.41 245.537C134.64 245.609 143.37 245.882 143.811 246.143C144.689 246.663 140.177 248.282 134.101 249.627C130.562 250.411 130.21 250.597 130.698 251.433C131.203 252.297 136.54 252.09 143.422 250.941C149.432 249.936 157.95 249.548 159.567 250.205C160.108 250.424 160.26 250.912 160.055 251.772L159.759 253.021L171.392 252.951C178.65 252.907 184.243 253.12 186.263 253.517C191.628 254.571 195.484 256.118 196.881 257.776C198.738 259.982 201.183 260.182 213.081 259.102C230.15 257.552 249.585 258.316 268.209 261.269C273.982 262.184 275.433 262.779 273.283 263.35C271.678 263.776 270.662 264.923 271.439 265.431C271.736 265.625 274.941 266.125 278.562 266.543C282.183 266.961 289.966 267.94 295.856 268.718C303.906 269.781 308.578 270.117 314.664 270.07C319.444 270.032 322.647 270.204 322.481 270.488C322.326 270.753 321.933 270.971 321.606 270.973C320.077 270.98 317.277 272.148 317.277 272.778C317.277 273.904 318.989 274.118 328.079 274.125C332.963 274.13 337.242 274.376 338.042 274.699C339.37 275.235 339.395 275.304 338.516 275.987C338.006 276.384 335.652 277.186 333.286 277.769C325.122 279.782 319.281 280.066 292.025 279.774C265.191 279.487 262.125 279.274 248.532 276.757C239.56 275.096 233.427 275.193 221.632 277.183C206.539 279.729 201.582 280.079 178.541 280.228C161.979 280.335 155.991 280.196 152.139 279.61ZM0.950042 275.18V270.305L7.30149 270.582C13.7239 270.862 16.6556 271.523 17.7285 272.935C18.6934 274.205 17.9488 275.095 15.2272 275.925C11.346 277.109 3.33937 279.45 2.07089 279.771C0.969955 280.05 0.950042 279.969 0.950042 275.18ZM95.187 278.946C94.3866 278.409 97.2071 277.839 100.705 277.83C103.737 277.823 103.773 278.633 100.76 279.07C97.6686 279.519 95.9848 279.481 95.187 278.946ZM346.888 273.382C345.957 272.657 345.956 272.614 346.839 272.252C347.799 271.858 355.562 272.314 357.503 272.878C360.051 273.618 358.298 274.135 353.239 274.135C349.356 274.135 347.585 273.925 346.888 273.382ZM58.0905 272.498C58.8189 271.727 67.2043 271.164 67.2043 271.886C67.2043 272.619 64.7344 273.08 60.8155 273.08C58.425 273.08 57.6888 272.923 58.0905 272.498ZM365.971 270.577C365.492 270.462 365.1 270.12 365.1 269.818C365.1 269.505 365.582 269.405 366.22 269.586C366.837 269.761 367.995 269.907 368.794 269.911C369.593 269.915 370.091 270.083 369.901 270.284C369.498 270.711 367.231 270.88 365.971 270.577ZM72.684 266.875C72.684 266.324 80.9359 265.158 84.486 265.207C88.5105 265.264 85.4657 266.056 79.6582 266.463C76.7813 266.665 74.0352 266.948 73.5558 267.092C73.0763 267.236 72.684 267.139 72.684 266.875ZM459.581 265.726C455.579 265.283 454.366 264.705 455.035 263.561C455.479 262.8 473.838 263.201 480.147 264.11C485.081 264.82 485.884 265.701 481.597 265.701C479.805 265.701 474.996 265.804 470.912 265.93C466.827 266.055 461.728 265.963 459.581 265.726ZM476.935 258.849C475.858 258.559 476.485 258.447 479.176 258.447C481.231 258.447 483.585 258.628 484.407 258.849C485.484 259.139 484.857 259.251 482.165 259.251C480.111 259.251 477.757 259.07 476.935 258.849ZM467.221 256.214C466.295 255.9 466.775 255.778 469.089 255.739C470.866 255.709 472.202 255.913 472.202 256.214C472.202 256.827 469.032 256.827 467.221 256.214ZM201.706 253.747C194.895 252.577 192.793 251.325 198.343 251.745C211.011 252.705 216.21 253.252 216.441 253.647C216.701 254.092 204.205 254.177 201.706 253.747ZM464.232 252.499C457.932 251.694 450.562 249.274 450.919 248.127C451.189 247.259 459.785 246.279 471.293 245.804C476.684 245.582 481.264 245.22 481.472 245C481.68 244.78 481.585 244.32 481.261 243.977C480.808 243.498 478 243.569 469.089 244.284C462.719 244.795 457.096 245.3 456.595 245.405C454.163 245.913 440.506 244.231 424.629 241.466C422.985 241.18 419.362 239.884 416.578 238.586C413.794 237.289 410.207 235.871 408.607 235.436C407.008 235.001 404.116 234.183 402.182 233.619C399.946 232.967 395.519 232.388 390.031 232.029C385.282 231.72 381.306 231.37 381.196 231.254C380.686 230.714 388.585 230.377 403.208 230.313C417.093 230.253 420.205 230.394 427.336 231.408C432.715 232.173 436.193 232.934 437.476 233.627C438.551 234.207 440.885 235.004 442.665 235.397C446.536 236.255 446.866 236.509 445.053 237.238C444.292 237.544 443.791 237.924 443.941 238.082C444.09 238.24 447.091 238.481 450.61 238.618C460.706 239.012 468.989 239.846 475.191 241.093C479.251 241.91 482.952 242.259 487.894 242.29C491.73 242.312 495.148 242.374 495.491 242.422C495.939 242.485 496.114 243.893 496.114 247.436V252.363L490.509 252.704C483.269 253.146 468.387 253.029 464.232 252.499ZM437.719 238.387C437.888 237.846 437.119 237.715 434.271 237.801C430.318 237.919 429.68 238.086 430.143 238.878C430.605 239.669 437.457 239.225 437.719 238.387ZM10.4149 248.475C9.18201 248.378 6.54803 247.91 4.56165 247.434C1.00078 246.581 0.950042 246.545 0.950042 244.881V243.194L7.37719 242.835C15.561 242.378 21.4353 242.863 24.5607 244.255C27.2655 245.459 25.2169 245.574 45.6419 243.068C57.0506 241.669 71.2082 240.76 74.9999 241.185C77.1821 241.429 78.8295 241.284 80.7286 240.679C83.7812 239.708 99.5797 238.936 97.8407 239.843C95.7234 240.948 75.521 243.686 54.8059 245.675C48.6717 246.265 40.8856 247.216 37.5033 247.79C32.7359 248.6 29.2528 248.814 22.0052 248.742C16.8635 248.691 11.6479 248.571 10.4149 248.475ZM368.587 248.372L366.345 248.033L368.026 247.643C370.521 247.065 377.055 247.164 377.055 247.78C377.055 248.07 376.299 248.307 375.374 248.307C374.449 248.307 373.048 248.398 372.261 248.51C371.473 248.621 369.82 248.559 368.587 248.372ZM409.569 247.812C406.991 247.367 406.231 246.726 408.283 246.726C411.27 246.726 415.911 247.413 415.911 247.855C415.911 248.371 412.684 248.349 409.569 247.812ZM420.644 245.423L418.651 244.728L421.951 244.673C425.687 244.61 428.365 245.055 428.365 245.738C428.365 246.435 422.908 246.213 420.644 245.423ZM92.3841 245.214C93.0982 244.403 98.1551 243.468 100.72 243.673L102.822 243.841L100.83 244.511C98.0026 245.463 91.7038 245.987 92.3841 245.214ZM362.609 242.717C357.444 242.347 354.638 241.906 354.638 241.465C354.638 240.969 359.029 240.144 366.096 239.311C375.181 238.241 394.974 238.726 402.835 240.212C405.594 240.734 404.766 241.823 401.34 242.178C397.611 242.564 366.506 242.997 362.609 242.717ZM9.76028 240.562L0.886108 240.376L1.04261 238.939L1.19912 237.502L16.0192 237.362C30.0831 237.23 33.1143 236.877 29.4693 235.799C27.7112 235.279 12.6965 235.274 6.05611 235.792L0.950043 236.19V234.307C0.950043 232.596 1.05243 232.458 2.07089 232.794C2.68735 232.997 3.6339 233.488 4.17434 233.883C5.68155 234.987 27.3427 234.862 34.5753 233.708C38.9301 233.013 44.0689 232.826 59.6071 232.796C70.3607 232.777 79.1594 232.936 79.1596 233.154C79.1598 233.371 78.8798 233.564 78.5373 233.583C78.1948 233.6 73.9772 233.798 69.1648 234.019C64.3524 234.239 60.1253 234.61 59.7712 234.841C58.4323 235.717 60.5172 236.168 65.9341 236.176C72.8122 236.186 72.3734 236.972 65.0507 237.758C62.0853 238.076 56.5932 238.826 52.846 239.424C45.7054 240.564 29.8462 240.983 9.76028 240.562ZM103.569 237.782C106.856 236.494 123.496 235.055 123.496 236.059C123.496 236.28 122.319 236.788 120.88 237.187C117.88 238.019 101.532 238.581 103.569 237.782ZM331.599 237.291C331.256 237.175 330.441 236.642 329.788 236.105C329.047 235.497 327.781 235.13 326.426 235.13C325.23 235.13 324.251 234.93 324.251 234.685C324.251 234.441 328.518 233.691 333.733 233.019C342.749 231.858 343.698 231.83 353.036 232.454C369.728 233.57 371.761 234.37 363.356 236.517C360.542 237.236 357.203 237.417 346.045 237.455C338.442 237.481 331.941 237.407 331.599 237.291ZM161.355 235.13C163.128 234.529 167.409 234.529 166.088 235.13C165.54 235.379 163.97 235.576 162.601 235.567C160.636 235.555 160.373 235.463 161.355 235.13ZM268.209 235.393C267.935 235.294 266.646 235.061 265.345 234.876C264.043 234.69 262.978 234.288 262.978 233.981C262.978 233.315 275.128 233.666 276.677 234.377C277.521 234.763 277.368 234.892 275.681 235.215C273.635 235.607 269.097 235.715 268.209 235.393ZM296.355 233.483C294.3 233.233 289.592 232.44 285.893 231.722C282.195 231.003 276.366 230.157 272.941 229.841C269.517 229.525 263.912 228.703 260.487 228.015C257.063 227.327 252.86 226.6 251.147 226.399C248.017 226.031 247.289 225.534 248.905 224.869C250.037 224.404 254.413 224.184 276.352 223.489C291.953 222.994 294.842 222.775 297.228 221.907C301.308 220.422 309.337 220.53 317.033 222.175C320.318 222.876 325.696 223.602 328.983 223.787C332.271 223.972 339.669 224.601 345.423 225.185C351.176 225.768 361.534 226.415 368.439 226.623C375.345 226.83 381.114 227.126 381.261 227.281C381.581 227.62 362.023 228.822 356.363 228.812C354.161 228.81 349.677 228.451 346.4 228.019C337.225 226.808 329.731 227.062 329.731 228.584C329.731 228.967 330.123 229.524 330.602 229.823C331.948 230.662 330.799 231.175 325.329 232.178C314.885 234.094 305.006 234.539 296.355 233.483ZM317.714 225.693C318.92 224.885 317.789 224.061 315.476 224.061C312.684 224.061 308.728 225.079 309.093 225.703C309.445 226.306 316.813 226.297 317.714 225.693ZM154.381 232.532C149.886 232.238 148.66 231.945 145.663 230.447C142.835 229.033 141.235 228.617 137.195 228.248C134.455 227.997 130.456 227.427 128.309 226.981C126.161 226.535 123.288 226.169 121.924 226.169C119.692 226.169 119.474 226.067 119.751 225.143C120.009 224.284 119.708 224.017 117.917 223.514C116.738 223.183 114.317 222.251 112.536 221.443C108.533 219.628 101.369 219.028 84.6397 219.106C78.475 219.135 73.9917 218.978 74.6766 218.757C75.3616 218.536 81.0056 218.098 87.2189 217.784C93.4322 217.469 101.166 216.84 104.405 216.386C109.396 215.686 111.625 215.651 119.012 216.157C123.807 216.486 128.627 216.97 129.722 217.232C130.818 217.495 132.556 217.716 133.583 217.723C135.582 217.735 136.169 218.605 134.369 218.885C132.337 219.202 132.958 220.107 135.825 221.01C137.873 221.655 141.174 221.979 147.407 222.147C153.877 222.321 156.602 222.598 157.977 223.221C160.199 224.229 164.669 224.301 173.344 223.467C177.355 223.082 181.204 223.028 184.055 223.318C186.962 223.613 187.814 223.821 186.512 223.919C182.881 224.19 181.281 224.627 181.281 225.346C181.281 225.737 181.618 226.193 182.028 226.36C182.439 226.527 182.776 227.182 182.776 227.815C182.776 228.965 182.785 228.966 190.622 228.614C198.486 228.261 204.694 228.595 204.694 229.369C204.694 230.142 199.28 231.931 196.127 232.2C190.847 232.65 159.94 232.896 154.381 232.532ZM26.3558 231.511C26.7668 231.242 29.3447 230.882 32.0846 230.712C35.0834 230.525 36.5551 230.581 35.7822 230.851C33.8815 231.516 25.4476 232.107 26.3558 231.511ZM91.3647 231.057C90.5428 230.934 89.6573 230.613 89.397 230.346C88.8268 229.759 96.9978 229.687 101.628 230.238L104.815 230.617L102.324 230.982C99.6245 231.379 93.7641 231.419 91.3647 231.057ZM247.037 231.111C246.352 231.008 243.943 230.66 241.682 230.337C237.473 229.736 236.092 228.797 239.441 228.814C242.395 228.829 249.962 229.755 250.613 230.181C251.022 230.448 250.908 230.691 250.242 230.967C249.218 231.392 248.987 231.402 247.037 231.111ZM8.92048 229.869C8.92048 229.574 9.59299 229.332 10.4149 229.332C11.2369 229.332 11.9128 229.154 11.917 228.937C11.941 227.692 13.5141 227.113 21.4976 225.413C30.8227 223.427 35.8662 223.106 44.7875 223.932C48.8376 224.308 48.6605 224.336 40.7184 224.588C33.0439 224.832 31.1805 225.125 31.9735 225.964C32.1407 226.141 34.4758 226.45 37.1626 226.651C41.4207 226.97 41.76 227.062 39.8059 227.366C38.573 227.559 35.883 227.842 33.8281 227.995C24.3007 228.709 11.0534 229.905 10.0413 230.143C9.42486 230.288 8.92048 230.162 8.92048 229.869ZM480.173 229.078C480.173 227.45 480.309 227.482 468.715 226.396C463.647 225.922 459.331 225.425 459.126 225.293C458.151 224.667 458.947 224.061 460.745 224.061C462.906 224.061 463.421 223.324 461.617 222.812C461 222.637 457.194 222.491 453.157 222.487C445.229 222.48 433.352 221.563 432.686 220.907C432.46 220.684 432.964 220.248 433.807 219.937C435.504 219.311 435.702 218.723 434.609 217.565C433.967 216.886 434.072 216.757 435.48 216.5C439.524 215.763 452.893 215.554 458.452 216.141C464.744 216.806 465.544 217.044 468.087 219.011C469.099 219.793 471.402 220.622 474.268 221.235C477.537 221.934 478.896 222.456 479.047 223.068C479.291 224.054 482.362 224.576 487.949 224.584C489.897 224.586 492.531 224.739 493.802 224.923L496.114 225.259V227.493C496.114 229.574 496.007 229.75 494.557 230.057C493.701 230.238 490.114 230.386 486.587 230.386H480.173V229.078ZM61.8859 228.097C58.0019 227.762 54.658 227.309 54.4552 227.092C54.2523 226.874 54.2177 226.697 54.3782 226.697C54.5387 226.697 57.4866 226.104 60.929 225.379C69.817 223.508 82.5598 223.743 84.5168 225.814C85.2253 226.564 85.2617 226.817 84.7131 227.175C82.9299 228.342 70.5202 228.843 61.8859 228.097ZM217.397 227.995C219.059 227.19 223.322 227.031 228.159 227.595C232.849 228.141 229.933 228.675 222.13 228.7C216.464 228.716 216.038 228.654 217.397 227.995ZM106.587 227.703C102.737 226.904 103.174 226.722 108.652 226.843C112.119 226.919 114.201 227.191 114.605 227.619C115.102 228.146 114.583 228.266 112.013 228.22C110.246 228.188 107.804 227.956 106.587 227.703ZM3.4408 224.13C3.4408 223.776 4.4016 223.518 5.80703 223.494C7.10845 223.474 8.56466 223.374 9.04304 223.277C9.52143 223.18 10.039 223.317 10.1933 223.581C10.3475 223.845 9.73196 224.064 8.82534 224.067C7.91873 224.069 6.33632 224.22 5.30888 224.4C4.06947 224.616 3.4408 224.526 3.4408 224.13ZM215.04 222.098C215.935 221.98 217.28 221.983 218.029 222.103C218.777 222.223 218.045 222.319 216.401 222.316C214.757 222.314 214.145 222.215 215.04 222.098ZM32.3337 220.876C30.8267 220.656 24.9423 220.452 19.2572 220.424C13.0596 220.392 8.92048 220.17 8.92048 219.868C8.92048 218.45 21.0646 218.148 36.568 219.179C46.031 219.809 48.7727 220.21 48.7727 220.964C48.7727 221.515 36.2382 221.447 32.3337 220.876ZM225.617 220.383C223.014 220.155 215.953 219.788 209.925 219.568C197.688 219.121 194.209 218.774 194.179 218C194.167 217.71 194.855 217.258 195.706 216.996C197.41 216.472 197.491 215.457 195.849 215.201C195.274 215.111 194.536 214.696 194.208 214.278C193.881 213.861 193.304 213.519 192.927 213.519C192.549 213.519 192.241 213.309 192.241 213.052C192.241 212.088 199.11 211.148 205.94 211.177C210.872 211.196 215.831 211.652 222.877 212.729C231.897 214.107 234.137 214.254 246.539 214.275C254.074 214.287 265.058 214.183 270.949 214.041C279.939 213.824 283.179 213.971 291.124 214.953C296.33 215.596 304.848 216.487 310.054 216.932C321.369 217.901 329.84 219.232 329.407 219.973C329.031 220.615 321.644 220.184 308.655 218.762C296.473 217.428 289.568 217.393 288.248 218.658C287.395 219.476 285.572 219.622 272.268 219.943C241.747 220.68 230.234 220.789 225.617 220.383ZM0.950042 218.527C0.950042 217.706 3.10528 217.431 4.64258 218.055C5.97175 218.594 4.98165 219.317 2.91325 219.317C1.50028 219.317 0.950042 219.096 0.950042 218.527ZM55.1241 217.877C56.2886 217.766 58.194 217.766 59.3584 217.877C60.5229 217.988 59.5702 218.079 57.2413 218.079C54.9124 218.079 53.9597 217.988 55.1241 217.877ZM388.513 217.187C385.362 216.986 378.637 216.761 373.568 216.688L364.352 216.555L369.085 215.841C383.998 213.591 394.64 212.946 398.725 214.046C399.547 214.267 399.939 214.477 399.597 214.511C398.706 214.6 398.824 216.155 399.721 216.155C400.132 216.155 400.468 216.36 400.468 216.61C400.468 217.067 396.546 217.815 395.044 217.645C394.602 217.595 391.664 217.389 388.513 217.187ZM422.636 217.016C420.003 216.171 421.252 215.625 425.79 215.636C429.773 215.645 431.288 216.333 429.187 217.179C427.429 217.886 425.174 217.83 422.636 217.016ZM68.4497 216.109C52.7515 214.865 49.8908 214.59 49.0274 214.239C48.1293 213.875 48.1304 213.849 49.0582 213.477C49.5861 213.266 51.7603 212.92 53.8897 212.71C57.5452 212.348 59.2808 211.542 57.7031 210.937C56.755 210.574 68.3874 209.402 73.4878 209.346C75.7108 209.325 78.737 209.551 80.2129 209.854C82.2914 210.28 94.6407 211.634 99.5843 211.977C99.9952 212.005 99.659 212.257 98.837 212.536C97.9415 212.84 93.5229 212.906 87.8119 212.699C78.6948 212.369 76.1711 212.543 76.1711 213.497C76.1711 213.736 80.5984 214.12 86.0096 214.35L95.8481 214.769L91.8629 215.422C86.2053 216.348 75.447 216.664 68.4497 216.109ZM161.853 216.321C153.978 215.845 154.354 214.84 162.607 214.309C166.284 214.072 169.511 213.499 172.439 212.562C180.454 209.997 177.95 209.585 161.278 210.723C150.091 211.487 147.031 211.529 141.85 210.989C138.468 210.637 134.692 210.343 133.459 210.337C131.505 210.327 131.345 210.245 132.213 209.705C133.374 208.983 188.161 208.829 190.217 209.542C191.361 209.939 191.378 210.004 190.526 210.663C189.981 211.085 189.721 211.766 189.873 212.379C190.107 213.327 189.639 213.438 182.838 214.047C177.404 214.532 175.158 214.95 173.999 215.69C172.438 216.687 170 216.814 161.853 216.321ZM491.381 214.797C490.011 214.38 488.156 213.889 487.259 213.708C486.362 213.526 485.494 213.147 485.329 212.865C485.148 212.555 485.596 212.468 486.462 212.645C487.25 212.806 489.744 213.093 492.004 213.283C495.591 213.585 496.114 213.756 496.114 214.628C496.114 215.837 494.932 215.88 491.381 214.797ZM408.688 214.573C408.491 214.237 410.011 214.046 412.893 214.046C415.569 214.046 417.406 214.261 417.406 214.573C417.406 214.883 415.672 215.101 413.201 215.101C410.888 215.101 408.857 214.863 408.688 214.573ZM0.950042 213.115C0.950042 211.545 2.11856 210.427 2.70702 211.434C2.86896 211.711 2.65197 211.938 2.22482 211.938C1.79768 211.938 1.44819 212.167 1.44819 212.447C1.44819 212.77 5.61292 212.837 12.7951 212.631C19.0359 212.451 25.0324 212.498 26.1207 212.734L28.0994 213.164L26.1067 213.628C25.0108 213.884 18.9022 214.231 12.5321 214.4L0.950042 214.706V213.115ZM347.664 212.656C343.992 212.089 341.188 211.269 341.188 210.762C341.188 210.356 344.475 210.29 352.477 210.536C358.686 210.728 366.129 210.884 369.016 210.884C372.019 210.884 374.063 211.08 373.792 211.342C372.645 212.453 352.806 213.451 347.664 212.656ZM305.321 211.194C298.471 210.743 297.404 210.583 300.34 210.447C305.893 210.19 317.54 210.911 316.72 211.461C316.341 211.714 315.583 211.887 315.035 211.845C314.487 211.802 310.116 211.509 305.321 211.194ZM26.9785 211.016C21.9783 210.93 17.8872 210.654 17.8872 210.402C17.8872 210.149 23.7717 209.821 30.9637 209.671C40.8333 209.466 44.7083 209.194 46.7641 208.56C49.5043 207.716 58.753 207.352 58.0302 208.116C57.8248 208.334 55.5075 208.63 52.8806 208.775C49.6891 208.951 48.0363 209.258 47.8989 209.698C47.777 210.089 48.1663 210.384 48.8557 210.423C51.957 210.599 44.9335 211.323 40.8022 211.253C38.1994 211.209 31.9787 211.102 26.9785 211.016ZM284.523 210.5C285.551 210.386 287.232 210.386 288.26 210.5C289.287 210.614 288.447 210.707 286.391 210.707C284.337 210.707 283.496 210.614 284.523 210.5ZM392.249 209.83L388.762 209.489L393.245 209.442C395.711 209.416 398.849 209.58 400.219 209.805C402.673 210.21 402.658 210.216 399.223 210.193C397.305 210.181 394.167 210.017 392.249 209.83ZM0.950042 207.99V206.522L5.0598 206.844C7.32017 207.02 11.8596 207.344 15.1474 207.564L21.1252 207.964L16.3928 208.307C13.7899 208.495 9.25051 208.832 6.30518 209.054L0.950042 209.458V207.99ZM89.2476 208.939C89.7271 208.807 90.5117 208.807 90.9911 208.939C91.4706 209.072 91.0783 209.18 90.1194 209.18C89.1604 209.18 88.7681 209.072 89.2476 208.939ZM256.253 208.449C246.028 206.881 241.789 206.665 220.465 206.628C208.092 206.609 196.961 206.417 195.728 206.207L193.486 205.826L195.852 205.424C197.69 205.111 198.218 204.803 198.218 204.041C198.218 202.969 198.785 202.778 204.445 201.936C210.215 201.078 214.613 201.276 217.148 202.51C219.157 203.488 220.478 203.614 229.851 203.726C237.935 203.823 241.671 204.108 246.29 204.979C252.689 206.186 261.579 207.193 265.843 207.194C267.281 207.194 268.458 207.431 268.458 207.721C268.458 208.011 267.37 208.248 266.04 208.248C264.711 208.248 262.301 208.345 260.685 208.463C259.07 208.581 257.075 208.575 256.253 208.449ZM322.258 208.216C313.492 207.73 308.193 206.989 301.465 205.307C296.661 204.106 295.489 204.032 281.399 204.032C268.826 204.032 264.557 203.819 254.673 202.699C248.204 201.966 242.75 201.261 242.553 201.133C242.357 201.004 239.307 200.532 235.775 200.084C232.243 199.635 228.68 199.108 227.859 198.912C226.419 198.569 226.447 198.542 228.606 198.171C229.839 197.958 232.865 197.744 235.331 197.693C239.942 197.599 242.671 197.117 241.802 196.549C241.304 196.224 216.62 196.927 204.196 197.62C197.946 197.969 195.23 197.664 195.23 196.614C195.23 195.814 199.456 195.69 222.628 195.812C245.872 195.934 256.282 196.375 256.798 197.26C256.942 197.506 256.823 197.707 256.532 197.707C256.242 197.707 256.004 197.973 256.004 198.298C256.004 198.722 258.219 198.805 263.85 198.591C268.165 198.427 271.248 198.413 270.7 198.558C270.152 198.704 269.367 198.987 268.956 199.187C268.545 199.388 277.221 199.67 288.235 199.815C302.974 200.009 308.421 200.248 308.865 200.718C309.337 201.218 309.019 201.433 307.395 201.708C304.115 202.263 304.978 202.978 308.933 202.981C310.919 202.983 314.786 203.349 317.526 203.795C322.705 204.638 337.797 205.515 349.567 205.657C358.646 205.766 359.902 206.355 352.646 207.1C335.2 208.893 334.76 208.909 322.258 208.216ZM425.874 208.352C425.874 208.005 427.763 207.728 430.833 207.625C433.56 207.533 435.634 207.618 435.441 207.811C434.8 208.457 425.874 208.961 425.874 208.352ZM370.828 207.371C369.732 206.914 366.706 206.371 364.103 206.164L359.371 205.787L365.1 205.7C370.461 205.619 380.055 206.299 383.162 206.979C386.101 207.623 383.713 208.247 378.396 208.225C374.54 208.211 372.207 207.946 370.828 207.371ZM449.786 207.667C440.152 206.941 440.156 206.749 449.8 206.95C454.877 207.056 459.584 207.377 460.261 207.662C461.789 208.308 458.316 208.309 449.786 207.667ZM100.581 207.194C100.581 206.904 100.637 206.666 100.705 206.665C100.774 206.664 104.753 205.824 109.547 204.799C121.285 202.29 130.775 201.786 135.174 203.438C137.711 204.391 138.817 204.505 142.895 204.23C145.952 204.025 148.726 204.146 150.645 204.57C152.289 204.934 156.66 205.414 160.359 205.638C164.193 205.87 161.195 205.895 153.385 205.697C131.378 205.139 123.614 205.328 116.386 206.601C109.726 207.774 100.581 208.117 100.581 207.194ZM74.9257 206.611C69.1269 206.307 59.2339 204.803 59.2339 204.225C59.2339 204.102 64.2216 204.052 70.3178 204.114C80.255 204.214 99.5811 203.565 110.295 202.772L114.28 202.477L109.729 203.473C104.518 204.614 90.0542 206.543 84.8887 206.786C82.9709 206.876 78.4875 206.795 74.9257 206.611ZM290.377 206.14C291.062 205.908 292.407 205.711 293.366 205.703C294.772 205.691 294.916 205.775 294.113 206.14C293.565 206.389 292.22 206.586 291.124 206.578C289.412 206.566 289.307 206.503 290.377 206.14ZM397.729 206.074C395.263 205.789 392.012 205.219 390.505 204.808C387.923 204.103 388.282 204.074 396.732 204.311C411.394 204.721 418.006 205.188 417.452 205.775C416.766 206.501 403.198 206.707 397.729 206.074ZM492.751 205.25C493.231 205.117 494.015 205.117 494.495 205.25C494.974 205.382 494.582 205.491 493.623 205.491C492.664 205.491 492.272 205.382 492.751 205.25ZM462.987 204.282C454.965 203.532 455.618 203.654 456.012 202.978C456.458 202.215 462.351 202.329 471.735 203.281C489.049 205.038 488.634 204.943 478.927 204.938C473.996 204.936 466.822 204.64 462.987 204.282ZM35.2147 203.643C36.6623 203.535 38.904 203.537 40.1963 203.645C41.4885 203.753 40.3041 203.841 37.5643 203.839C34.8244 203.838 33.7671 203.749 35.2147 203.643ZM182.402 203.652C183.156 203.531 184.388 203.531 185.142 203.652C185.895 203.773 185.279 203.872 183.772 203.872C182.265 203.872 181.649 203.773 182.402 203.652ZM438.328 202.975C434.579 202.683 434.949 202.634 441.566 202.555C446.543 202.495 448.789 202.635 448.291 202.975C447.502 203.515 445.241 203.515 438.328 202.975ZM400.967 201.709C397.268 201.391 394.484 200.964 394.78 200.759C395.627 200.175 415.074 200.781 421.142 201.584L426.621 202.307L417.156 202.298C411.951 202.293 404.665 202.027 400.967 201.709ZM18.8835 201.115C16.862 200.585 15.3601 200.527 13.1548 200.892C11.5109 201.165 8.0923 201.39 5.55795 201.392L0.950042 201.397V199.076V196.754L3.31627 196.725C4.61769 196.708 8.59531 196.33 12.1554 195.883C20.6593 194.817 24.0681 194.806 23.691 195.846C23.5367 196.271 23.6809 196.805 24.0114 197.032C24.3419 197.258 35.2603 197.444 48.2745 197.444C65.1947 197.444 73.1433 197.639 76.1711 198.13C78.4999 198.507 83.3196 199.024 86.8814 199.28C91.6091 199.62 88.6505 199.678 75.922 199.498C60.7892 199.283 56.0526 199.426 40.055 200.586C29.9176 201.321 21.6234 201.902 21.6234 201.878C21.6234 201.857 20.3904 201.51 18.8835 201.115ZM96.5953 201.418C97.5543 201.153 101.813 200.814 106.06 200.664C111.011 200.489 112.977 200.553 111.54 200.842C108.315 201.49 94.3912 202.027 96.5953 201.418ZM473.899 201.089C472.555 200.723 470.835 200.173 470.077 199.866C469.319 199.559 466.629 199.043 464.099 198.719C461.569 198.395 457.818 197.564 455.763 196.871C453.708 196.178 451.51 195.609 450.877 195.605C450.244 195.6 449.855 195.379 450.012 195.11C450.171 194.837 452.542 194.724 455.396 194.854C468.085 195.432 481.695 196.257 484.656 196.629C487.818 197.026 487.773 197.037 482.747 197.107C478.874 197.162 477.65 197.343 477.805 197.838C477.955 198.317 480.46 198.585 486.938 198.816C491.848 198.991 495.921 199.168 495.989 199.211C496.058 199.253 496.114 199.62 496.114 200.025C496.114 200.764 495.758 200.798 479.877 201.58C477.933 201.676 475.243 201.455 473.899 201.089ZM185.765 200.869C185.765 200.551 187.593 200.367 190.373 200.404C193.562 200.448 194.521 200.591 193.486 200.869C191.231 201.476 185.765 201.476 185.765 200.869ZM361.862 200.342C361.314 200.093 360.137 199.872 359.246 199.852C358.356 199.833 357.627 199.599 357.627 199.335C357.627 198.574 363.438 198.442 368.338 199.092C373.79 199.815 373.477 199.723 372.572 200.342C371.656 200.968 363.239 200.968 361.862 200.342ZM143.422 199.334C142.366 199.015 142.547 198.903 144.612 198.596C147.681 198.139 150.854 198.188 152.118 198.712C154.069 199.519 145.957 200.099 143.422 199.334ZM166.959 197.53C160.379 196.398 164.707 195.57 176.743 195.66C181.294 195.694 186.475 195.876 188.255 196.064C191.215 196.377 191.344 196.439 189.75 196.786C186.947 197.395 176.831 198.232 173.311 198.145C171.53 198.102 168.672 197.825 166.959 197.53ZM399.97 197.707C398.242 197.322 398.247 197.318 400.468 197.295C401.701 197.283 403.831 197.457 405.201 197.682L407.692 198.093L404.703 198.094C403.059 198.094 400.929 197.92 399.97 197.707ZM94.2291 197.387C94.7086 197.231 95.1009 196.882 95.1009 196.614C95.1009 196.334 91.5364 196.119 86.7568 196.109C77.4339 196.093 77.0432 195.622 85.2774 194.331C92.9464 193.13 101.427 193.218 105.811 194.544C108.466 195.347 110.788 195.598 115.567 195.598C119.016 195.598 123.949 195.933 126.528 196.343C130.002 196.895 132.573 196.969 136.448 196.629C139.324 196.377 142.463 196.187 143.422 196.206C145.111 196.24 145.095 196.257 142.924 196.762C140.405 197.348 124.862 197.577 114.28 197.184C110.444 197.042 104.167 197.094 100.331 197.299C96.4957 197.505 93.7496 197.544 94.2291 197.387ZM435.339 197.216C435.339 196.942 437.321 196.767 439.82 196.821C442.284 196.873 444.302 197.094 444.303 197.311C444.305 197.529 442.288 197.707 439.822 197.707C437.357 197.707 435.339 197.486 435.339 197.216ZM372.074 196.705C370.427 196.473 370.074 196.284 370.745 195.994C371.89 195.497 386.308 195.472 388.575 195.962C390.198 196.313 390.213 196.339 389.011 196.7C387.519 197.149 375.244 197.153 372.074 196.705ZM419.274 196.788C421.534 196.69 425.233 196.69 427.493 196.788C429.754 196.885 427.904 196.965 423.383 196.965C418.863 196.965 417.013 196.885 419.274 196.788ZM344.675 196.126C345.086 195.844 346.992 195.641 348.91 195.672C352.259 195.728 352.308 195.747 350.155 196.152C346.842 196.776 343.746 196.761 344.675 196.126ZM328.751 195.62C329.171 195.36 331.189 195.112 333.234 195.071C337.777 194.977 338.39 195.077 336.456 195.598C334.27 196.187 327.807 196.205 328.751 195.62ZM155.377 194.544C156.062 194.312 159.425 194.135 162.85 194.15C168.18 194.174 168.611 194.233 165.839 194.563C161.331 195.099 153.78 195.086 155.377 194.544ZM392.498 194.522C391.781 194.266 394.319 194.205 398.476 194.379C402.449 194.545 405.792 194.769 405.907 194.876C406.337 195.281 393.688 194.946 392.498 194.522ZM4.68619 194.017C4.49171 193.684 5.62765 193.504 7.77024 193.527C10.1273 193.553 10.8582 193.702 10.1659 194.017C8.77057 194.651 5.05675 194.651 4.68619 194.017ZM70.9405 193.49C71.4884 193.241 72.6653 193.02 73.5558 193C74.4462 192.98 75.1748 192.756 75.1748 192.503C75.1748 191.549 71.1193 191.419 65.4031 192.19C59.9523 192.926 38.6223 193.781 41.1759 193.161C41.7923 193.012 42.2967 192.641 42.2967 192.337C42.2967 191.97 40.912 191.891 38.1869 192.1C29.7963 192.746 13.5486 192.995 10.4149 192.527C6.48078 191.938 6.28675 191.95 24.6123 191.681C32.0099 191.572 39.7002 191.222 41.702 190.903C44.1706 190.51 46.6743 190.483 49.4833 190.821C53.8692 191.348 54.1646 191.315 59.2309 189.72C62.8712 188.573 72.4415 187.754 71.1896 188.695C70.7786 189.004 70.0633 189.261 69.6 189.265C69.1367 189.27 68.6121 189.522 68.4343 189.827C68.2104 190.21 70.6146 190.274 76.2508 190.036C81.4985 189.814 84.8331 189.887 85.636 190.24C86.8315 190.766 86.8371 190.789 85.7749 190.821C85.1663 190.839 82.8256 191.566 80.5734 192.436C77.5005 193.622 75.6632 194.008 73.2114 193.98C70.9243 193.954 70.2431 193.807 70.9405 193.49ZM133.459 192.497C133.459 191.778 139.56 191.255 143.173 191.665C148.544 192.273 146.824 192.963 139.935 192.963C136.373 192.963 133.459 192.753 133.459 192.497ZM308.695 192.667C308.541 192.504 302.843 192.196 296.033 191.982C285.726 191.658 283.887 191.487 285.054 190.96C287.61 189.807 317.853 190.318 330.229 191.723C332.966 192.034 333.236 192.149 331.972 192.464C330.191 192.91 309.098 193.093 308.695 192.667ZM412.922 192.408C409.223 192.202 405.244 192.005 404.08 191.971C401.017 191.881 401.471 190.856 404.578 190.847C409.104 190.834 423.587 191.993 424.629 192.452C425.803 192.97 422.814 192.958 412.922 192.408ZM459.25 192.614C458.565 192.501 455.427 191.931 452.276 191.348C449.125 190.766 444.306 190.119 441.566 189.91L436.584 189.532L442.6 188.809C448.181 188.137 449.217 188.166 456.959 189.204C462.012 189.882 465.725 190.636 466.373 191.116C467.043 191.612 468.75 191.941 470.943 191.994L474.444 192.079L470.708 192.452C466.619 192.86 461.207 192.937 459.25 192.614ZM171.207 191.522C172.379 191.411 174.172 191.412 175.192 191.526C176.212 191.639 175.254 191.73 173.062 191.728C170.87 191.726 170.035 191.633 171.207 191.522ZM189.028 191.45C189.288 191.198 193.648 190.723 198.717 190.394C209.042 189.725 210.449 189.685 210.088 190.067C209.832 190.338 192.733 191.909 190.035 191.909C189.165 191.909 188.749 191.72 189.028 191.45ZM238.071 191.444C238.071 190.791 245.041 190.17 246.817 190.664L248.283 191.072L246.788 191.428C244.54 191.964 238.071 191.975 238.071 191.444ZM362.858 191.382C363.029 191.088 365.189 190.871 367.744 190.892C370.766 190.916 371.984 191.083 371.326 191.382C369.888 192.036 362.476 192.036 362.858 191.382ZM492.758 191.004C493.515 190.882 494.636 190.886 495.249 191.011C495.861 191.136 495.242 191.235 493.872 191.231C492.502 191.227 492.001 191.125 492.758 191.004ZM150.014 190.335C144.513 189.673 146.032 189.273 154.049 189.273C161.662 189.273 164.186 189.846 159.542 190.519C156.862 190.908 154.379 190.86 150.014 190.335ZM386.342 190.214C387.383 189.859 389.468 189.852 392.569 190.192L397.23 190.703L391.003 190.725C386.127 190.742 385.116 190.631 386.342 190.214ZM99.3352 189.8C99.0171 189.256 101.137 189.16 111.094 189.27C114 189.302 119.716 188.94 123.797 188.465C128.847 187.878 132.251 187.739 134.455 188.029C137.466 188.426 137.17 188.48 130.221 188.809C126.111 189.003 120.395 189.416 117.518 189.727C110.811 190.451 99.7416 190.496 99.3352 189.8ZM224.122 189.355L222.379 188.976L224.815 188.597C228.708 187.993 239.085 188.172 237.573 188.818C236.015 189.483 226.465 189.864 224.122 189.355ZM261.982 188.688C257.735 188.409 253.252 187.979 252.019 187.732L249.777 187.283L252.766 187.224C254.41 187.192 257.627 186.889 259.915 186.551C263.084 186.083 266.405 186.083 273.863 186.551C279.247 186.889 291.217 187.312 300.464 187.49C309.711 187.668 317.277 187.979 317.277 188.181C317.277 188.382 310.608 188.533 302.457 188.515C294.306 188.497 283.602 188.643 278.67 188.839C273.738 189.034 266.229 188.967 261.982 188.688ZM335.709 188.746C333.764 188.426 333.995 188.368 337.452 188.306C340.186 188.258 341.203 188.396 340.69 188.746C339.875 189.304 339.098 189.304 335.709 188.746ZM4.93888 188.051C2.06587 187.572 1.16842 187.216 1.04167 186.506C0.835054 185.349 1.91523 185.333 21.7853 186.207L36.3936 186.85L43.2058 185.442C51.1748 183.795 52.1266 183.757 72.5401 184.291C82.3916 184.548 87.9782 184.884 87.7884 185.209C87.6039 185.525 84.5995 185.615 79.9619 185.443C74.8221 185.253 70.5391 185.413 66.4571 185.947C62.5505 186.458 59.0121 186.603 56.245 186.365C50.533 185.875 49.1631 185.969 43.194 187.259C38.7944 188.211 35.9661 188.391 23.3669 188.522C13.7951 188.621 7.37002 188.457 4.93888 188.051ZM47.5273 188.219C48.0753 187.97 50.0928 187.766 52.0107 187.766C54.3959 187.766 55.1829 187.909 54.5014 188.219C53.9535 188.468 51.936 188.672 50.0181 188.672C47.6329 188.672 46.8458 188.529 47.5273 188.219ZM182.153 187.847C182.77 187.721 183.778 187.721 184.395 187.847C185.011 187.973 184.507 188.076 183.274 188.076C182.041 188.076 181.537 187.973 182.153 187.847ZM349.159 187.692C348.643 187.339 349.673 187.179 352.492 187.173C354.736 187.168 356.711 187.402 356.88 187.692C357.284 188.384 350.171 188.384 349.159 187.692ZM186.642 187.319C187.262 187.193 188.159 187.198 188.635 187.33C189.111 187.462 188.604 187.565 187.508 187.559C186.412 187.553 186.023 187.445 186.642 187.319ZM408.439 187.211L406.695 186.868L408.688 186.495C411.111 186.042 423.492 186.093 427.618 186.573C430.238 186.879 429.751 186.969 423.678 187.307C415.843 187.742 410.99 187.712 408.439 187.211ZM453.771 186.722C445.531 186.028 444.397 185.835 446.298 185.446C451.086 184.467 471.246 185.977 472.606 187.417C473.069 187.906 463.742 187.562 453.771 186.722ZM482.662 187.131C478.691 186.684 476.188 185.914 476.188 185.137C476.188 184.495 479.514 184.101 488.517 183.677L496.114 183.319V185.505V187.692L491.257 187.622C488.585 187.583 484.718 187.363 482.662 187.131ZM102.698 186.802C103.177 186.669 103.962 186.669 104.441 186.802C104.921 186.934 104.528 187.043 103.569 187.043C102.611 187.043 102.218 186.934 102.698 186.802ZM215.362 186.711C215.809 185.946 220.128 185.558 224.204 185.918C226.336 186.106 227.96 186.463 227.815 186.712C227.67 186.961 224.749 187.165 221.324 187.165C217.899 187.165 215.216 186.961 215.362 186.711ZM162.351 186.176C162.351 185.492 173.658 184.589 185.266 184.347C190.883 184.23 195.254 184.216 194.98 184.317C194.706 184.418 189.021 184.981 182.346 185.569C169.383 186.711 162.351 186.924 162.351 186.176ZM378.052 186.089C376.545 185.868 372.397 185.641 368.836 185.583C365.274 185.526 361.799 185.269 361.114 185.012C360.37 184.733 365.863 184.656 374.766 184.82C382.959 184.971 389.908 185.261 390.208 185.463C391.595 186.4 383.151 186.834 378.052 186.089ZM123.131 185.218C123.616 185.085 124.289 185.093 124.626 185.238C124.963 185.382 124.567 185.492 123.745 185.481C122.923 185.47 122.647 185.352 123.131 185.218ZM143.173 185.056C145.476 184.436 150.306 184.436 149.4 185.056C148.989 185.338 147.083 185.543 145.165 185.513C142.517 185.472 142.038 185.362 143.173 185.056ZM107.057 183.608C105.948 183.077 102.956 182.63 98.837 182.38C88.54 181.757 88.2612 180.913 98.3389 180.873C103.383 180.853 110.382 180.408 115.649 179.772C124.049 178.758 124.82 178.746 131.092 179.532C134.722 179.987 138.029 180.497 138.44 180.665C140.401 181.465 135.379 182.071 126.235 182.137C116.971 182.203 116.133 182.29 114.287 183.369C111.989 184.712 109.531 184.794 107.057 183.608ZM234.085 183.714C231.209 183.337 225.833 182.855 222.139 182.642C216.895 182.34 215.676 182.136 216.576 181.711C217.373 181.335 221.784 181.361 230.89 181.798C244.463 182.448 251.708 183.255 251.235 184.065C250.844 184.734 240.217 184.516 234.085 183.714ZM5.68249 183.475C4.39316 182.889 9.14637 182.872 12.6566 183.451C14.9382 183.827 14.7917 183.864 10.9131 183.895C8.58423 183.913 6.23046 183.724 5.68249 183.475ZM37.1906 183.621C38.0811 183.504 39.5382 183.504 40.4286 183.621C41.3191 183.738 40.5905 183.834 38.8096 183.834C37.0287 183.834 36.3002 183.738 37.1906 183.621ZM336.507 183.386C329.898 182.711 331.041 182.505 341.437 182.496C346.917 182.492 350.952 182.677 350.404 182.908C348.862 183.558 340.878 183.833 336.507 183.386ZM406.322 183.63C406.938 183.505 407.947 183.505 408.563 183.63C409.18 183.756 408.676 183.859 407.443 183.859C406.21 183.859 405.705 183.756 406.322 183.63ZM137.195 183.036C137.793 182.379 149.92 180.829 154.132 180.871C155.776 180.887 158.018 181.08 159.113 181.299C160.984 181.673 160.878 181.719 157.37 182.045C155.315 182.236 150.72 182.529 147.158 182.695C143.596 182.86 139.785 183.128 138.689 183.29C137.318 183.492 136.852 183.413 137.195 183.036ZM313.541 182.948C314.792 182.379 320.294 182.364 323.255 182.921C324.932 183.237 323.865 183.351 319.02 183.372C314.993 183.39 312.921 183.23 313.541 182.948ZM17.14 182.604C16.318 182.501 14.4234 182.277 12.9296 182.104C7.63946 181.495 11.6246 180.957 18.1363 181.402C21.6981 181.645 25.3969 181.879 26.3558 181.922C27.9663 181.993 28.0043 182.031 26.854 182.421C25.6029 182.845 19.929 182.952 17.14 182.604ZM265.469 182.421C263.139 181.902 276.228 181.884 280.165 182.401C282.364 182.689 281.047 182.795 275.183 182.801C270.799 182.806 266.428 182.635 265.469 182.421ZM179.662 182.049C180.279 181.923 181.287 181.923 181.904 182.049C182.52 182.175 182.016 182.277 180.783 182.277C179.55 182.277 179.046 182.175 179.662 182.049ZM390.879 182.035C392.043 181.924 393.949 181.924 395.113 182.035C396.278 182.146 395.325 182.237 392.996 182.237C390.667 182.237 389.715 182.146 390.879 182.035ZM191.914 181.297C193.039 180.605 203.105 180.627 204.754 181.325C205.586 181.678 203.712 181.832 198.468 181.845C192.918 181.857 191.232 181.717 191.914 181.297ZM0.950042 180.633C0.950042 179.686 3.17223 179.426 3.68988 180.313C3.85921 180.603 3.66662 180.84 3.26187 180.84C2.85713 180.84 2.1714 180.984 1.73801 181.16C1.22094 181.37 0.950042 181.188 0.950042 180.633ZM76.1711 180.391C75.3188 180.11 76.6492 179.873 80.3858 179.643C85.6219 179.319 86.6603 179.405 85.9978 180.106C85.5178 180.613 77.5464 180.845 76.1711 180.391ZM280.663 180.313C281.211 180.064 282.219 179.847 282.904 179.831C283.886 179.808 283.991 179.91 283.403 180.313C282.992 180.594 281.983 180.811 281.161 180.795C279.878 180.77 279.807 180.702 280.663 180.313ZM440.445 180.454C439.281 180.343 438.328 180.029 438.328 179.755C438.328 179.169 441.912 179.122 447.793 179.632C450.969 179.908 451.654 180.089 450.533 180.358C448.94 180.739 443.935 180.786 440.445 180.454ZM295.745 179.926C296.917 179.815 298.71 179.816 299.73 179.93C300.75 180.043 299.792 180.134 297.6 180.132C295.408 180.13 294.573 180.037 295.745 179.926ZM490.011 179.964C490.354 179.817 490.914 179.817 491.257 179.964C491.599 180.11 491.319 180.23 490.634 180.23C489.949 180.23 489.669 180.11 490.011 179.964ZM15.7508 179.292C14.1648 179.058 12.7485 178.741 12.6034 178.587C12.077 178.03 21.9774 177.562 26.2293 177.943C29.7944 178.262 30.3629 178.426 29.3447 178.841C27.6436 179.535 19.2795 179.812 15.7508 179.292ZM98.4634 179.414C99.0799 179.288 100.089 179.288 100.705 179.414C101.322 179.539 100.817 179.642 99.5843 179.642C98.3513 179.642 97.8469 179.539 98.4634 179.414ZM324.5 179.229C320.938 179.022 306.143 178.821 291.622 178.783C266.979 178.72 260.317 178.374 266.304 177.468C274.361 176.249 276.516 176.176 282.978 176.905C286.636 177.318 294.673 177.665 300.838 177.676C314.89 177.7 333.661 178.537 335.252 179.209C336.682 179.815 334.601 179.819 324.5 179.229ZM359.685 179.128C362.117 178.803 365.797 178.801 369.897 179.123L376.308 179.626L366.096 179.631C357.255 179.636 356.394 179.568 359.685 179.128ZM467.345 179.402C468.373 179.288 470.054 179.288 471.082 179.402C472.109 179.515 471.268 179.608 469.213 179.608C467.159 179.608 466.318 179.515 467.345 179.402ZM168.329 178.746C164.859 178.463 165.705 178.383 173.02 178.303C177.929 178.249 181.852 178.293 181.738 178.401C181.277 178.838 172.294 179.069 168.329 178.746ZM49.769 178.188C47.7141 177.983 43.6791 177.752 40.8022 177.674C37.9254 177.597 36.1321 177.427 36.817 177.297C37.502 177.167 38.2866 176.827 38.5606 176.542C38.8875 176.201 37.3466 176.171 34.0772 176.452C31.3373 176.688 28.199 176.856 27.1031 176.825C26.0071 176.795 19.6744 176.701 13.0302 176.617L0.950042 176.465V175.146V173.827L7.66885 174.184C12.8237 174.458 15.1308 174.358 17.5801 173.757C22.1361 172.639 26.7105 172.295 29.5938 172.854L32.0846 173.337L29.0957 173.415C26.3501 173.488 26.1857 173.557 27.0762 174.27C27.8093 174.857 29.3881 175.027 33.5522 174.97C36.5808 174.928 40.8521 175.165 43.0439 175.496C45.2358 175.828 52.2971 176.332 58.7357 176.617C70.7957 177.151 73.3081 177.461 72.1034 178.269C71.3265 178.791 55.2164 178.732 49.769 178.188ZM199.713 176.858C196.014 176.486 192.876 176.156 192.739 176.123C192.602 176.091 192.894 175.815 193.387 175.512C194.426 174.872 215.582 176.44 216.376 177.215C217.044 177.867 207.771 177.668 199.713 176.858ZM87.6286 176.594C85.2997 176.378 80.5922 176.157 77.1674 176.103C67.965 175.959 71.585 175.258 85.4899 174.492C93.3271 174.061 100.971 173.98 108.053 174.255C121.128 174.762 119.93 174.76 127.481 174.284C132.264 173.981 134.805 174.084 138.44 174.727C141.043 175.188 144.069 175.598 145.165 175.638C146.473 175.687 145.873 175.864 143.422 176.155C141.245 176.413 137.398 176.384 134.206 176.085C126.17 175.333 112.194 175.465 105.064 176.36C98.4921 177.184 94.5575 177.237 87.6286 176.594ZM334.214 176.851C334.899 176.73 341.972 176.161 349.931 175.586C361.018 174.786 365.737 174.652 370.107 175.016C373.243 175.277 385.662 175.627 397.704 175.794C411.232 175.981 419.788 176.298 420.096 176.623C420.878 177.451 392.16 177.262 377.399 176.343C367.362 175.718 363.047 175.665 357.722 176.103C350.911 176.662 331.857 177.269 334.214 176.851ZM430.358 176.642C428.309 176.412 431.678 176.245 439.532 176.187C446.359 176.137 451.851 176.185 451.737 176.293C451.307 176.7 433.462 176.992 430.358 176.642ZM182.668 176.234C184.115 176.127 186.357 176.128 187.649 176.236C188.942 176.344 187.757 176.432 185.017 176.43C182.278 176.429 181.22 176.341 182.668 176.234ZM149.898 175.02C153.937 174.429 158.264 174.44 158.615 175.042C158.815 175.383 156.853 175.543 153.041 175.494C148.096 175.432 147.595 175.357 149.898 175.02ZM45.0365 174.255L39.5569 173.62L44.2893 173.571C48.1379 173.531 54.578 174.23 52.425 174.454C52.105 174.487 51.5446 174.599 51.1797 174.702C50.8148 174.805 48.0504 174.603 45.0365 174.255ZM253.449 174.798C253.288 174.628 247.702 174.37 241.035 174.225C234.369 174.081 228.808 173.85 228.677 173.712C228.547 173.574 229.99 173.463 231.885 173.467C233.78 173.47 238.038 173.198 241.346 172.862C246.558 172.332 247.847 172.367 250.997 173.119C252.996 173.597 256.211 173.988 258.141 173.988C260.071 173.988 261.556 174.077 261.442 174.187C261.061 174.554 253.747 175.113 253.449 174.798ZM201.706 173.9C199.377 173.64 195.783 173.566 193.721 173.734C191.475 173.917 189.476 173.813 188.739 173.473C187.3 172.811 206.914 173.244 210.672 173.957C212.782 174.358 212.708 174.382 209.427 174.377C207.509 174.374 204.034 174.159 201.706 173.9ZM456.76 173.961C455.527 173.729 449.754 173.521 443.932 173.5C437.232 173.475 433.346 173.267 433.346 172.933C433.346 171.735 464.826 172.618 470.195 173.967C472.528 174.553 459.875 174.547 456.76 173.961ZM67.7025 173.529L65.4608 173.177L67.2043 172.812C74.0459 171.381 93.5296 171.103 96.8182 172.39C97.3658 172.605 93.0003 172.938 87.117 173.13C81.2338 173.322 74.9631 173.57 73.1822 173.681C71.4013 173.792 68.9354 173.723 67.7025 173.529ZM141.429 172.933C143.264 172.312 149.4 172.312 149.4 172.933C149.4 173.251 147.565 173.44 144.792 173.408C141.718 173.373 140.598 173.215 141.429 172.933ZM59.8566 172.556C60.61 172.435 61.843 172.435 62.5964 172.556C63.3499 172.677 62.7334 172.776 61.2265 172.776C59.7196 172.776 59.1031 172.677 59.8566 172.556ZM39.6814 171.718C36.9536 171.093 36.576 170.476 38.9342 170.497C39.8246 170.505 45.9137 170.215 52.4655 169.852C69.9321 168.883 91.433 169.084 90.3728 170.206C89.9167 170.688 74.1949 170.696 74.4768 170.213C74.9195 169.455 70.6947 169.72 60.5283 171.088C50.3853 172.453 43.7582 172.654 39.6814 171.718ZM173.311 172.058C173.311 171.815 168.66 171.688 162.975 171.777C157.289 171.866 151.405 171.699 149.898 171.407C147.49 170.939 147.851 170.896 152.887 171.047C156.037 171.142 162.147 170.902 166.463 170.513C174.091 169.825 176.089 169.906 175.52 170.88C175.368 171.141 176.852 171.352 178.844 171.352C180.824 171.352 182.35 171.442 182.236 171.552C181.781 171.991 173.311 172.471 173.311 172.058ZM217.731 171.419C216.248 170.424 223.454 169.938 229.083 170.653C231.075 170.906 231.541 171.106 230.827 171.402C229.489 171.955 218.552 171.969 217.731 171.419ZM311.299 171.367C310.791 171.009 313.961 170.839 321.221 170.833C327.088 170.829 331.781 170.94 331.648 171.081C331.141 171.617 312.038 171.886 311.299 171.367ZM100.462 170.979C101.081 170.853 101.978 170.858 102.454 170.99C102.931 171.122 102.424 171.225 101.328 171.219C100.232 171.214 99.8422 171.105 100.462 170.979ZM249.944 170.363C250.31 170.118 252.439 169.911 254.676 169.903C258.624 169.889 258.663 169.901 256.004 170.305C252.179 170.886 249.121 170.915 249.944 170.363ZM290.128 170.274C293.869 169.657 300.754 169.674 299.842 170.298C299.431 170.579 296.516 170.781 293.366 170.747C288.686 170.696 288.093 170.609 290.128 170.274ZM366.843 170.246C359.92 169.483 360.151 169.311 367.839 169.505C371.949 169.609 375.872 169.933 376.557 170.226C377.563 170.656 377.131 170.751 374.315 170.722C372.397 170.701 369.035 170.487 366.843 170.246ZM384.278 170.322C375.595 169.143 397.441 168.487 411.428 169.507L418.651 170.033L413.42 170.364C406.707 170.79 387.522 170.762 384.278 170.322ZM442.687 170.439C443.851 170.328 445.757 170.328 446.921 170.439C448.086 170.55 447.133 170.641 444.804 170.641C442.475 170.641 441.522 170.55 442.687 170.439ZM483.66 170.302C482.153 170.067 477.963 169.852 474.349 169.823C467.525 169.769 465.124 169.057 470.093 168.561C473.597 168.211 491.997 169.181 493.374 169.787C494.172 170.139 494.012 170.234 492.572 170.262C491.582 170.282 489.789 170.395 488.586 170.513C487.384 170.632 485.167 170.537 483.66 170.302ZM195.75 169.797C195.277 169.48 197.056 169.254 200.857 169.146C204.065 169.055 206.689 169.123 206.688 169.298C206.687 169.606 200.393 170.306 197.77 170.29C197.058 170.285 196.149 170.064 195.75 169.797ZM140.567 169.406C141.051 169.272 141.724 169.281 142.061 169.425C142.399 169.57 142.002 169.679 141.18 169.668C140.358 169.658 140.082 169.539 140.567 169.406ZM213.661 168.717C214.648 168.042 220.49 168.042 220.884 168.717C221.08 169.052 219.688 169.241 217.053 169.236C214.197 169.23 213.146 169.069 213.661 168.717ZM262.48 168.669C264.094 168.184 268.965 168.19 272.443 168.68C274.437 168.962 273.284 169.064 268.209 169.055C264.373 169.048 261.795 168.874 262.48 168.669ZM14.8983 168.19C13.6843 167.778 13.6906 167.767 15.1474 167.754C15.9693 167.747 17.6506 167.931 18.8835 168.163L21.1252 168.585L18.6345 168.598C17.2645 168.605 15.5833 168.422 14.8983 168.19ZM279.168 168.226L277.674 167.86L279.304 167.454C281.4 166.93 285.634 167.605 284.15 168.226C282.958 168.724 281.204 168.724 279.168 168.226ZM338.199 168.265C336.642 167.931 336.829 167.851 339.943 167.517C344.514 167.027 349.654 167.095 350.902 167.663C351.61 167.984 351.018 168.126 348.858 168.153C347.186 168.173 344.496 168.291 342.88 168.414C341.265 168.538 339.158 168.47 338.199 168.265ZM435.09 168.177C432.076 167.988 424.567 167.538 418.402 167.176C412.237 166.814 406.409 166.339 405.45 166.12L403.706 165.722L405.948 165.051C407.727 164.519 409.695 164.505 415.478 164.985C419.487 165.317 427.557 165.577 433.412 165.562C447.086 165.527 471.722 166.715 467.47 167.204C465.826 167.393 460.166 167.574 454.892 167.605C448.867 167.641 445.302 167.858 445.302 168.19C445.302 168.742 444.069 168.741 435.09 168.177ZM177.794 167.689C177.794 167.402 180.994 167.121 185.292 167.03C193.129 166.865 196.201 167.234 192.025 167.84C188.339 168.374 177.794 168.263 177.794 167.689ZM41.674 167.291C42.2905 167.165 43.2992 167.165 43.9157 167.291C44.5322 167.416 44.0278 167.519 42.7949 167.519C41.5619 167.519 41.0576 167.416 41.674 167.291ZM47.1595 166.763C47.7792 166.637 48.6758 166.641 49.1521 166.774C49.6284 166.905 49.1214 167.009 48.0255 167.003C46.9295 166.997 46.5398 166.889 47.1595 166.763ZM52.4733 166.669C52.9225 165.9 56.9655 165.478 59.8093 165.902L62.4719 166.3L60.2302 166.679C57.009 167.223 52.1534 167.217 52.4733 166.669ZM224.529 166.113C220.232 165.94 216.533 165.602 216.309 165.36C215.849 164.863 232.14 165.477 235.58 166.087L237.822 166.484L235.082 166.456C233.575 166.44 228.826 166.286 224.529 166.113ZM298.481 166.243C298.966 166.109 299.638 166.118 299.976 166.263C300.313 166.407 299.916 166.517 299.094 166.506C298.272 166.495 297.996 166.377 298.481 166.243ZM105.562 165.508C103.781 165.226 101.253 165.129 99.9446 165.294C98.3143 165.5 97.2516 165.362 96.5698 164.857C94.9858 163.683 127.607 163.278 139.855 164.319C144.88 164.747 149.405 165.259 149.911 165.457C150.416 165.655 147.453 165.867 143.325 165.928C137.511 166.013 135.499 165.862 134.393 165.257C133.226 164.618 132.4 164.579 129.85 165.04C125.53 165.823 109.488 166.132 105.562 165.508ZM172.688 165.732C173.031 165.586 173.591 165.586 173.934 165.732C174.276 165.878 173.996 165.998 173.311 165.998C172.626 165.998 172.346 165.878 172.688 165.732ZM280.295 165.708C280.915 165.582 281.811 165.587 282.288 165.719C282.764 165.851 282.257 165.954 281.161 165.949C280.065 165.943 279.675 165.835 280.295 165.708ZM29.2611 165.069C26.3383 164.901 23.8143 164.623 23.6523 164.451C23.2703 164.046 37.9599 163.436 46.9842 163.482C55.2562 163.524 54.7672 164.133 45.7838 164.978C39.3656 165.581 38.2703 165.587 29.2611 165.069ZM190.248 165.106C185.711 164.539 188.966 164.024 198.966 163.726C207.226 163.481 207.764 163.519 205.794 164.216C203.326 165.09 194.265 165.608 190.248 165.106ZM16.0192 164.65C16.7726 164.529 18.0055 164.529 18.759 164.65C19.5125 164.77 18.896 164.869 17.3891 164.869C15.8822 164.869 15.2657 164.77 16.0192 164.65ZM62.4719 164.5L59.9811 164.139L62.2228 164.064C63.4557 164.023 64.8007 164.219 65.2117 164.5C65.6227 164.781 65.7348 164.977 65.4608 164.936C65.1868 164.895 63.8418 164.699 62.4719 164.5ZM164.724 164.654C165.343 164.528 166.24 164.533 166.716 164.665C167.192 164.797 166.685 164.9 165.589 164.894C164.494 164.889 164.104 164.78 164.724 164.654ZM262.863 164.645C263.758 164.528 265.103 164.53 265.852 164.651C266.6 164.771 265.866 164.867 264.224 164.864C262.58 164.861 261.967 164.763 262.863 164.645ZM312.794 164.5C314.523 163.914 324.295 163.914 323.006 164.5C322.458 164.749 319.656 164.946 316.779 164.938C313.436 164.928 311.998 164.77 312.794 164.5ZM78.9109 163.97C80.8325 163.523 90.999 163.239 90.576 163.645C90.4619 163.754 87.3422 163.977 83.6434 164.139C79.2438 164.332 77.6073 164.274 78.9109 163.97ZM241.558 163.946C242.791 163.714 245.144 163.536 246.788 163.551L249.777 163.578L247.536 164C246.303 164.232 243.949 164.41 242.305 164.395L239.316 164.368L241.558 163.946ZM340.69 163.973C340.69 163.683 341.587 163.446 342.683 163.446C343.779 163.446 344.675 163.683 344.675 163.973C344.675 164.263 343.779 164.5 342.683 164.5C341.587 164.5 340.69 164.263 340.69 163.973ZM367.59 163.907C371.296 163.424 389.149 163.442 392.249 163.931C393.638 164.15 388.128 164.311 379.795 164.294C371.576 164.277 366.083 164.103 367.59 163.907ZM58.4867 162.605L53.5051 161.921L58.4867 162.153C61.2265 162.282 65.7099 162.417 68.4497 162.455C72.6065 162.512 73.0601 162.594 71.1896 162.946C68.1423 163.519 64.413 163.419 58.4867 162.605ZM211.793 163.083C212.273 162.95 213.057 162.95 213.537 163.083C214.016 163.215 213.624 163.324 212.665 163.324C211.706 163.324 211.314 163.215 211.793 163.083ZM292.12 163.058C291.572 162.911 290.563 162.542 289.879 162.236C288.719 161.718 288.804 161.653 291.124 161.291C294.528 160.761 302.304 160.813 303.827 161.377C304.596 161.661 302.929 161.725 299.468 161.543C295.799 161.351 293.864 161.435 293.864 161.788C293.864 162.085 294.929 162.479 296.23 162.665C297.531 162.85 298.82 163.083 299.094 163.182C299.891 163.471 293.221 163.352 292.12 163.058ZM7.92418 162.378C6.69125 162.145 4.61769 161.801 3.31627 161.614C1.73904 161.387 0.950042 161.02 0.950042 160.515C0.950042 159.557 1.90224 159.563 6.75951 160.549C12.2911 161.672 23.7524 161.641 28.8159 160.49C32.6141 159.626 33.2517 159.63 42.6532 160.583C51.7944 161.508 52.3163 161.616 49.8525 162.068C48.0619 162.396 45.1398 162.333 40.8858 161.875C35.3894 161.283 33.7575 161.307 28.2357 162.057C21.6421 162.953 11.7958 163.109 7.92418 162.378ZM357.01 162.546C357.63 162.42 358.527 162.425 359.003 162.557C359.479 162.689 358.972 162.792 357.876 162.786C356.78 162.78 356.391 162.672 357.01 162.546ZM478.007 162.524C477.88 162.306 478.932 162.196 480.344 162.279C484.925 162.548 485.482 162.759 481.821 162.84C479.851 162.883 478.135 162.741 478.007 162.524ZM80.0265 161.722C81.7649 161.368 84.0106 161.365 86.7515 161.713L90.8666 162.234L84.1415 162.244C78.2454 162.252 77.7382 162.188 80.0265 161.722ZM155.511 162.026C155.996 161.893 156.669 161.902 157.006 162.046C157.343 162.191 156.947 162.3 156.125 162.289C155.303 162.278 155.027 162.16 155.511 162.026ZM180.783 161.865C181.194 161.584 183.996 161.354 187.01 161.354C190.73 161.354 192.25 161.518 191.742 161.865C191.331 162.146 188.529 162.376 185.516 162.376C181.796 162.376 180.276 162.211 180.783 161.865ZM449.169 162.019C449.788 161.893 450.685 161.898 451.161 162.03C451.638 162.162 451.13 162.265 450.035 162.259C448.939 162.253 448.549 162.145 449.169 162.019ZM144.543 161.487C145.296 161.366 146.529 161.366 147.282 161.487C148.036 161.608 147.419 161.707 145.912 161.707C144.406 161.707 143.789 161.608 144.543 161.487ZM230.505 161.505C230.865 161.352 231.294 161.371 231.46 161.546C231.625 161.721 231.331 161.846 230.806 161.823C230.226 161.798 230.108 161.673 230.505 161.505ZM370.081 161.487C370.081 160.867 374.754 160.283 379.719 160.283C385.41 160.283 382.953 161.227 376.183 161.641C372.215 161.883 370.081 161.83 370.081 161.487ZM398.019 161.673C398.593 161.141 403.457 160.826 403.457 161.319C403.457 161.631 402.247 161.865 400.634 161.865C399.082 161.865 397.905 161.778 398.019 161.673ZM66.5948 160.951C67.7665 160.84 69.5598 160.841 70.58 160.954C71.6002 161.068 70.6416 161.159 68.4497 161.157C66.2579 161.155 65.4231 161.062 66.5948 160.951ZM120.909 160.61C118.802 160.271 116.915 159.822 116.717 159.611C116.231 159.098 142.906 159.193 144.155 159.709C145.698 160.348 136.99 161.346 130.436 161.282C127.304 161.252 123.017 160.949 120.909 160.61ZM170.453 160.959C171.211 160.838 172.331 160.841 172.944 160.966C173.557 161.092 172.937 161.191 171.567 161.187C170.197 161.183 169.696 161.08 170.453 160.959ZM211.17 160.309C211.17 160.029 213.309 159.795 216.027 159.779C218.699 159.762 223.855 159.637 227.485 159.499C234.248 159.243 236.511 159.865 231.023 160.472C226.228 161.002 211.17 160.879 211.17 160.309ZM258.376 160.438C258.996 160.312 259.893 160.316 260.369 160.448C260.845 160.58 260.338 160.684 259.242 160.678C258.146 160.672 257.757 160.564 258.376 160.438ZM412.175 160.283C412.546 159.649 416.259 159.649 417.655 160.283C418.347 160.598 417.616 160.748 415.259 160.773C413.116 160.797 411.98 160.616 412.175 160.283ZM10.664 159.756C7.0348 159.23 9.48442 159.006 19.1326 158.984C23.5164 158.974 27.6635 158.776 28.3484 158.545C29.2084 158.255 29.3617 158.281 28.8439 158.631C26.8731 159.961 16.5019 160.603 10.664 159.756ZM86.7568 159.906C87.5103 159.785 88.7432 159.785 89.4967 159.906C90.2501 160.027 89.6337 160.125 88.1267 160.125C86.6198 160.125 86.0034 160.027 86.7568 159.906ZM56.1263 159.383C56.7459 159.257 57.6426 159.262 58.1189 159.394C58.5951 159.526 58.0881 159.629 56.9922 159.624C55.8963 159.618 55.5066 159.51 56.1263 159.383ZM77.2919 159.372C78.3194 159.258 80.0006 159.258 81.0281 159.372C82.0555 159.486 81.2149 159.579 79.16 159.579C77.1051 159.579 76.2645 159.486 77.2919 159.372ZM202.453 159.229C204.666 158.633 206.189 158.633 206.189 159.229C206.189 159.521 205.024 159.728 203.574 159.694C201.338 159.64 201.175 159.573 202.453 159.229ZM310.427 159.381C305.283 159.275 301.834 158.998 301.834 158.69C301.834 158.406 303.347 158.168 305.197 158.159C307.046 158.15 312.034 158.055 316.281 157.947C325.735 157.708 341.026 158.204 340.112 158.721C339.246 159.211 321.436 159.607 310.427 159.381ZM436.22 159.374C437.115 159.257 438.46 159.259 439.209 159.38C439.957 159.5 439.223 159.596 437.581 159.593C435.937 159.59 435.324 159.491 436.22 159.374ZM458.503 159.229C459.051 158.98 461.069 158.791 462.987 158.809L466.474 158.843L463.983 159.253C460.449 159.836 457.201 159.821 458.503 159.229ZM42.7949 158.675C44.0278 158.443 46.0453 158.264 47.2782 158.276C49.3006 158.297 49.3737 158.339 48.0255 158.702C47.2035 158.923 45.186 159.103 43.5421 159.101L40.5532 159.097L42.7949 158.675ZM353.642 158.702C352.796 158.415 353.755 158.266 356.631 158.236C358.96 158.211 361.202 158.421 361.612 158.702C362.537 159.335 355.508 159.335 353.642 158.702ZM369.334 158.762C367.77 158.588 368.414 158.394 372.323 157.86C378.011 157.082 384.278 156.958 391.052 157.487L395.736 157.853L391.253 158.532C387.13 159.158 374.115 159.294 369.334 158.762ZM104.447 158.329C105.067 158.203 105.963 158.208 106.44 158.34C106.916 158.472 106.409 158.575 105.313 158.569C104.217 158.564 103.827 158.455 104.447 158.329ZM1.35479 157.815C1.71439 157.663 2.14405 157.681 2.30958 157.857C2.47512 158.032 2.1809 158.156 1.65576 158.133C1.07544 158.108 0.957398 157.983 1.35479 157.815ZM24.7368 157.826C25.0793 157.68 25.6397 157.68 25.9822 157.826C26.3247 157.972 26.0445 158.092 25.3595 158.092C24.6746 158.092 24.3943 157.972 24.7368 157.826ZM120.009 157.648C119.488 157.292 120.357 157.135 122.873 157.129C124.954 157.124 126.484 157.344 126.484 157.648C126.484 158.324 120.997 158.324 120.009 157.648ZM179.538 157.665C180.996 157.256 194.106 156.931 193.694 157.314C193.579 157.42 190.011 157.636 185.765 157.795C181.518 157.953 178.716 157.895 179.538 157.665ZM251.402 157.802C252.022 157.676 252.918 157.681 253.395 157.813C253.871 157.945 253.364 158.048 252.268 158.042C251.172 158.037 250.782 157.928 251.402 157.802ZM277.3 157.782C280.109 157.688 284.704 157.688 287.512 157.782C290.321 157.876 288.023 157.953 282.406 157.953C276.79 157.953 274.492 157.876 277.3 157.782ZM490.509 157.794C491.4 157.677 492.857 157.677 493.747 157.794C494.638 157.911 493.909 158.006 492.128 158.006C490.348 158.006 489.619 157.911 490.509 157.794ZM222.503 157.267C223.394 157.15 224.851 157.15 225.741 157.267C226.632 157.384 225.903 157.479 224.122 157.479C222.342 157.479 221.613 157.384 222.503 157.267Z" fill="#FDEBAD"/>
</svg>
