<?xml version="1.0" encoding="UTF-8" standalone="no"?>
<svg
   width="495.16397"
   height="76.56601"
   viewBox="0 0 495.16397 76.56601"
   fill="none"
   version="1.1"
   id="svg330"
   sodipodi:docname="water-reflex.svg"
   xmlns:inkscape="http://www.inkscape.org/namespaces/inkscape"
   xmlns:sodipodi="http://sodipodi.sourceforge.net/DTD/sodipodi-0.dtd"
   xmlns="http://www.w3.org/2000/svg"
   xmlns:svg="http://www.w3.org/2000/svg">
  <defs
     id="defs334" />
  <sodipodi:namedview
     id="namedview332"
     pagecolor="#ffffff"
     bordercolor="#000000"
     borderopacity="0.25"
     inkscape:showpageshadow="2"
     inkscape:pageopacity="0.0"
     inkscape:pagecheckerboard="0"
     inkscape:deskcolor="#d1d1d1"
     showgrid="false"
     inkscape:zoom="0.81148921"
     inkscape:cx="215.03675"
     inkscape:cy="212.57214"
     inkscape:window-width="1366"
     inkscape:window-height="651"
     inkscape:window-x="0"
     inkscape:window-y="32"
     inkscape:window-maximized="1"
     inkscape:current-layer="svg330" />
  <path
     d="m 0,72.558007 c 0,-3.894 0.03261499,-4.002 1.120848,-3.72 0.61646,0.16 3.58669,0.573 6.60052,0.918 8.27429,0.947 22.68999,0.304 36.12539,-1.611 11.8691,-1.692 21.9258,-2.064 28.5215,-1.055 8.2591,1.264 25.7556,6.223 29.665702,8.408 1.823,1.019 1.615,1.023 -50.101502,1.047 L 0,76.566007 Z m 156.37196,3.783 c -0.118,-0.124 -3.798,-0.597 -8.178,-1.051 -9.483,-0.981 -12.899,-1.663 -13.747,-2.744 -1.052,-1.342 0.182,-1.647 8.224,-2.037 12.032,-0.582 24.325,1.005 33.924,4.38 l 4.483,1.577 -12.246,0.051 c -6.735,0.028 -12.342,-0.052 -12.46,-0.176 z m 56.09,-1.179 c -5.278,-1.974 -11.009,-3.161 -21.171,-4.385 -5.069,-0.611 -13.812,-1.94 -19.428,-2.954 -10.151,-1.831 -16.298,-2.405 -35.867,-3.349 -5.617,-0.27 -13.911,-0.963 -18.432,-1.539 -4.521,-0.576 -12.815,-1.552 -18.432002,-2.169 -14.2252,-1.563 -17.1157,-2.037 -21.6692,-3.55 -4.8201,-1.602 -10.2122,-4.124 -10.2122,-4.777 0,-1.534 7.1211,-2.916 22.1858,-4.307 10.841602,-1.001 15.167602,-1.847 15.543602,-3.04 0.297,-0.941 -2.827,-1.541 -11.078202,-2.128 -12.6156,-0.897 -22.3189,0.158 -38.3577,4.17 -23.7578,5.942 -29.847,6.768 -42.7545,5.794 -4.70539,-0.354 -9.50798,-0.782 -10.67241,-0.949 L 0,51.675007 v -5.015 -5.015 l 2.107668,0.357 c 4.76922,0.807 28.91949,-1.872 33.19479,-3.682 4.7291,-2.002 1.3331,-2.747 -12.8856,-2.828 -8.8125,-0.05 -16.48173,-0.573 -20.79786,-1.419 L 0,33.756007 v -7.273 -7.273 l 4.358838,-0.35 c 2.39736,-0.193 7.94552,-0.946 12.32932,-1.675 8.1726,-1.357 19.1018,-2.159 21.3402,-1.564 0.7988,0.212 1.3146,0.765 1.4157,1.518 0.1533,1.142 0.3047,1.176 4.1443,0.922 2.1919,-0.145 11.9432,-0.226 21.6696,-0.181 13.7953,0.065 19.358,0.299 25.2943,1.063 6.8188,0.879 9.2927,1.685 6.7383,2.197 -1.8318,0.367 -6.6268,2.884 -6.6268,3.479 0,0.375 1.605,0.831 4.1098,1.167 3.2622,0.438 4.6654,0.922 6.804402,2.343 l 2.695,1.791 h 17.979 17.978 l -0.089,-1.415 c -0.103,-1.627 -0.01,-1.661 7.063,-2.565 6.254,-0.8 16.637,-0.673 21.67,0.264 2.329,0.434 6.812,1.269 9.963,1.855 6.951,1.295 9.506,2.134 14.411,4.735 5.49,2.911 11.628,4.153 30.173,6.105 9.821,1.033 15.692,0.464 15.692,-1.522 0,-1.965 1.362,-2.255 18.93,-4.034 11.256,-1.139 17.726,-2.201 18.519,-3.04 0.91,-0.963 -1.786,-2.318 -4.675,-2.35 -1.45,-0.015 -10.145,0.279 -19.324,0.655 -18.825,0.772 -25.187,0.498 -25.668,-1.106 -0.602,-2.007 -2.043,-2.212 -19.734,-2.802 -15.035,-0.503 -19.588,-0.943 -17.614,-1.705 1.997,-0.77 4.007,-2.173 4.131,-2.883 0.092,-0.522 -0.387,-1.071 -1.243,-1.426 -1.883,-0.779 -13.205,-2.733 -15.84,-2.733 -1.164,0 -2.874,-0.166 -3.798,-0.368 -1.384,-0.302 -0.625,-0.539 4.296,-1.342 5.233,-0.854 10.078,-1.005 38.856,-1.208 25.719,-0.182 35.048,-0.064 42.841,0.538 23.506,1.818 51.688,2.438 61.273,1.349 2.74,-0.311 9.408,-1.166 14.819,-1.9 19.545,-2.651 28.05,-2.592 40.725,0.284 11.18,2.536 19.119,4.072 27.206,5.263 4.079,0.601 9.545,1.576 12.148,2.168 9.162,2.082 14.315,2.574 27.399,2.616 6.986,0.022 15.729,0.229 19.427,0.46 5.989,0.373 6.998,0.578 9.216,1.87 l 2.491,1.451 8.609,-0.307 c 4.735,-0.169 9.61,-0.163 10.835,0.014 l 2.226,0.323 v 5.98 5.979 l -1.347,0.358 c -0.74,0.197 -6.176,0.08 -12.08,-0.259 -18.218,-1.047 -28.502,-0.665 -28.816,1.072 -0.223,1.235 0.921,1.758 7.163,3.277 8.51,2.071 16.307,2.952 26.138,2.952 h 8.942 v 9.487 c 0,5.219 -0.169,9.488 -0.375,9.488 -0.206,0 -2.728,-0.718 -5.604,-1.595 -16.858,-5.14 -18.454,-5.452 -28.145,-5.485 -4.931,-0.014 -12.889,0.036 -17.684,0.118 -6.123,0.104 -10.201,-0.098 -13.699,-0.682 -10.628,-1.774 -18.889,-2.909 -30.388,-4.176 -6.575,-0.725 -15.878,-1.963 -20.673,-2.751 -7.723,-1.27 -10.138,-1.435 -21.171,-1.45 -9.229,-0.012 -12.753,0.158 -13.607,0.659 -1.513,0.888 -0.883,1.695 2.538,3.253 1.807,0.824 5.865,1.648 13.31,2.704 5.891,0.836 14.073,2.093 18.183,2.794 4.11,0.701 10.969,1.762 15.242,2.358 4.274,0.596 9.934,1.678 12.579,2.405 2.644,0.726 6.919,1.901 9.5,2.61 6.195,1.703 13.623,2.84 20.965,3.207 6.361,0.319 9.7,0.713 30.883,3.649 7.398,1.025 16.364,2.19 19.926,2.587 5.622,0.628 -11.832,0.725 -132.259,0.742 l -138.736,0.017 z m 190.773,-2.995 c 2.027,-1.568 -0.033,-2.281 -11.687,-4.045 -8.896,-1.346 -22.118,-2.624 -27.118,-2.62 -9.506,0.007 -10.57,3.15 -1.706,5.039 9.635,2.052 38.465,3.21 40.511,1.626 z m -90.151,-1.064 c 0.902,-0.698 0.897,-0.741 -0.134,-1.325 -1.635,-0.926 -11.557,-1.865 -12.226,-1.158 -0.842,0.891 0.615,2.098 3.176,2.629 3.536,0.734 8.141,0.66 9.184,-0.146 z m 33.506,-6.136 c 1.438,-0.335 2.615,-0.819 2.615,-1.074 0,-0.666 -1.436,-1.359 -3.72,-1.796 -2.741,-0.525 -20.511,-0.357 -22.868,0.215 -4.195,1.02 -3.157,2.322 2.516,3.156 4.276,0.628 17.985,0.308 21.457,-0.501 z m -60.152,-4.415 c 2.185,-0.738 2.697,-2.702 0.893,-3.428 -2.163,-0.87 -10.556,-2.145 -17.83,-2.708 -3.973,-0.307 -10.925,-0.904 -15.45,-1.326 -4.524,-0.423 -11.537,-0.768 -15.583,-0.768 -6.171,0 -7.404,0.131 -7.651,0.813 -0.163,0.447 -0.157,0.96 0.012,1.139 0.552,0.584 10.488,2.199 22.081,3.59 6.248,0.75 13.714,1.815 16.591,2.368 8.348,1.604 12.882,1.69 16.937,0.32 z m 9.752,-10.389 c 12.117,-1.286 10.954,-3.705 -2.248,-4.678 -8.073,-0.595 -29.405,-1.456 -52.338,-2.113 -10.306,-0.295 -18.498,-0.784 -21.421,-1.279 -2.888,-0.489 -9.002,-0.86 -15.691,-0.952 -9.333,-0.129 -11.571,-0.003 -15.074,0.848 -2.263,0.55 -4.505,1.321 -4.982,1.713 -0.821,0.675 -0.817,0.754 0.061,1.474 0.77,0.63 2.691,0.708 11.209,0.456 14.431,-0.428 28.309,0.494 37.392,2.483 6.85,1.5 7.773,1.574 20.419,1.63 7.284,0.033 15.373,0.231 17.976,0.442 7.564,0.612 18.807,0.601 24.697,-0.021 z m -125.072,-0.478 c 1.962,-0.789 1.523,-2.714 -0.802,-3.517 -2.805,-0.97 -9.045,-1.752 -14.057,-1.762 -2.514,-0.005 -6.589,-0.36 -9.055,-0.788 -2.466,-0.429 -5.865,-0.781 -7.553,-0.782 -2.949,-0.002 -10.489,1.255 -11.043,1.841 -0.84,0.889 1.614,1.501 7.722,1.924 3.789,0.263 9.803,1.057 13.365,1.764 8.897,1.767 8.319,1.697 14.538,1.777 3.065,0.039 6.163,-0.166 6.885,-0.457 z m 252.476,-6.299 c 1.049,-0.253 2.043,-0.603 2.208,-0.778 0.939,-0.993 -1.576,-1.513 -9.178,-1.897 -4.613,-0.233 -14.625,-1.044 -22.247,-1.803 -13.829,-1.376 -24.997,-1.623 -24.997,-0.554 0,1.054 5.527,3.361 9.465,3.951 2.192,0.328 6.003,0.933 8.469,1.343 3.448,0.574 7.932,0.683 19.428,0.472 8.219,-0.15 15.803,-0.48 16.852,-0.734 z m -362.045602,-3.775 c 0.8007,-0.406 1.5378,-1.189 1.6381,-1.74 0.1734,-0.952 -0.0975,-0.986 -5.4736,-0.671 -9.1142,0.532 -13.7259,1.717 -11.8787,3.053 1.106,0.799 13.9033,0.277 15.7142,-0.642 z m 400.941602,-6.474 c 3.681,-1.628 2.561,-3.224 -2.619,-3.732 -1.823,-0.179 -6.228,-0.698 -9.79,-1.152 -8.358,-1.066 -20.295,-0.803 -21.501,0.473 -0.442,0.467 -0.683,1.181 -0.536,1.587 0.822,2.264 30.253,4.677 34.446,2.824 z m -110.529,-1.081 c 0.95,-0.42 1.727,-0.997 1.727,-1.282 0,-0.769 -1.195,-1.045 -6.974,-1.609 -2.877,-0.281 -7.908,-0.785 -11.18,-1.12 -7.718,-0.789 -17.214,0.352 -17.214,2.069 0,0.774 1.715,1.033 10.959,1.656 4.795,0.324 8.942,0.673 9.216,0.777 1.528,0.58 11.898,0.202 13.466,-0.491 z m 48.18,-0.917 c 6.539,-0.791 9.839,-1.397 9.839,-1.807 0,-0.339 -0.393,-0.777 -0.872,-0.973 -0.48,-0.196 -7.037,-0.339 -14.571,-0.319 -7.535,0.02 -16.042,-0.182 -18.905,-0.452 -3.469,-0.327 -5.523,-0.311 -6.156,0.047 -1.374,0.778 -0.503,1.423 3.194,2.362 10.146,2.578 14.206,2.746 27.471,1.142 z m -38.838,-7.361 c 1.002,-0.567 1.005,-0.607 0.101,-1.306 -0.968,-0.749 -10.287,-1.037 -12.573,-0.389 -1.426,0.404 -1.434,1.073 -0.016,1.548 3.791,1.273 10.362,1.351 12.488,0.147 z m -41.115,-1.305 c 1.669,-0.474 1.36,-1.141 -0.816,-1.761 -6.174,-1.759 -11.999,-2.762 -17.546,-3.02 -11.413,-0.532 -22.604,1.8 -18.502,3.855 0.48,0.24 6.813,0.573 14.073,0.74 7.261,0.166 15.107,0.348 17.435,0.403 2.329,0.055 4.739,-0.043 5.356,-0.217 z m -305.988902,41.833 c -3.2869,-0.26 -6.08252,-0.585 -6.21251,-0.723 -0.50987,-0.539 1.33881,-1.202 4.20221,-1.507 5.9002,-0.628 17.584,-1.385 25.6708,-1.662 6.8499,-0.234 8.3855,-0.149 9.2153,0.514 0.9788,0.782 0.9746,0.8 -0.2491,1.089 -3.0994,0.73 -13.2226,1.935 -18.4311,2.194 -3.1508,0.156 -6.2891,0.348 -6.9741,0.426 -0.685,0.077 -3.9346,-0.071 -7.2215,-0.331 z m 142.718902,-44.626 c 0,-0.686 5.124,-1.289 6.547,-0.771 0.997,0.363 0.797,0.484 -1.316,0.798 -3.616,0.537 -5.231,0.529 -5.231,-0.027 z m 286.936,-1.171 c -9.705,-0.948 -15.443,-2.464 -15.443,-4.081 0,-0.636 3.13,-1.098 7.473,-1.104 6.56,-0.007 29.739,2.846 32.627,4.019 0.973,0.395 0.955,1.049 -0.039,1.452 -1.144,0.465 -19.068,0.257 -24.618,-0.286 z m -316.327,-0.959 c -6.914,-0.82 -12.454,-1.748 -12.454,-2.087 0,-0.513 11.755,-1.659 20.427,-1.991 10.668,-0.409 31.038,0.947 30.043,1.999 -1.446,1.53 -29.639,3.071 -38.016,2.079 z M 0,13.421007 c 0,-2.031 0.09986799,-2.182 1.618998,-2.455 0.89045,-0.16 4.64527,-0.867 8.34406,-1.5719997 12.8408,-2.446 24.0488,-2.92 31.8846,-1.347 5.2057,1.044 4.4423,1.391 -7.07,3.2089997 -5.2915,0.836 -12.5351,2 -16.0969,2.588 -3.5618,0.588 -9.2221,1.22 -12.57839,1.405 L 0,15.586007 Z m 414.21396,-1.778 c -2.466,-0.201 -10.312,-0.62 -17.435,-0.932 -11.279,-0.495 -19.188,-1.4439997 -20.105,-2.4139997 -0.793,-0.839 2.332,-0.901 19.235,-0.382 15.542,0.477 19.358,0.744 22,1.54 5.894,1.7749997 4.121,2.8249997 -3.695,2.1879997 z M 0,4.8750073 V 7.3242188e-6 L 6.351448,0.27700732 c 6.42241,0.28 9.35411,0.94099998 10.42701,2.35299998 0.9649,1.27 0.2203,2.16 -2.5013,2.99 -3.8812,1.184 -11.88783,3.525 -13.15631,3.846 C 0.01991299,9.7450073 0,9.6640073 0,4.8750073 Z"
     fill="#fdebad"
     id="path328"
     style="display:inline"
     sodipodi:nodetypes="scccccccssccccccsccccsccssccccccccccccccccccsscccscccccccccccscccccccccscccccccccccscccccccccsscssccccccccccscccccccccccccccccccsscccsccccsccccccscscccccsccccccscccccccccscsccccccccccccccccsccscsccscsccccccccccccccscscccscccssccscscccccscccsscccsccssccccsscccccs" />
</svg>
