<?xml version="1.0" encoding="UTF-8" standalone="no"?>
<svg
   width="497"
   height="420"
   viewBox="0 0 497 420"
   fill="none"
   version="1.1"
   id="svg330"
   sodipodi:docname="water-reflex.svg"
   inkscape:version="1.2.2 (b0a8486541, 2022-12-01)"
   xmlns:inkscape="http://www.inkscape.org/namespaces/inkscape"
   xmlns:sodipodi="http://sodipodi.sourceforge.net/DTD/sodipodi-0.dtd"
   xmlns="http://www.w3.org/2000/svg"
   xmlns:svg="http://www.w3.org/2000/svg">
  <defs
     id="defs334" />
  <sodipodi:namedview
     id="namedview332"
     pagecolor="#ffffff"
     bordercolor="#000000"
     borderopacity="0.25"
     inkscape:showpageshadow="2"
     inkscape:pageopacity="0.0"
     inkscape:pagecheckerboard="0"
     inkscape:deskcolor="#d1d1d1"
     showgrid="false"
     inkscape:zoom="0.57380952"
     inkscape:cx="154.23237"
     inkscape:cy="253.56846"
     inkscape:window-width="1366"
     inkscape:window-height="651"
     inkscape:window-x="0"
     inkscape:window-y="32"
     inkscape:window-maximized="1"
     inkscape:current-layer="svg330" />
  <rect
     style="opacity:0.958426;fill:#173165;stroke:#173165;stroke-width:6.09638;stroke-linecap:square;stroke-linejoin:round;paint-order:stroke markers fill"
     id="rect904"
     width="546.91101"
     height="457.6777"
     x="-23.648693"
     y="-14.358458" />
  <path
     d="m 203.03605,195.58879 c 5.77,-0.858 10.168,-0.66 12.703,0.574 m 37.525,0.189 c -6.469,-0.733 -11.923,-1.438 -12.12,-1.566 -0.196,-0.129 -3.246,-0.601 -6.778,-1.049 -3.532,-0.449 -7.095,-0.976 -7.916,-1.172 -1.44,-0.343 -1.412,-0.37 0.747,-0.741 1.233,-0.213 4.259,-0.427 6.725,-0.478 4.611,-0.094 7.34,-0.576 6.471,-1.144 -0.498,-0.325 -25.182,0.378 -37.606,1.071 -6.25,0.349 -8.966,0.044 -8.966,-1.006 0,-0.8 4.226,-0.924 27.398,-0.802 23.244,0.122 33.654,0.563 34.17,1.448 0.144,0.246 0.025,0.447 -0.266,0.447 -0.29,0 -0.528,0.266 -0.528,0.591 0,0.424 2.215,0.507 7.846,0.293 4.315,-0.164 7.398,-0.178 6.85,-0.033 -0.548,0.146 -1.333,0.429 -1.744,0.629 -0.411,0.201 8.265,0.483 19.279,0.628 14.739,0.194 20.186,0.433 20.63,0.903 0.472,0.5 0.154,0.715 -1.47,0.99 -3.28,0.555 -2.417,1.27 1.538,1.273 m -173.759,0.457 m -24.879,-0.666 3.985,-0.295 -4.551,0.996 m 346.283,-0.495 c 0.446,-0.763 6.339,-0.649 15.723,0.303 m -33.407,-0.306 c -3.749,-0.292 -3.379,-0.341 3.238,-0.42 4.977,-0.06 7.223,0.08 6.725,0.42 -0.789,0.54 -3.05,0.54 -9.963,0 z m -37.361,-1.266 c -3.699,-0.318 -6.483,-0.745 -6.187,-0.95 0.847,-0.584 20.294,0.022 26.362,0.825 l 5.479,0.723 -9.465,-0.009 c -5.205,-0.005 -12.491,-0.271 -16.189,-0.589 z m -382.083502,-0.594 c -2.0215,-0.53 -3.5234,-0.588 -5.7287,-0.223 -1.6439,0.273 -5.0624996,0.498 -7.5968496,0.5 l -4.60790798,0.005 v -2.321 -2.322 l 2.36622798,-0.029 c 1.30142,-0.017 5.27904,-0.395 8.8391296,-0.842 8.5039,-1.066 11.9127,-1.077 11.5356,-0.037 -0.1543,0.425 -0.0101,0.959 0.3204,1.186 0.3305,0.226 11.2489,0.412 24.2631,0.412 16.9202,0 24.8688,0.195 27.8966,0.686 2.3288,0.377 7.1485,0.894 10.7103,1.15 4.7277,0.34 1.7691,0.398 -10.9594,0.218 -15.1328,-0.215 -19.8694,-0.072 -35.867,1.088 -10.1374,0.735 -18.4316,1.316 -18.4316,1.292 0,-0.021 -1.233,-0.368 -2.7399,-0.763 z m 77.7118,0.303 c 0.959,-0.265 5.217702,-0.604 9.464702,-0.754 4.951,-0.175 6.917,-0.111 5.48,0.178 -3.225,0.648 -17.148802,1.185 -14.944702,0.576 z m 377.303702,-0.329 c -1.344,-0.366 -3.064,-0.916 -3.822,-1.223 -0.758,-0.307 -3.448,-0.823 -5.978,-1.147 -2.53,-0.324 -6.281,-1.155 -8.336,-1.848 -2.055,-0.693 -4.253,-1.262 -4.886,-1.266 -0.633,-0.005 -1.022,-0.226 -0.865,-0.495 0.159,-0.273 2.53,-0.386 5.384,-0.256 12.689,0.578 26.299,1.403 29.26,1.775 3.162,0.397 3.117,0.408 -1.909,0.478 -3.873,0.055 -5.097,0.236 -4.942,0.731 0.15,0.479 2.655,0.747 9.133,0.978 4.91,0.175 8.983,0.352 9.051,0.395 0.069,0.042 0.125,0.409 0.125,0.814 0,0.739 -0.356,0.773 -16.237,1.555 -1.944,0.096 -4.634,-0.125 -5.978,-0.491 z m -288.134,-0.22 c 0,-0.318 1.828,-0.502 4.608,-0.465 3.189,0.044 4.148,0.187 3.113,0.465 -2.255,0.607 -7.721,0.607 -7.721,0 z m 176.097,-0.527 c -0.548,-0.249 -1.725,-0.47 -2.616,-0.49 -0.89,-0.019 -1.619,-0.253 -1.619,-0.517 0,-0.761 5.811,-0.893 10.711,-0.243 5.452,0.723 5.139,0.631 4.234,1.25 -0.916,0.626 -9.333,0.626 -10.71,0 z m -218.44,-1.008 c -1.056,-0.319 -0.875,-0.431 1.19,-0.738 3.069,-0.457 6.242,-0.408 7.506,0.116 1.951,0.807 -6.161,1.387 -8.696,0.622 z m 23.537,-1.804 c -6.58,-1.132 -2.252,-1.96 9.784,-1.87 4.551,0.034 9.732,0.216 11.512,0.404 2.96,0.313 3.089,0.375 1.495,0.722 -2.803,0.609 -12.919,1.446 -16.439,1.359 -1.781,-0.043 -4.639,-0.32 -6.352,-0.615 z m 233.011,0.177 c -1.728,-0.385 -1.723,-0.389 0.498,-0.412 1.233,-0.012 3.363,0.162 4.733,0.387 l 2.491,0.411 -2.989,0.001 c -1.644,0 -3.774,-0.174 -4.733,-0.387 z m -305.740902,-0.32 c 0.4795,-0.156 0.8718,-0.505 0.8718,-0.773 0,-0.28 -3.5645,-0.495 -8.3441,-0.505 -9.3229,-0.016 -9.7136,-0.487 -1.4794,-1.778 7.669,-1.201 16.149602,-1.113 20.533602,0.213 2.655,0.803 4.977,1.054 9.756,1.054 3.449,0 8.382,0.335 10.961,0.745 3.474,0.552 6.045,0.626 9.92,0.286 2.876,-0.252 6.015,-0.442 6.974,-0.423 1.689,0.034 1.673,0.051 -0.498,0.556 -2.519,0.586 -18.062,0.815 -28.644,0.422 -3.836,-0.142 -10.113,-0.09 -13.949002,0.115 -3.8353,0.206 -6.5814,0.245 -6.1019,0.088 z m 341.109902,-0.171 c 0,-0.274 1.982,-0.449 4.481,-0.395 2.464,0.052 4.482,0.273 4.483,0.49 0.002,0.218 -2.015,0.396 -4.481,0.396 -2.465,0 -4.483,-0.221 -4.483,-0.491 z m -63.265,-0.511 c -1.647,-0.232 -2,-0.421 -1.329,-0.711 1.145,-0.497 15.563,-0.522 17.83,-0.032 1.623,0.351 1.638,0.377 0.436,0.738 -1.492,0.449 -13.767,0.453 -16.937,0.005 z m 47.2,0.083 c 2.26,-0.098 5.959,-0.098 8.219,0 2.261,0.097 0.411,0.177 -4.11,0.177 -4.52,0 -6.37,-0.08 -4.109,-0.177 z m -74.599,-0.662 c 0.411,-0.282 2.317,-0.485 4.235,-0.454 3.349,0.056 3.398,0.075 1.245,0.48 -3.313,0.624 -6.409,0.609 -5.48,-0.026 z m -15.924,-0.506 c 0.42,-0.26 2.438,-0.508 4.483,-0.549 4.543,-0.094 5.156,0.006 3.222,0.527 -2.186,0.589 -8.649,0.607 -7.705,0.022 z m -173.374,-1.076 c 0.685,-0.232 4.048,-0.409 7.473,-0.394 5.33,0.024 5.761,0.083 2.989,0.413 -4.508,0.536 -12.059,0.523 -10.462,-0.019 z m 237.121,-0.022 c -0.717,-0.256 1.821,-0.317 5.978,-0.143 3.973,0.166 7.316,0.39 7.431,0.497 0.43,0.405 -12.219,0.07 -13.409,-0.354 z m -387.8118116,-0.505 c -0.19448,-0.333 0.94146,-0.513 3.08405,-0.49 2.35706,0.026 3.08796,0.175 2.39566,0.49 -1.39533,0.634 -5.10915,0.634 -5.47971,0 z m 66.2543096,-0.527 c 0.5479,-0.249 1.7248,-0.47 2.6153,-0.49 0.8904,-0.02 1.619,-0.244 1.619,-0.497 0,-0.954 -4.0555,-1.084 -9.7717,-0.313 -5.4508,0.736 -26.7808,1.591 -24.2272,0.971 0.6164,-0.149 1.1208,-0.52 1.1208,-0.824 0,-0.367 -1.3847,-0.446 -4.1098,-0.237 -8.3906,0.646 -24.6383,0.895 -27.7719996,0.427 -3.93412,-0.589 -4.12815,-0.577 14.1973996,-0.846 7.3976,-0.109 15.0879,-0.459 17.0897,-0.778 2.4686,-0.393 4.9723,-0.42 7.7813,-0.082 4.3859,0.527 4.6813,0.494 9.7476,-1.101 3.6403,-1.147 13.2106,-1.966 11.9587,-1.025 -0.411,0.309 -1.1263,0.566 -1.5896,0.57 -0.4633,0.005 -0.9879,0.257 -1.1657,0.562 -0.2239,0.383 2.1803,0.447 7.8165,0.209 5.2477,-0.222 8.5823,-0.149 9.3852,0.204 1.1955,0.526 1.2011,0.549 0.1389,0.581 -0.6086,0.018 -2.9493,0.745 -5.2015,1.615 -3.0729,1.186 -4.9102,1.572 -7.362,1.544 -2.2871,-0.026 -2.9683,-0.173 -2.2709,-0.49 z m 62.518502,-0.993 c 0,-0.719 6.101,-1.242 9.714,-0.832 5.371,0.608 3.651,1.298 -3.238,1.298 -3.562,0 -6.476,-0.21 -6.476,-0.466 z m 175.236,0.17 c -0.154,-0.163 -5.852,-0.471 -12.662,-0.685 -10.307,-0.324 -12.146,-0.495 -10.979,-1.022 2.556,-1.153 32.799,-0.642 45.175,0.763 2.737,0.311 3.007,0.426 1.743,0.741 -1.781,0.446 -22.874,0.629 -23.277,0.203 z m 104.227,-0.259 c -3.699,-0.206 -7.678,-0.403 -8.842,-0.437 -3.063,-0.09 -2.609,-1.115 0.498,-1.124 4.526,-0.013 19.009,1.146 20.051,1.605 1.174,0.518 -1.815,0.506 -11.707,-0.044 z m 46.328,0.206 c -0.685,-0.113 -3.823,-0.683 -6.974,-1.266 -3.151,-0.582 -7.97,-1.229 -10.71,-1.438 l -4.982,-0.378 6.016,-0.723 c 5.581,-0.672 6.617,-0.643 14.359,0.395 5.053,0.678 8.766,1.432 9.414,1.912 0.67,0.496 2.377,0.825 4.57,0.878 l 3.501,0.085 -3.736,0.373 c -4.089,0.408 -9.501,0.485 -11.458,0.162 z m -288.043,-1.092 c 1.172,-0.111 2.965,-0.11 3.985,0.004 1.02,0.113 0.062,0.204 -2.13,0.202 -2.192,-0.002 -3.027,-0.095 -1.855,-0.206 z m 17.821,-0.072 c 0.26,-0.252 4.62,-0.727 9.689,-1.056 10.325,-0.669 11.732,-0.709 11.371,-0.327 -0.256,0.271 -17.355,1.842 -20.053,1.842 -0.87,0 -1.286,-0.189 -1.007,-0.459 z m 49.043,-0.006 c 0,-0.653 6.97,-1.274 8.746,-0.78 l 1.466,0.408 -1.495,0.356 c -2.248,0.536 -8.717,0.547 -8.717,0.016 z m 124.787,-0.062 c 0.171,-0.294 2.331,-0.511 4.886,-0.49 3.022,0.024 4.24,0.191 3.582,0.49 -1.438,0.654 -8.85,0.654 -8.468,0 z m 129.9,-0.378 c 0.757,-0.122 1.878,-0.118 2.491,0.007 0.612,0.125 -0.007,0.224 -1.377,0.22 -1.37,-0.004 -1.871,-0.106 -1.114,-0.227 z m -342.744,-0.669 c -5.501,-0.662 -3.982,-1.062 4.035,-1.062 7.613,0 10.137,0.573 5.493,1.246 -2.68,0.389 -5.163,0.341 -9.528,-0.184 z m 236.328,-0.121 c 1.041,-0.355 3.126,-0.362 6.227,-0.022 l 4.661,0.511 -6.227,0.022 c -4.876,0.017 -5.887,-0.094 -4.661,-0.511 z m -287.006802,-0.414 c -0.3181,-0.544 1.8018,-0.64 11.758802,-0.53 2.906,0.032 8.622,-0.33 12.703,-0.805 5.05,-0.587 8.454,-0.726 10.658,-0.436 3.011,0.397 2.715,0.451 -4.234,0.78 -4.11,0.194 -9.826,0.607 -12.703,0.918 -6.707,0.724 -17.776402,0.769 -18.182802,0.073 z m 124.786802,-0.445 -1.743,-0.379 2.436,-0.379 c 3.893,-0.604 14.27,-0.425 12.758,0.221 -1.558,0.665 -11.108,1.046 -13.451,0.537 z m 37.86,-0.667 c -4.247,-0.279 -8.73,-0.709 -9.963,-0.956 l -2.242,-0.449 2.989,-0.059 c 1.644,-0.032 4.861,-0.335 7.149,-0.673 3.169,-0.468 6.49,-0.468 13.948,0 5.384,0.338 17.354,0.761 26.601,0.939 9.247,0.178 16.813,0.489 16.813,0.691 0,0.201 -6.669,0.352 -14.82,0.334 -8.151,-0.018 -18.855,0.128 -23.787,0.324 -4.932,0.195 -12.441,0.128 -16.688,-0.151 z m 73.727,0.058 c -1.945,-0.32 -1.714,-0.378 1.743,-0.44 2.734,-0.048 3.751,0.09 3.238,0.44 -0.815,0.558 -1.592,0.558 -4.981,0 z m -330.7701216,-0.695 c -2.87300998,-0.479 -3.77045998,-0.835 -3.89720998,-1.545 -0.206616,-1.157 0.87356,-1.173 20.74362958,-0.299 l 14.6083,0.643 6.8122,-1.408 c 7.969,-1.647 8.9208,-1.685 29.3343,-1.151 9.8515,0.257 15.4381,0.593 15.2483,0.918 -0.1845,0.316 -3.1889,0.406 -7.8265,0.234 -5.1398,-0.19 -9.4228,-0.03 -13.5048,0.504 -3.9066,0.511 -7.445,0.656 -10.2121,0.418 -5.712,-0.49 -7.0819,-0.396 -13.051,0.894 -4.3996,0.952 -7.2279,1.132 -19.8271,1.263 -9.5718,0.099 -15.9968796,-0.065 -18.4280196,-0.471 z m 42.5884196,0.168 c 0.548,-0.249 2.5655,-0.453 4.4834,-0.453 2.3852,0 3.1722,0.143 2.4907,0.453 -0.5479,0.249 -2.5654,0.453 -4.4833,0.453 -2.3852,0 -3.1723,-0.143 -2.4908,-0.453 z m 134.625702,-0.372 c 0.617,-0.126 1.625,-0.126 2.242,0 0.616,0.126 0.112,0.229 -1.121,0.229 -1.233,0 -1.737,-0.103 -1.121,-0.229 z m 167.006,-0.155 c -0.516,-0.353 0.514,-0.513 3.333,-0.519 2.244,-0.005 4.219,0.229 4.388,0.519 0.404,0.692 -6.709,0.692 -7.721,0 z m -162.517,-0.373 c 0.62,-0.126 1.517,-0.121 1.993,0.011 0.476,0.132 -0.031,0.235 -1.127,0.229 -1.096,-0.006 -1.485,-0.114 -0.866,-0.24 z m 221.797,-0.108 -1.744,-0.343 1.993,-0.373 c 2.423,-0.453 14.804,-0.402 18.93,0.078 2.62,0.306 2.133,0.396 -3.94,0.734 -7.835,0.435 -12.688,0.405 -15.239,-0.096 z m 45.332,-0.489 c -8.24,-0.694 -9.374,-0.887 -7.473,-1.276 4.788,-0.979 24.948,0.531 26.308,1.971 0.463,0.489 -8.864,0.145 -18.835,-0.695 z m 28.891,0.409 c -3.971,-0.447 -6.474,-1.217 -6.474,-1.994 0,-0.642 3.326,-1.036 12.329,-1.46 l 7.597,-0.358 v 2.186 2.187 l -4.857,-0.07 c -2.672,-0.039 -6.539,-0.259 -8.595,-0.491 z m -379.964,-0.329 c 0.479,-0.133 1.264,-0.133 1.743,0 0.48,0.132 0.087,0.241 -0.872,0.241 -0.958,0 -1.351,-0.109 -0.871,-0.241 z m 112.664,-0.091 c 0.447,-0.765 4.766,-1.153 8.842,-0.793 2.132,0.188 3.756,0.545 3.611,0.794 -0.145,0.249 -3.066,0.453 -6.491,0.453 -3.425,0 -6.108,-0.204 -5.962,-0.454 z m -53.011,-0.535 c 0,-0.684 11.307,-1.587 22.915,-1.829 5.617,-0.117 9.988,-0.131 9.714,-0.03 -0.274,0.101 -5.959,0.664 -12.634,1.252 -12.963,1.142 -19.995,1.355 -19.995,0.607 z m 215.701,-0.087 c -1.507,-0.221 -5.655,-0.448 -9.216,-0.506 -3.562,-0.057 -7.037,-0.314 -7.722,-0.571 -0.744,-0.279 4.749,-0.356 13.652,-0.192 8.193,0.151 15.142,0.441 15.442,0.643 1.387,0.937 -7.057,1.371 -12.156,0.626 z m -254.921,-0.871 c 0.485,-0.133 1.158,-0.125 1.495,0.02 0.337,0.144 -0.059,0.254 -0.881,0.243 -0.822,-0.011 -1.098,-0.129 -0.614,-0.263 z m 20.042,-0.162 c 2.303,-0.62 7.133,-0.62 6.227,0 -0.411,0.282 -2.317,0.487 -4.235,0.457 -2.648,-0.041 -3.127,-0.151 -1.992,-0.457 z m -36.116,-1.448 c -1.109,-0.531 -4.101,-0.978 -8.220002,-1.228 -10.297,-0.623 -10.5758,-1.467 -0.4981,-1.507 5.044102,-0.02 12.043102,-0.465 17.310102,-1.101 8.4,-1.014 9.171,-1.026 15.443,-0.24 3.63,0.455 6.937,0.965 7.348,1.133 1.961,0.8 -3.061,1.406 -12.205,1.472 -9.264,0.066 -10.102,0.153 -11.948,1.232 -2.298,1.343 -4.756,1.425 -7.23,0.239 z m 127.028,0.106 c -2.876,-0.377 -8.252,-0.859 -11.946,-1.072 -5.244,-0.302 -6.463,-0.506 -5.563,-0.931 0.797,-0.376 5.208,-0.35 14.314,0.087 13.573,0.65 20.818,1.457 20.345,2.267 -0.391,0.669 -11.018,0.451 -17.15,-0.351 z m -228.4025116,-0.239 c -1.28933,-0.586 3.46388,-0.603 6.9741096,-0.024 2.2816,0.376 2.1351,0.413 -1.7434996,0.444 -2.32887,0.018 -4.68264,-0.171 -5.23061,-0.42 z m 31.5081096,0.146 c 0.8905,-0.117 2.3476,-0.117 3.238,0 0.8905,0.117 0.1619,0.213 -1.619,0.213 -1.7809,0 -2.5094,-0.096 -1.619,-0.213 z m 299.316402,-0.235 c -6.609,-0.675 -5.466,-0.881 4.93,-0.89 5.48,-0.004 9.515,0.181 8.967,0.412 -1.542,0.65 -9.526,0.925 -13.897,0.478 z m 69.815,0.244 c 0.616,-0.125 1.625,-0.125 2.241,0 0.617,0.126 0.113,0.229 -1.12,0.229 -1.233,0 -1.738,-0.103 -1.121,-0.229 z m -269.127,-0.594 c 0.598,-0.657 12.725,-2.207 16.937,-2.165 1.644,0.016 3.886,0.209 4.981,0.428 1.871,0.374 1.765,0.42 -1.743,0.746 -2.055,0.191 -6.65,0.484 -10.212,0.65 -3.562,0.165 -7.373,0.433 -8.469,0.595 -1.371,0.202 -1.837,0.123 -1.494,-0.254 z m 176.346,-0.088 c 1.251,-0.569 6.753,-0.584 9.714,-0.027 1.677,0.316 0.61,0.43 -4.235,0.451 -4.027,0.018 -6.099,-0.142 -5.479,-0.424 z m -296.401002,-0.344 c -0.822,-0.103 -2.7166,-0.327 -4.2104,-0.5 -5.2901396,-0.609 -1.305,-1.147 5.2067,-0.702 3.5618,0.243 7.2606,0.477 8.2195,0.52 1.6105,0.071 1.6485,0.109 0.4982,0.499 -1.2511,0.424 -6.925,0.531 -9.714,0.183 z m 248.329002,-0.183 c -2.33,-0.519 10.759,-0.537 14.696,-0.02 2.199,0.288 0.882,0.394 -4.982,0.4 -4.384,0.005 -8.755,-0.166 -9.714,-0.38 z m -85.807,-0.372 c 0.617,-0.126 1.625,-0.126 2.242,0 0.616,0.126 0.112,0.228 -1.121,0.228 -1.233,0 -1.737,-0.102 -1.121,-0.228 z m 211.217,-0.014 c 1.164,-0.111 3.07,-0.111 4.234,0 1.165,0.111 0.212,0.202 -2.117,0.202 -2.329,0 -3.281,-0.091 -2.117,-0.202 z m -198.965,-0.738 c 1.125,-0.692 11.191,-0.67 12.84,0.028 0.832,0.353 -1.042,0.507 -6.286,0.52 -5.55,0.012 -7.236,-0.128 -6.554,-0.548 z m -190.96395958,-0.664 c 0,-0.947 2.22218798,-1.207 2.73983798,-0.32 0.16933,0.29 -0.02326,0.527 -0.42801,0.527 -0.40474,0 -1.09046998,0.144 -1.52385998,0.32 -0.51707,0.21 -0.787968,0.028 -0.787968,-0.527 z m 75.22105758,-0.242 c -0.8523,-0.281 0.4781,-0.518 4.2147,-0.748 5.2361,-0.324 6.2745,-0.238 5.612,0.463 -0.48,0.507 -8.4514,0.739 -9.8267,0.285 z m 204.491902,-0.078 c 0.548,-0.249 1.556,-0.466 2.241,-0.482 0.982,-0.023 1.087,0.079 0.499,0.482 -0.411,0.281 -1.42,0.498 -2.242,0.482 -1.283,-0.025 -1.354,-0.093 -0.498,-0.482 z m 159.782,0.141 c -1.164,-0.111 -2.117,-0.425 -2.117,-0.699 0,-0.586 3.584,-0.633 9.465,-0.123 3.176,0.276 3.861,0.457 2.74,0.726 -1.593,0.381 -6.598,0.428 -10.088,0.096 z m -144.7,-0.528 c 1.172,-0.111 2.965,-0.11 3.985,0.004 1.02,0.113 0.062,0.204 -2.13,0.202 -2.192,-0.002 -3.027,-0.095 -1.855,-0.206 z m 194.266,0.038 c 0.343,-0.147 0.903,-0.147 1.246,0 0.342,0.146 0.062,0.266 -0.623,0.266 -0.685,0 -0.965,-0.12 -0.623,-0.266 z m -474.260202,-0.672 c -1.586,-0.234 -3.0023,-0.551 -3.1474,-0.705 -0.5264,-0.557 9.374,-1.025 13.6259,-0.644 3.5651,0.319 4.1336,0.483 3.1154,0.898 -1.7011,0.694 -10.0652,0.971 -13.5939,0.451 z m 82.7126,0.122 c 0.6165,-0.126 1.6256,-0.126 2.2416,0 0.617,0.125 0.112,0.228 -1.1207,0.228 -1.233,0 -1.7374,-0.103 -1.1209,-0.228 z m 226.036602,-0.185 c -3.562,-0.207 -18.357,-0.408 -32.878,-0.446 -24.643,-0.063 -31.305,-0.409 -25.318,-1.315 8.057,-1.219 10.212,-1.292 16.674,-0.563 3.658,0.413 11.695,0.76 17.86,0.771 14.052,0.024 32.823,0.861 34.414,1.533 1.43,0.606 -0.651,0.61 -10.752,0.02 z m 35.185,-0.101 c 2.432,-0.325 6.112,-0.327 10.212,-0.005 l 6.411,0.503 -10.212,0.005 c -8.841,0.005 -9.702,-0.063 -6.411,-0.503 z m 107.66,0.274 c 1.028,-0.114 2.709,-0.114 3.737,0 1.027,0.113 0.186,0.206 -1.869,0.206 -2.054,0 -2.895,-0.093 -1.868,-0.206 z m -299.016,-0.656 c -3.47,-0.283 -2.624,-0.363 4.691,-0.443 4.909,-0.054 8.832,-0.01 8.718,0.098 -0.461,0.437 -9.444,0.668 -13.409,0.345 z m -118.560002,-0.558 c -2.0549,-0.205 -6.0899,-0.436 -8.9668,-0.514 -2.8768,-0.077 -4.6701,-0.247 -3.9852,-0.377 0.685,-0.13 1.4696,-0.47 1.7436,-0.755 0.3269,-0.341 -1.214,-0.371 -4.4834,-0.09 -2.7399,0.236 -5.8782,0.404 -6.9741,0.373 -1.096,-0.03 -7.4287,-0.124 -14.0729,-0.208 l -12.08015758,-0.152 v -1.319 -1.319 l 6.71880798,0.357 c 5.1548496,0.274 7.4619496,0.174 9.9112496,-0.427 4.556,-1.118 9.1304,-1.462 12.0137,-0.903 l 2.4908,0.483 -2.9889,0.078 c -2.7456,0.073 -2.91,0.142 -2.0195,0.855 0.7331,0.587 2.3119,0.757 6.476,0.7 3.0286,-0.042 7.2999,0.195 9.4917,0.526 2.1919,0.332 9.2532,0.836 15.6918,1.121 12.06,0.534 14.5724,0.844 13.3677,1.652 -0.7769,0.522 -16.887,0.463 -22.3344,-0.081 z m 149.944002,-1.33 c -3.699,-0.372 -6.837,-0.702 -6.974,-0.735 -0.137,-0.032 0.155,-0.308 0.648,-0.611 1.039,-0.64 22.195,0.928 22.989,1.703 0.668,0.652 -8.605,0.453 -16.663,-0.357 z m -112.084402,-0.264 c -2.3289,-0.216 -7.0364,-0.437 -10.4612,-0.491 -9.2024,-0.144 -5.5824,-0.845 8.3225,-1.611 7.8372,-0.431 15.4811,-0.512 22.563102,-0.237 13.075,0.507 11.877,0.505 19.428,0.029 4.783,-0.303 7.324,-0.2 10.959,0.443 2.603,0.461 5.629,0.871 6.725,0.911 1.308,0.049 0.708,0.226 -1.743,0.517 -2.177,0.258 -6.024,0.229 -9.216,-0.07 -8.036,-0.752 -22.012,-0.62 -29.142,0.275 -6.571902,0.824 -10.506502,0.877 -17.435402,0.234 z m 246.585402,0.257 c 0.685,-0.121 7.758,-0.69 15.717,-1.265 11.087,-0.8 15.806,-0.934 20.176,-0.57 3.136,0.261 15.555,0.611 27.597,0.778 13.528,0.187 22.084,0.504 22.392,0.829 0.782,0.828 -27.936,0.639 -42.697,-0.28 -10.037,-0.625 -14.352,-0.678 -19.677,-0.24 -6.811,0.559 -25.865,1.166 -23.508,0.748 z m 96.144,-0.209 c -2.049,-0.23 1.32,-0.397 9.174,-0.455 6.827,-0.05 12.319,-0.002 12.205,0.106 -0.43,0.407 -18.275,0.699 -21.379,0.349 z m -247.69,-0.408 c 1.447,-0.107 3.689,-0.106 4.981,0.002 1.293,0.108 0.108,0.196 -2.632,0.194 -2.739,-10e-4 -3.797,-0.089 -2.349,-0.196 z m -32.77,-1.214 c 4.039,-0.591 8.366,-0.58 8.717,0.022 0.2,0.341 -1.762,0.501 -5.574,0.452 -4.945,-0.062 -5.446,-0.137 -3.143,-0.474 z m -104.861502,-0.765 -5.4796,-0.635 4.7324,-0.049 c 3.8486,-0.04 10.2887,0.659 8.1357,0.883 -0.32,0.033 -0.8804,0.145 -1.2453,0.248 -0.3649,0.103 -3.1293,-0.099 -6.1432,-0.447 z m 208.412502,0.543 c -0.161,-0.17 -5.747,-0.428 -12.414,-0.573 -6.666,-0.144 -12.227,-0.375 -12.358,-0.513 -0.13,-0.138 1.313,-0.249 3.208,-0.245 1.895,0.003 6.153,-0.269 9.461,-0.605 5.212,-0.53 6.501,-0.495 9.651,0.257 1.999,0.478 5.214,0.869 7.144,0.869 1.93,0 3.415,0.089 3.301,0.199 -0.381,0.367 -7.695,0.926 -7.993,0.611 z m -51.743,-0.898 c -2.329,-0.26 -5.923,-0.334 -7.985,-0.166 -2.246,0.183 -4.245,0.079 -4.982,-0.261 -1.439,-0.662 18.175,-0.229 21.933,0.484 2.11,0.401 2.036,0.425 -1.245,0.42 -1.918,-0.003 -5.393,-0.218 -7.721,-0.477 z m 255.054,0.061 c -1.233,-0.232 -7.006,-0.44 -12.828,-0.461 -6.7,-0.025 -10.586,-0.233 -10.586,-0.567 0,-1.198 31.48,-0.315 36.849,1.034 2.333,0.586 -10.32,0.58 -13.435,-0.006 z m -389.057502,-0.432 -2.2417,-0.352 1.7435,-0.365 c 6.8416,-1.431 26.3253,-1.709 29.6139,-0.422 0.5476,0.215 -3.8179,0.548 -9.7012,0.74 -5.8832,0.192 -12.1539,0.44 -13.9348,0.551 -1.7809,0.111 -4.2468,0.042 -5.4797,-0.152 z m 73.726502,-0.596 c 1.835,-0.621 7.971,-0.621 7.971,0 0,0.318 -1.835,0.507 -4.608,0.475 -3.074,-0.035 -4.194,-0.193 -3.363,-0.475 z m -81.572402,-0.377 c 0.7534,-0.121 1.9864,-0.121 2.7398,0 0.7535,0.121 0.137,0.22 -1.3699,0.22 -1.5069,0 -2.1234,-0.099 -1.3699,-0.22 z m -20.1752,-0.838 c -2.7278,-0.625 -3.1054,-1.242 -0.7472,-1.221 0.8904,0.008 6.9795,-0.282 13.5313,-0.645 17.4666,-0.969 38.9675,-0.768 37.9073,0.354 -0.4561,0.482 -16.1779,0.49 -15.896,0.007 0.4427,-0.758 -3.7821,-0.493 -13.9485,0.875 -10.143,1.365 -16.7701,1.566 -20.8469,0.63 z m 133.629602,0.34 c 0,-0.243 -4.651,-0.37 -10.336,-0.281 -5.686,0.089 -11.57,-0.078 -13.077,-0.37 -2.408,-0.468 -2.047,-0.511 2.989,-0.36 3.15,0.095 9.26,-0.145 13.576,-0.534 7.628,-0.688 9.626,-0.607 9.057,0.367 -0.152,0.261 1.332,0.472 3.324,0.472 1.98,0 3.506,0.09 3.392,0.2 -0.455,0.439 -8.925,0.919 -8.925,0.506 z m 44.42,-0.639 c -1.483,-0.995 5.723,-1.481 11.352,-0.766 1.992,0.253 2.458,0.453 1.744,0.749 -1.338,0.553 -12.275,0.567 -13.096,0.017 z m 93.568,-0.052 c -0.508,-0.358 2.662,-0.528 9.922,-0.534 5.867,-0.004 10.56,0.107 10.427,0.248 -0.507,0.536 -19.61,0.805 -20.349,0.286 z m -210.837002,-0.388 c 0.619,-0.126 1.516002,-0.121 1.992002,0.011 0.477,0.132 -0.03,0.235 -1.126002,0.229 -1.096,-0.005 -1.4858,-0.114 -0.866,-0.24 z m 149.482002,-0.616 c 0.366,-0.245 2.495,-0.452 4.732,-0.46 3.948,-0.014 3.987,-0.002 1.328,0.402 -3.825,0.581 -6.883,0.61 -6.06,0.058 z m 40.184,-0.089 c 3.741,-0.617 10.626,-0.6 9.714,0.024 -0.411,0.281 -3.326,0.483 -6.476,0.449 -4.68,-0.051 -5.273,-0.138 -3.238,-0.473 z m 76.715,-0.028 c -6.923,-0.763 -6.692,-0.935 0.996,-0.741 4.11,0.104 8.033,0.428 8.718,0.721 1.006,0.43 0.574,0.525 -2.242,0.496 -1.918,-0.021 -5.28,-0.235 -7.472,-0.476 z m 17.435,0.076 c -8.683,-1.179 13.163,-1.835 27.15,-0.815 l 7.223,0.526 -5.231,0.331 c -6.713,0.426 -25.898,0.398 -29.142,-0.042 z m 58.409,0.117 c 1.164,-0.111 3.07,-0.111 4.234,0 1.165,0.111 0.212,0.202 -2.117,0.202 -2.329,0 -3.282,-0.091 -2.117,-0.202 z m 40.973,-0.137 c -1.507,-0.235 -5.697,-0.45 -9.311,-0.479 -6.824,-0.054 -9.225,-0.766 -4.256,-1.262 3.504,-0.35 21.904,0.62 23.281,1.226 0.798,0.352 0.638,0.447 -0.802,0.475 -0.99,0.02 -2.783,0.133 -3.986,0.251 -1.202,0.119 -3.419,0.024 -4.926,-0.211 z m -287.91,-0.505 c -0.473,-0.317 1.306,-0.543 5.107,-0.651 3.208,-0.091 5.832,-0.023 5.831,0.152 -0.001,0.308 -6.295,1.008 -8.918,0.992 -0.712,-0.005 -1.621,-0.226 -2.02,-0.493 z m -55.183,-0.391 c 0.484,-0.134 1.157,-0.125 1.494,0.019 0.338,0.145 -0.059,0.254 -0.881,0.243 -0.822,-0.01 -1.098,-0.129 -0.613,-0.262 z m 73.094,-0.689 c 0.987,-0.675 6.829,-0.675 7.223,0 0.196,0.335 -1.196,0.524 -3.831,0.519 -2.856,-0.006 -3.907,-0.167 -3.392,-0.519 z m 48.819,-0.048 c 1.614,-0.485 6.485,-0.479 9.963,0.011 1.994,0.282 0.841,0.384 -4.234,0.375 -3.836,-0.007 -6.414,-0.181 -5.729,-0.386 z m -247.581702,-0.479 c -1.214,-0.412 -1.2077,-0.423 0.2491,-0.436 0.8219,-0.007 2.5032,0.177 3.7361,0.409 l 2.2417,0.422 -2.4907,0.013 c -1.37,0.007 -3.0512,-0.176 -3.7362,-0.408 z m 264.269702,0.036 -1.494,-0.366 1.63,-0.406 c 2.096,-0.524 6.33,0.151 4.846,0.772 -1.192,0.498 -2.946,0.498 -4.982,0 z m 59.031,0.039 c -1.557,-0.334 -1.37,-0.414 1.744,-0.748 4.571,-0.49 9.711,-0.422 10.959,0.146 0.708,0.321 0.116,0.463 -2.044,0.49 -1.672,0.02 -4.362,0.138 -5.978,0.261 -1.615,0.124 -3.722,0.056 -4.681,-0.149 z m 96.891,-0.088 c -3.014,-0.189 -10.523,-0.639 -16.688,-1.001 -6.165,-0.362 -11.993,-0.837 -12.952,-1.056 l -1.744,-0.398 2.242,-0.671 c 1.779,-0.532 3.747,-0.546 9.53,-0.066 4.009,0.332 12.079,0.592 17.934,0.577 13.674,-0.035 38.31,1.153 34.058,1.642 -1.644,0.189 -7.304,0.37 -12.578,0.401 -6.025,0.036 -9.59,0.253 -9.59,0.585 0,0.552 -1.233,0.551 -10.212,-0.013 z m -257.296,-0.488 c 0,-0.287 3.2,-0.568 7.498,-0.659 7.837,-0.165 10.909,0.204 6.733,0.81 -3.686,0.534 -14.231,0.423 -14.231,-0.151 z m -136.120002,-0.398 c 0.6165,-0.126 1.6252,-0.126 2.2417,0 0.6165,0.125 0.1121,0.228 -1.1208,0.228 -1.233,0 -1.7373,-0.103 -1.1209,-0.228 z m 5.4855,-0.528 c 0.6197,-0.126 1.5163,-0.122 1.9926,0.011 0.4763,0.131 -0.0307,0.235 -1.1266,0.229 -1.096,-0.006 -1.4857,-0.114 -0.866,-0.24 z m 5.3138,-0.094 c 0.4492,-0.769 4.4922,-1.191 7.336,-0.767 l 2.6626,0.398 -2.2417,0.379 c -3.2212,0.544 -8.0768,0.538 -7.7569,-0.01 z m 172.055702,-0.556 c -4.297,-0.173 -7.996,-0.511 -8.22,-0.753 -0.46,-0.497 15.831,0.117 19.271,0.727 l 2.242,0.397 -2.74,-0.028 c -1.507,-0.016 -6.256,-0.17 -10.553,-0.343 z m 73.952,0.13 c 0.485,-0.134 1.157,-0.125 1.495,0.02 0.337,0.144 -0.06,0.254 -0.882,0.243 -0.822,-0.011 -1.098,-0.129 -0.613,-0.263 z m -192.919,-0.735 c -1.781,-0.282 -4.309002,-0.379 -5.617402,-0.214 -1.6303,0.206 -2.693,0.068 -3.3748,-0.437 -1.584,-1.174 31.037202,-1.579 43.285202,-0.538 5.025,0.428 9.55,0.94 10.056,1.138 0.505,0.198 -2.458,0.41 -6.586,0.471 -5.814,0.085 -7.826,-0.066 -8.932,-0.671 -1.167,-0.639 -1.993,-0.678 -4.543,-0.217 -4.32,0.783 -20.362,1.092 -24.288,0.468 z m 67.126,0.224 c 0.343,-0.146 0.903,-0.146 1.246,0 0.342,0.146 0.062,0.266 -0.623,0.266 -0.685,0 -0.965,-0.12 -0.623,-0.266 z m 107.607,-0.024 c 0.62,-0.126 1.516,-0.121 1.993,0.011 0.476,0.132 -0.031,0.235 -1.127,0.23 -1.096,-0.006 -1.486,-0.114 -0.866,-0.241 z m -251.033902,-0.639 c -2.9228,-0.168 -5.4468,-0.446 -5.6088,-0.618 -0.382,-0.405 14.3076,-1.015 23.3319,-0.969 8.272,0.042 7.783,0.651 -1.2004,1.496 -6.4182,0.603 -7.5135,0.609 -16.5227,0.091 z m 160.986902,0.037 c -4.537,-0.567 -1.282,-1.082 8.718,-1.38 8.26,-0.245 8.798,-0.207 6.828,0.49 -2.468,0.874 -11.529,1.392 -15.546,0.89 z m -174.228802,-0.456 c 0.7534,-0.121 1.9863,-0.121 2.7398,0 0.7535,0.12 0.137,0.219 -1.3699,0.219 -1.5069,0 -2.1234,-0.099 -1.3699,-0.219 z m 46.4527,-0.15 -2.4908,-0.361 2.2417,-0.075 c 1.2329,-0.041 2.5779,0.155 2.9889,0.436 0.411,0.281 0.5231,0.477 0.2491,0.436 -0.274,-0.041 -1.619,-0.237 -2.9889,-0.436 z m 102.252102,0.154 c 0.619,-0.126 1.516,-0.121 1.992,0.011 0.476,0.132 -0.031,0.235 -1.127,0.229 -1.095,-0.005 -1.485,-0.114 -0.865,-0.24 z m 98.139,-0.009 c 0.895,-0.117 2.24,-0.115 2.989,0.006 0.748,0.12 0.014,0.216 -1.628,0.213 -1.644,-0.003 -2.257,-0.101 -1.361,-0.219 z m 49.931,-0.145 c 1.729,-0.586 11.501,-0.586 10.212,0 -0.548,0.249 -3.35,0.446 -6.227,0.438 -3.343,-0.01 -4.781,-0.168 -3.985,-0.438 z m -233.883102,-0.53 c 1.9216,-0.447 12.0881,-0.731 11.6651,-0.325 -0.1141,0.109 -3.2338,0.332 -6.9326,0.494 -4.3996,0.193 -6.0361,0.135 -4.7325,-0.169 z m 162.647102,-0.024 c 1.233,-0.232 3.586,-0.41 5.23,-0.395 l 2.989,0.027 -2.241,0.422 c -1.233,0.232 -3.587,0.41 -5.231,0.395 l -2.989,-0.027 z m 99.132,0.027 c 0,-0.29 0.897,-0.527 1.993,-0.527 1.096,0 1.992,0.237 1.992,0.527 0,0.29 -0.896,0.527 -1.992,0.527 -1.096,0 -1.993,-0.237 -1.993,-0.527 z m 26.9,-0.066 c 3.706,-0.483 21.559,-0.465 24.659,0.024 1.389,0.219 -4.121,0.38 -12.454,0.363 -8.219,-0.017 -13.712,-0.191 -12.205,-0.387 z m -309.103302,-1.302 -4.9816,-0.684 4.9816,0.232 c 2.7398,0.129 7.2232,0.264 9.963,0.302 4.1568,0.057 4.6104,0.139 2.7399,0.491 -3.0473,0.573 -6.7766,0.473 -12.7029,-0.341 z m 153.306302,0.478 c 0.48,-0.133 1.264,-0.133 1.744,0 0.479,0.132 0.087,0.241 -0.872,0.241 -0.959,0 -1.351,-0.109 -0.872,-0.241 z m 80.327,-0.025 c -0.548,-0.147 -1.557,-0.516 -2.241,-0.822 -1.16,-0.518 -1.075,-0.583 1.245,-0.945 3.404,-0.53 11.18,-0.478 12.703,0.086 0.769,0.284 -0.898,0.348 -4.359,0.166 -3.669,-0.192 -5.604,-0.108 -5.604,0.245 0,0.297 1.065,0.691 2.366,0.877 1.301,0.185 2.59,0.418 2.864,0.517 0.797,0.289 -5.873,0.17 -6.974,-0.124 z m -284.1958216,-0.68 c -1.23293,-0.233 -3.30649,-0.577 -4.60791,-0.764 -1.57722998,-0.227 -2.36622798,-0.594 -2.36622798,-1.099 0,-0.958 0.952198,-0.952 5.80946798,0.034 5.5315896,1.123 16.9928896,1.092 22.0563896,-0.059 3.7982,-0.864 4.4358,-0.86 13.8373,0.093 9.1412,0.925 9.6631,1.033 7.1993,1.485 -1.7906,0.328 -4.7127,0.265 -8.9667,-0.193 -5.4964,-0.592 -7.1283,-0.568 -12.6501,0.182 -6.5936,0.896 -16.4399,1.052 -20.3115196,0.321 z m 349.0858216,0.168 c 0.62,-0.126 1.517,-0.121 1.993,0.011 0.476,0.132 -0.031,0.235 -1.127,0.229 -1.096,-0.006 -1.485,-0.114 -0.866,-0.24 z m 120.997,-0.022 c -0.127,-0.218 0.925,-0.328 2.337,-0.245 4.581,0.269 5.138,0.48 1.477,0.561 -1.97,0.043 -3.686,-0.099 -3.814,-0.316 z m -397.980502,-0.802 c 1.7384,-0.354 3.9841,-0.357 6.725,-0.009 l 4.1151,0.521 -6.7251,0.01 c -5.8961,0.008 -6.4033,-0.056 -4.115,-0.522 z m 75.484502,0.304 c 0.485,-0.133 1.158,-0.124 1.495,0.02 0.337,0.145 -0.059,0.254 -0.881,0.243 -0.822,-0.011 -1.098,-0.129 -0.614,-0.263 z m 25.272,-0.161 c 0.411,-0.281 3.213,-0.511 6.227,-0.511 3.72,0 5.24,0.164 4.732,0.511 -0.411,0.281 -3.213,0.511 -6.226,0.511 -3.72,0 -5.24,-0.165 -4.733,-0.511 z m 268.386,0.154 c 0.619,-0.126 1.516,-0.121 1.992,0.011 0.477,0.132 -0.031,0.235 -1.126,0.229 -1.096,-0.006 -1.486,-0.114 -0.866,-0.24 z m -304.626,-0.532 c 0.753,-0.121 1.986,-0.121 2.739,0 0.754,0.121 0.137,0.22 -1.37,0.22 -1.506,0 -2.123,-0.099 -1.369,-0.22 z m 85.962,0.018 c 0.36,-0.153 0.789,-0.134 0.955,0.041 0.165,0.175 -0.129,0.3 -0.654,0.277 -0.58,-0.025 -0.698,-0.15 -0.301,-0.318 z m 139.576,-0.018 c 0,-0.62 4.673,-1.204 9.638,-1.204 5.691,0 3.234,0.944 -3.536,1.358 -3.968,0.242 -6.102,0.189 -6.102,-0.154 z m 27.938,0.186 c 0.574,-0.532 5.438,-0.847 5.438,-0.354 0,0.312 -1.21,0.546 -2.823,0.546 -1.552,0 -2.729,-0.087 -2.615,-0.192 z m -331.424202,-0.722 c 1.1717,-0.111 2.965,-0.11 3.9852,0.003 1.0202,0.114 0.0616,0.205 -2.1303,0.203 -2.1918,-0.002 -3.0266,-0.095 -1.8549,-0.206 z m 54.314202,-0.341 c -2.107,-0.339 -3.994,-0.788 -4.192,-0.999 -0.486,-0.513 26.189,-0.418 27.438,0.098 1.543,0.639 -7.165,1.637 -13.719,1.573 -3.132,-0.03 -7.419,-0.333 -9.527,-0.672 z m 49.544,0.349 c 0.758,-0.121 1.878,-0.118 2.491,0.007 0.613,0.126 -0.007,0.225 -1.377,0.221 -1.37,-0.004 -1.871,-0.107 -1.114,-0.228 z m 40.717,-0.65 c 0,-0.28 2.139,-0.514 4.857,-0.53 2.672,-0.017 7.828,-0.142 11.458,-0.28 6.763,-0.256 9.026,0.366 3.538,0.973 -4.795,0.53 -19.853,0.407 -19.853,-0.163 z m 47.206,0.129 c 0.62,-0.126 1.517,-0.122 1.993,0.01 0.476,0.132 -0.031,0.236 -1.127,0.23 -1.096,-0.006 -1.485,-0.114 -0.866,-0.24 z m 153.799,-0.155 c 0.371,-0.634 4.084,-0.634 5.48,0 0.692,0.315 -0.039,0.465 -2.396,0.49 -2.143,0.024 -3.279,-0.157 -3.084,-0.49 z m -401.5110016,-0.527 c -3.6292,-0.526 -1.17958,-0.75 8.4685996,-0.772 4.3838,-0.01 8.5309,-0.208 9.2158,-0.439 0.86,-0.29 1.0133,-0.264 0.4955,0.086 -1.9708,1.33 -12.342,1.972 -18.1798996,1.125 z m 76.0927996,0.15 c 0.7535,-0.121 1.9864,-0.121 2.7399,0 0.7534,0.121 0.137,0.219 -1.37,0.219 -1.5069,0 -2.1233,-0.098 -1.3699,-0.219 z m -30.6305,-0.523 c 0.6196,-0.126 1.5163,-0.121 1.9926,0.011 0.4762,0.132 -0.0308,0.235 -1.1267,0.23 -1.0959,-0.006 -1.4856,-0.114 -0.8659,-0.241 z m 21.1656,-0.011 c 1.0275,-0.114 2.7087,-0.114 3.7362,0 1.0274,0.114 0.1868,0.207 -1.8681,0.207 -2.0549,0 -2.8955,-0.093 -1.8681,-0.207 z m 125.161102,-0.143 c 2.213,-0.596 3.736,-0.596 3.736,0 0,0.292 -1.165,0.499 -2.615,0.465 -2.236,-0.054 -2.399,-0.121 -1.121,-0.465 z m 107.974,0.152 c -5.144,-0.106 -8.593,-0.383 -8.593,-0.691 0,-0.284 1.513,-0.522 3.363,-0.531 1.849,-0.009 6.837,-0.104 11.084,-0.212 9.454,-0.239 24.745,0.257 23.831,0.774 -0.866,0.49 -18.676,0.886 -29.685,0.66 z m 125.793,-0.007 c 0.895,-0.117 2.24,-0.115 2.989,0.006 0.748,0.12 0.014,0.216 -1.628,0.213 -1.644,-0.003 -2.257,-0.102 -1.361,-0.219 z m 22.283,-0.145 c 0.548,-0.249 2.566,-0.438 4.484,-0.42 l 3.487,0.034 -2.491,0.41 c -3.534,0.583 -6.782,0.568 -5.48,-0.024 z m -415.708102,-0.554 c 1.2329,-0.232 3.2504,-0.411 4.4833,-0.399 2.0224,0.021 2.0955,0.063 0.7473,0.426 -0.822,0.221 -2.8395,0.401 -4.4834,0.399 l -2.9889,-0.004 z m 310.847102,0.027 c -0.846,-0.287 0.113,-0.436 2.989,-0.466 2.329,-0.025 4.571,0.185 4.981,0.466 0.925,0.633 -6.104,0.633 -7.97,0 z m 15.692,0.06 c -1.564,-0.174 -0.92,-0.368 2.989,-0.902 5.688,-0.778 11.955,-0.902 18.729,-0.373 l 4.684,0.366 -4.483,0.679 c -4.123,0.626 -17.138,0.762 -21.919,0.23 z m -264.887,-0.433 c 0.62,-0.126 1.516,-0.121 1.993,0.011 0.476,0.132 -0.031,0.235 -1.127,0.229 -1.096,-0.005 -1.486,-0.114 -0.866,-0.24 z m -103.09221158,-0.514 c 0.3596,-0.152 0.78926,-0.134 0.95479,0.042 0.16553998,0.175 -0.12868,0.299 -0.65382,0.276 -0.58032,-0.025 -0.698362,-0.15 -0.30097,-0.318 z m 23.38200958,0.011 c 0.3425,-0.146 0.9029,-0.146 1.2454,0 0.3425,0.146 0.0623,0.266 -0.6227,0.266 -0.6849,0 -0.9652,-0.12 -0.6227,-0.266 z m 95.272202,-0.178 c -0.521,-0.356 0.348,-0.513 2.864,-0.519 2.081,-0.005 3.611,0.215 3.611,0.519 0,0.676 -5.487,0.676 -6.475,0 z m 59.529,0.017 c 1.458,-0.409 14.568,-0.734 14.156,-0.351 -0.115,0.106 -3.683,0.322 -7.929,0.481 -4.247,0.158 -7.049,0.1 -6.227,-0.13 z m 71.864,0.137 c 0.62,-0.126 1.516,-0.121 1.993,0.011 0.476,0.132 -0.031,0.235 -1.127,0.229 -1.096,-0.005 -1.486,-0.114 -0.866,-0.24 z m 25.898,-0.02 c 2.809,-0.094 7.404,-0.094 10.212,0 2.809,0.094 0.511,0.171 -5.106,0.171 -5.616,0 -7.914,-0.077 -5.106,-0.171 z m 213.209,0.012 c 0.891,-0.117 2.348,-0.117 3.238,0 0.891,0.117 0.162,0.212 -1.619,0.212 -1.78,0 -2.509,-0.095 -1.619,-0.212 z m -268.006,-0.527 c 0.891,-0.117 2.348,-0.117 3.238,0 0.891,0.117 0.162,0.212 -1.619,0.212 -1.78,0 -2.509,-0.095 -1.619,-0.212 z"
     style="display:none;fill:#fdebad"
     id="path780"
     inkscape:export-filename="./water-top.svg"
     inkscape:export-xdpi="96"
     inkscape:export-ydpi="96" />
  <path
     d="m 0.950042,342.863 c 0,-3.894 0.032615,-4.002 1.120848,-3.72 0.61646,0.16 3.58669,0.573 6.60052,0.918 8.27429,0.947 22.68999,0.304 36.12539,-1.611 11.8691,-1.692 21.9258,-2.064 28.5215,-1.055 8.2591,1.264 25.7556,6.223 29.6657,8.408 1.823,1.019 1.615,1.023 -50.1015,1.047 L 0.950042,346.871 Z M 157.322,346.646 c -0.118,-0.124 -3.798,-0.597 -8.178,-1.051 -9.483,-0.981 -12.899,-1.663 -13.747,-2.744 -1.052,-1.342 0.182,-1.647 8.224,-2.037 12.032,-0.582 24.325,1.005 33.924,4.38 l 4.483,1.577 -12.246,0.051 c -6.735,0.028 -12.342,-0.052 -12.46,-0.176 z m 56.09,-1.179 c -5.278,-1.974 -11.009,-3.161 -21.171,-4.385 -5.069,-0.611 -13.812,-1.94 -19.428,-2.954 -10.151,-1.831 -16.298,-2.405 -35.867,-3.349 -5.617,-0.27 -13.911,-0.963 -18.432,-1.539 -4.521,-0.576 -12.815,-1.552 -18.432,-2.169 -14.2252,-1.563 -17.1157,-2.037 -21.6692,-3.55 -4.8201,-1.602 -10.2122,-4.124 -10.2122,-4.777 0,-1.534 7.1211,-2.916 22.1858,-4.307 10.8416,-1.001 15.1676,-1.847 15.5436,-3.04 0.297,-0.941 -2.827,-1.541 -11.0782,-2.128 -12.6156,-0.897 -22.3189,0.158 -38.3577,4.17 -23.7578,5.942 -29.847,6.768 -42.7545,5.794 -4.70539,-0.354 -9.50798,-0.782 -10.67241,-0.949 L 0.950042,321.98 v -5.015 -5.015 l 2.107668,0.357 c 4.76922,0.807 28.91949,-1.872 33.19479,-3.682 4.7291,-2.002 1.3331,-2.747 -12.8856,-2.828 -8.8125,-0.05 -16.48173,-0.573 -20.79786,-1.419 l -1.618998,-0.317 v -7.273 -7.273 l 4.358838,-0.35 c 2.39736,-0.193 7.94552,-0.946 12.32932,-1.675 8.1726,-1.357 19.1018,-2.159 21.3402,-1.564 0.7988,0.212 1.3146,0.765 1.4157,1.518 0.1533,1.142 0.3047,1.176 4.1443,0.922 2.1919,-0.145 11.9432,-0.226 21.6696,-0.181 13.7953,0.065 19.358,0.299 25.2943,1.063 6.8188,0.879 9.2927,1.685 6.7383,2.197 -1.8318,0.367 -6.6268,2.884 -6.6268,3.479 0,0.375 1.605,0.831 4.1098,1.167 3.2622,0.438 4.6654,0.922 6.8044,2.343 l 2.695,1.791 h 17.979 17.978 l -0.089,-1.415 c -0.103,-1.627 -0.01,-1.661 7.063,-2.565 6.254,-0.8 16.637,-0.673 21.67,0.264 2.329,0.434 6.812,1.269 9.963,1.855 6.951,1.295 9.506,2.134 14.411,4.735 5.49,2.911 11.628,4.153 30.173,6.105 9.821,1.033 15.692,0.464 15.692,-1.522 0,-1.965 1.362,-2.255 18.93,-4.034 11.256,-1.139 17.726,-2.201 18.519,-3.04 0.91,-0.963 -1.786,-2.318 -4.675,-2.35 -1.45,-0.015 -10.145,0.279 -19.324,0.655 -18.825,0.772 -25.187,0.498 -25.668,-1.106 -0.602,-2.007 -2.043,-2.212 -19.734,-2.802 -15.035,-0.503 -19.588,-0.943 -17.614,-1.705 1.997,-0.77 4.007,-2.173 4.131,-2.883 0.092,-0.522 -0.387,-1.071 -1.243,-1.426 -1.883,-0.779 -13.205,-2.733 -15.84,-2.733 -1.164,0 -2.874,-0.166 -3.798,-0.368 -1.384,-0.302 -0.625,-0.539 4.296,-1.342 5.233,-0.854 10.078,-1.005 38.856,-1.208 25.719,-0.182 35.048,-0.064 42.841,0.538 23.506,1.818 51.688,2.438 61.273,1.349 2.74,-0.311 9.408,-1.166 14.819,-1.9 19.545,-2.651 28.05,-2.592 40.725,0.284 11.18,2.536 19.119,4.072 27.206,5.263 4.079,0.601 9.545,1.576 12.148,2.168 9.162,2.082 14.315,2.574 27.399,2.616 6.986,0.022 15.729,0.229 19.427,0.46 5.989,0.373 6.998,0.578 9.216,1.87 l 2.491,1.451 8.609,-0.307 c 4.735,-0.169 9.61,-0.163 10.835,0.014 l 2.226,0.323 v 5.98 5.979 l -1.347,0.358 c -0.74,0.197 -6.176,0.08 -12.08,-0.259 -18.218,-1.047 -28.502,-0.665 -28.816,1.072 -0.223,1.235 0.921,1.758 7.163,3.277 8.51,2.071 16.307,2.952 26.138,2.952 h 8.942 v 9.487 c 0,5.219 -0.169,9.488 -0.375,9.488 -0.206,0 -2.728,-0.718 -5.604,-1.595 -16.858,-5.14 -18.454,-5.452 -28.145,-5.485 -4.931,-0.014 -12.889,0.036 -17.684,0.118 -6.123,0.104 -10.201,-0.098 -13.699,-0.682 -10.628,-1.774 -18.889,-2.909 -30.388,-4.176 -6.575,-0.725 -15.878,-1.963 -20.673,-2.751 -7.723,-1.27 -10.138,-1.435 -21.171,-1.45 -9.229,-0.012 -12.753,0.158 -13.607,0.659 -1.513,0.888 -0.883,1.695 2.538,3.253 1.807,0.824 5.865,1.648 13.31,2.704 5.891,0.836 14.073,2.093 18.183,2.794 4.11,0.701 10.969,1.762 15.242,2.358 4.274,0.596 9.934,1.678 12.579,2.405 2.644,0.726 6.919,1.901 9.5,2.61 6.195,1.703 13.623,2.84 20.965,3.207 6.361,0.319 9.7,0.713 30.883,3.649 7.398,1.025 16.364,2.19 19.926,2.587 5.622,0.628 -11.832,0.725 -132.259,0.742 l -138.736,0.017 z m 190.773,-2.995 c 2.027,-1.568 -0.033,-2.281 -11.687,-4.045 -8.896,-1.346 -22.118,-2.624 -27.118,-2.62 -9.506,0.007 -10.57,3.15 -1.706,5.039 9.635,2.052 38.465,3.21 40.511,1.626 z m -90.151,-1.064 c 0.902,-0.698 0.897,-0.741 -0.134,-1.325 -1.635,-0.926 -11.557,-1.865 -12.226,-1.158 -0.842,0.891 0.615,2.098 3.176,2.629 3.536,0.734 8.141,0.66 9.184,-0.146 z m 33.506,-6.136 c 1.438,-0.335 2.615,-0.819 2.615,-1.074 0,-0.666 -1.436,-1.359 -3.72,-1.796 -2.741,-0.525 -20.511,-0.357 -22.868,0.215 -4.195,1.02 -3.157,2.322 2.516,3.156 4.276,0.628 17.985,0.308 21.457,-0.501 z m -60.152,-4.415 c 2.185,-0.738 2.697,-2.702 0.893,-3.428 -2.163,-0.87 -10.556,-2.145 -17.83,-2.708 -3.973,-0.307 -10.925,-0.904 -15.45,-1.326 -4.524,-0.423 -11.537,-0.768 -15.583,-0.768 -6.171,0 -7.404,0.131 -7.651,0.813 -0.163,0.447 -0.157,0.96 0.012,1.139 0.552,0.584 10.488,2.199 22.081,3.59 6.248,0.75 13.714,1.815 16.591,2.368 8.348,1.604 12.882,1.69 16.937,0.32 z m 9.752,-10.389 c 12.117,-1.286 10.954,-3.705 -2.248,-4.678 -8.073,-0.595 -29.405,-1.456 -52.338,-2.113 -10.306,-0.295 -18.498,-0.784 -21.421,-1.279 -2.888,-0.489 -9.002,-0.86 -15.691,-0.952 -9.333,-0.129 -11.571,-0.003 -15.074,0.848 -2.263,0.55 -4.505,1.321 -4.982,1.713 -0.821,0.675 -0.817,0.754 0.061,1.474 0.77,0.63 2.691,0.708 11.209,0.456 14.431,-0.428 28.309,0.494 37.392,2.483 6.85,1.5 7.773,1.574 20.419,1.63 7.284,0.033 15.373,0.231 17.976,0.442 7.564,0.612 18.807,0.601 24.697,-0.021 z M 172.068,319.99 c 1.962,-0.789 1.523,-2.714 -0.802,-3.517 -2.805,-0.97 -9.045,-1.752 -14.057,-1.762 -2.514,-0.005 -6.589,-0.36 -9.055,-0.788 -2.466,-0.429 -5.865,-0.781 -7.553,-0.782 -2.949,-0.002 -10.489,1.255 -11.043,1.841 -0.84,0.889 1.614,1.501 7.722,1.924 3.789,0.263 9.803,1.057 13.365,1.764 8.897,1.767 8.319,1.697 14.538,1.777 3.065,0.039 6.163,-0.166 6.885,-0.457 z m 252.476,-6.299 c 1.049,-0.253 2.043,-0.603 2.208,-0.778 0.939,-0.993 -1.576,-1.513 -9.178,-1.897 -4.613,-0.233 -14.625,-1.044 -22.247,-1.803 -13.829,-1.376 -24.997,-1.623 -24.997,-0.554 0,1.054 5.527,3.361 9.465,3.951 2.192,0.328 6.003,0.933 8.469,1.343 3.448,0.574 7.932,0.683 19.428,0.472 8.219,-0.15 15.803,-0.48 16.852,-0.734 z M 62.4984,309.916 c 0.8007,-0.406 1.5378,-1.189 1.6381,-1.74 0.1734,-0.952 -0.0975,-0.986 -5.4736,-0.671 -9.1142,0.532 -13.7259,1.717 -11.8787,3.053 1.106,0.799 13.9033,0.277 15.7142,-0.642 z M 463.44,303.442 c 3.681,-1.628 2.561,-3.224 -2.619,-3.732 -1.823,-0.179 -6.228,-0.698 -9.79,-1.152 -8.358,-1.066 -20.295,-0.803 -21.501,0.473 -0.442,0.467 -0.683,1.181 -0.536,1.587 0.822,2.264 30.253,4.677 34.446,2.824 z m -110.529,-1.081 c 0.95,-0.42 1.727,-0.997 1.727,-1.282 0,-0.769 -1.195,-1.045 -6.974,-1.609 -2.877,-0.281 -7.908,-0.785 -11.18,-1.12 -7.718,-0.789 -17.214,0.352 -17.214,2.069 0,0.774 1.715,1.033 10.959,1.656 4.795,0.324 8.942,0.673 9.216,0.777 1.528,0.58 11.898,0.202 13.466,-0.491 z m 48.18,-0.917 c 6.539,-0.791 9.839,-1.397 9.839,-1.807 0,-0.339 -0.393,-0.777 -0.872,-0.973 -0.48,-0.196 -7.037,-0.339 -14.571,-0.319 -7.535,0.02 -16.042,-0.182 -18.905,-0.452 -3.469,-0.327 -5.523,-0.311 -6.156,0.047 -1.374,0.778 -0.503,1.423 3.194,2.362 10.146,2.578 14.206,2.746 27.471,1.142 z m -38.838,-7.361 c 1.002,-0.567 1.005,-0.607 0.101,-1.306 -0.968,-0.749 -10.287,-1.037 -12.573,-0.389 -1.426,0.404 -1.434,1.073 -0.016,1.548 3.791,1.273 10.362,1.351 12.488,0.147 z m -41.115,-1.305 c 1.669,-0.474 1.36,-1.141 -0.816,-1.761 -6.174,-1.759 -11.999,-2.762 -17.546,-3.02 -11.413,-0.532 -22.604,1.8 -18.502,3.855 0.48,0.24 6.813,0.573 14.073,0.74 7.261,0.166 15.107,0.348 17.435,0.403 2.329,0.055 4.739,-0.043 5.356,-0.217 z M 15.1491,334.611 c -3.2869,-0.26 -6.08252,-0.585 -6.21251,-0.723 -0.50987,-0.539 1.33881,-1.202 4.20221,-1.507 5.9002,-0.628 17.584,-1.385 25.6708,-1.662 6.8499,-0.234 8.3855,-0.149 9.2153,0.514 0.9788,0.782 0.9746,0.8 -0.2491,1.089 -3.0994,0.73 -13.2226,1.935 -18.4311,2.194 -3.1508,0.156 -6.2891,0.348 -6.9741,0.426 -0.685,0.077 -3.9346,-0.071 -7.2215,-0.331 z M 157.868,289.985 c 0,-0.686 5.124,-1.289 6.547,-0.771 0.997,0.363 0.797,0.484 -1.316,0.798 -3.616,0.537 -5.231,0.529 -5.231,-0.027 z m 286.936,-1.171 c -9.705,-0.948 -15.443,-2.464 -15.443,-4.081 0,-0.636 3.13,-1.098 7.473,-1.104 6.56,-0.007 29.739,2.846 32.627,4.019 0.973,0.395 0.955,1.049 -0.039,1.452 -1.144,0.465 -19.068,0.257 -24.618,-0.286 z m -316.327,-0.959 c -6.914,-0.82 -12.454,-1.748 -12.454,-2.087 0,-0.513 11.755,-1.659 20.427,-1.991 10.668,-0.409 31.038,0.947 30.043,1.999 -1.446,1.53 -29.639,3.071 -38.016,2.079 z M 0.950042,283.726 c 0,-2.031 0.099868,-2.182 1.618998,-2.455 0.89045,-0.16 4.64527,-0.867 8.34406,-1.572 12.8408,-2.446 24.0488,-2.92 31.8846,-1.347 5.2057,1.044 4.4423,1.391 -7.07,3.209 -5.2915,0.836 -12.5351,2 -16.0969,2.588 -3.5618,0.588 -9.2221,1.22 -12.57839,1.405 l -6.102368,0.337 z M 415.164,281.948 c -2.466,-0.201 -10.312,-0.62 -17.435,-0.932 -11.279,-0.495 -19.188,-1.444 -20.105,-2.414 -0.793,-0.839 2.332,-0.901 19.235,-0.382 15.542,0.477 19.358,0.744 22,1.54 5.894,1.775 4.121,2.825 -3.695,2.188 z M 0.950042,275.18 v -4.875 l 6.351448,0.277 c 6.42241,0.28 9.35411,0.941 10.42701,2.353 0.9649,1.27 0.2203,2.16 -2.5013,2.99 -3.8812,1.184 -11.88783,3.525 -13.15631,3.846 -1.100935,0.279 -1.120848,0.198 -1.120848,-4.591 z"
     fill="#fdebad"
     id="path328"
     style="display:inline"
     sodipodi:nodetypes="scccccccssccccccsccccsccssccccccccccccccccccsscccscccccccccccscccccccccscccccccccccscccccccccsscssccccccccccscccccccccccccccccccsscccsccccsccccccscscccccsccccccscccccccccscsccccccccccccccccsccscsccscsccccccccccccccscscccscccssccscscccccscccsscccsccssccccsscccccs"
     inkscape:export-filename="./water-bottom.svg"
     inkscape:export-xdpi="96"
     inkscape:export-ydpi="96" />
  <path
     d="m 272.837,298.258 c -1.45,-0.015 -10.145,0.279 -19.324,0.655 -18.825,0.772 -25.187,0.498 -25.668,-1.106 -0.602,-2.007 -2.043,-2.212 -19.734,-2.802 -15.035,-0.503 -19.588,-0.943 -17.614,-1.705 1.997,-0.77 4.007,-2.173 4.131,-2.883 0.092,-0.522 -0.387,-1.071 -1.243,-1.426 -1.883,-0.779 -13.205,-2.733 -15.84,-2.733 -1.164,0 -2.874,-0.166 -3.798,-0.368 -1.384,-0.302 -0.625,-0.539 4.296,-1.342 5.233,-0.854 10.078,-1.005 38.856,-1.208 25.719,-0.182 35.048,-0.064 42.841,0.538 23.506,1.818 51.688,2.438 61.273,1.349 2.74,-0.311 9.408,-1.166 14.819,-1.9 19.545,-2.651 28.05,-2.592 40.725,0.284 -34.53279,5.16126 -68.81723,15.62125 -103.72,14.647 z m 48.301,-5.48 c 1.669,-0.474 1.36,-1.141 -0.816,-1.761 -6.174,-1.759 -11.999,-2.762 -17.546,-3.02 -11.413,-0.532 -22.604,1.8 -18.502,3.855 0.48,0.24 6.813,0.573 14.073,0.74 7.261,0.166 15.107,0.348 17.435,0.403 2.329,0.055 4.739,-0.043 5.356,-0.217 z m -163.27,-2.793 c 0,-0.686 5.124,-1.289 6.547,-0.771 0.997,0.363 0.797,0.484 -1.316,0.798 -3.616,0.537 -5.231,0.529 -5.231,-0.027 z m 311.593,-2.337 c 0.973,0.395 0.955,1.049 -0.039,1.452 -37.44982,5.15508 -40.11454,-13.93944 0.039,-1.452 z m -340.984,0.207 c -6.914,-0.82 -12.454,-1.748 -12.454,-2.087 0,-0.513 11.755,-1.659 20.427,-1.991 10.668,-0.409 31.038,0.947 30.043,1.999 -1.446,1.53 -29.639,3.071 -38.016,2.079 z m 363.901,-0.015 c -1.278,-0.344 -1.115,-0.411 1.12,-0.465 1.451,-0.034 2.616,0.173 2.616,0.465 0,0.596 -1.523,0.596 -3.736,0 z m -4.484,-3.523 c -0.822,-0.111 -6.314,-0.907 -12.205,-1.769 -5.89,-0.862 -16.202,-2.154 -22.915,-2.872 -16.266,-1.739 -20.798,-2.577 -25.358,-4.689 -4.596,-2.128 -7.387,-2.808 -13.248,-3.225 -5.736,-0.409 -12.453,-1.266 -14.728,-1.88 -1.316,-0.355 -1.961,-0.925 -2.491,-2.198 -0.71,-1.707 -0.746,-1.722 -5.198,-2.11 -2.466,-0.215 -13.787,-0.334 -25.157,-0.264 l -20.673,0.128 -4.982,-1.784 -4.981,-1.785 -13.7,-0.431 c -7.534,-0.237 -18.182,-0.92 -23.662,-1.517 -13.89,-1.514 -14.761,-1.654 -14.547,-2.329 0.131,-0.411 3.796,-0.588 12.178,-0.588 6.595,0 12.16,-0.177 12.367,-0.393 0.207,-0.216 0.129,-0.967 -0.173,-1.668 -0.528,-1.228 -0.453,-1.299 2.037,-1.914 3.677,-0.909 5.942,-1.972 5.718,-2.684 -0.143,-0.452 -6.189,-0.632 -23.084,-0.686 l -22.89,-0.073 -6.617,-1.694 c -7.874,-2.015 -11.823,-2.141 -25.358,-0.812 -8.341,0.82 -9.21,0.823 -10.959,0.043 -2.337,-1.042 -11.918,-1.534 -34.28,-1.762 -11.604,-0.118 -17.025,-0.38 -19.926,-0.962 -2.192,-0.439 -6.451,-1.185 -9.465,-1.656 -7.53,-1.178 -7.804,-1.247 -7.449,-1.855 0.204,-0.348 4.726,-0.484 12.848,-0.386 l 12.535,0.15 4.104,-1.692 c 3.071,-1.265 5.518,-1.837 9.714,-2.269 3.085,-0.317 10.093,-1.493 15.573,-2.612 16.544,-3.38 18.935,-3.613 23.354,-2.279 1.507,0.454 -0.08,1.204 -2.569,1.214 -1.81,0.007 -2.201,0.205 -2.603,1.325 -0.26,0.725 -0.689,1.318 -0.951,1.318 -0.263,0 -1.102,0.251 -1.864,0.557 -2.847,1.146 -0.158,1.597 7.386,1.24 7.387,-0.351 14.857,0.057 14.857,0.811 0,0.225 -1.737,0.704 -3.861,1.063 -2.123,0.36 -4.605,0.981 -5.515,1.38 -3.203,1.403 -1.32,1.823 6.793,1.515 8.926,-0.34 14.896,-1.009 19.052,-2.135 1.822,-0.494 4.594,-0.726 7.529,-0.63 4.321,0.141 4.656,0.231 4.798,1.285 0.109,0.807 0.611,1.221 1.744,1.438 3.616,0.693 13.402,1.416 25.702,1.898 18.733,0.734 20.631,1.02 17.996,2.716 -1.311,0.843 -1.521,1.18 -0.969,1.55 0.389,0.26 5.233,0.477 10.765,0.481 5.532,0.005 10.176,0.211 10.321,0.458 0.145,0.248 -0.313,0.728 -1.018,1.068 -2.855,1.376 0.491,2.749 9.282,3.81 6.456,0.779 10.067,0.8 29.99,0.175 11.723,-0.368 15.957,-0.671 16.435,-1.176 0.897,-0.951 -0.257,-1.657 -2.836,-1.736 -1.096,-0.033 -2.553,-0.24 -3.238,-0.459 l -1.246,-0.399 1.246,-0.325 c 5.332,-1.393 36.91,0.14 43.003,2.087 2.178,0.697 -0.265,0.938 -7.964,0.786 -6.646,-0.131 -8.211,-0.028 -8.035,0.529 0.12,0.381 1.641,0.998 3.38,1.37 1.74,0.372 3.274,0.795 3.409,0.938 0.9,0.952 -2.917,1.765 -10.255,2.184 -4.451,0.254 -6.103,0.531 -6.103,1.022 0,0.765 0.743,1.04 4.11,1.524 2.339,0.336 2.927,1.052 1.825,2.219 -1.151,1.217 1.091,1.483 12.746,1.512 12.875,0.032 15.165,0.325 23.064,2.949 3.791,1.26 6.082,1.666 10.629,1.887 6.905,0.335 20.725,-0.657 24.094,-1.73 1.319,-0.42 4.268,-0.764 6.554,-0.764 h 4.155 v 8.961 8.96 l -3.363,-0.079 c -1.849,-0.043 -4.035,-0.169 -4.857,-0.28 z m -35.369,-1.749 c -1.218,-0.328 -0.988,-0.402 1.246,-0.402 1.507,0 3.412,0.181 4.234,0.402 1.00837,0.97439 -3.83216,0.35632 -5.48,0 z m -37.361,-0.62 c -2.466,-0.201 -10.312,-0.62 -17.435,-0.932 -11.279,-0.495 -19.188,-1.444 -20.105,-2.414 -0.793,-0.839 2.332,-0.901 19.235,-0.382 15.542,0.477 19.358,0.744 22,1.54 5.894,1.775 4.121,2.825 -3.695,2.188 z M 152.139,279.61 c -2.739,-0.417 -9.671,-0.93 -15.402,-1.14 -6.509,-0.239 -10.486,-0.59 -10.594,-0.935 -0.095,-0.303 1.4,-1.088 3.322,-1.743 6.402,-2.182 4.109,-2.713 -5.969,-1.383 -8.516,1.124 -42.0034,2.113 -44.776,1.323 -1.2618,-0.359 -1.9922,-0.816 -1.737,-1.086 1.2773,-1.352 9.2834,-2.705 18.616,-3.148 5.898,-0.28 12.87,-0.991 17.749,-1.811 8.479,-1.425 14.677,-1.67 21.432,-0.848 6.82,0.83 58.224,-0.699 76.052,-2.262 7.231,-0.634 8.623,-1.228 5.79,-2.47 -1.252,-0.548 -5.517,-0.591 -21.564,-0.219 -18.467,0.429 -54.601,0.366 -55.082,-0.096 -0.897,-0.861 7.228,-2.151 19.468,-3.092 5.808,-0.447 10.673,-0.931 10.81,-1.077 0.138,-0.146 0,-0.53 -0.306,-0.853 -0.392,-0.415 -2.962,-0.487 -8.684,-0.244 -4.471,0.19 -16.31,0.56 -26.311,0.822 -10,0.262 -21.321,0.84 -25.157,1.285 -10.1957,1.181 -26.4082,2.321 -38.3574,2.698 -5.7536,0.181 -12.5908,0.696 -15.1936,1.143 -3.6169,0.622 -6.758,0.738 -13.3256,0.492 -8.4655,-0.318 -10.4186,0.021 -6.9741,1.213 1.9757,0.683 11.8396,2.445 16.4338,2.936 3.716,0.397 4.2897,0.806 3.0171,2.153 -1.2292,1.3 -8.3617,0.796 -26.0918,-1.843 -7.8307,-1.165 -17.4139,-2.28 -21.29601,-2.476 l -7.058348,-0.356 v -2.554 -2.555 l 12.578358,0.015 c 6.9181,0.007 14.2596,0.247 16.3145,0.529 11.4517,1.573 16.9372,1.714 16.9372,0.435 0,-0.658 -0.3238,-0.735 -7.4723,-1.78 -3.4248,-0.501 -7.4697,-1.109 -8.9887,-1.351 -1.519,-0.243 -7.5716,-0.693 -13.4501,-1.001 -5.8786,-0.308 -11.86524,-0.706 -13.30366,-0.885 l -2.615298,-0.325 v -2.036 -2.035 l 3.362528,0.002 c 1.84939,0.002 5.49213,0.335 8.09503,0.741 2.6028,0.406 6.862,0.894 9.4648,1.085 2.6029,0.191 8.6555,0.907 13.4502,1.59 10.7274,1.529 18.4222,2.073 19.4135,1.373 1.19,-0.841 0.41,-1.125 -5.2878,-1.928 -7.8344,-1.103 -8.7025,-1.287 -8.4124,-1.784 0.1438,-0.246 1.439,-0.739 2.8783,-1.097 3.0529,-0.758 4.277,-1.366 5.336,-2.651 0.5567,-0.675 2.0694,-1.083 5.5003,-1.482 10.2237,-1.189 14.5184,-1.274 18.1826,-0.361 1.9179,0.477 5.5046,0.864 7.9704,0.859 5.223,-0.009 17.3118,-1.705 21.7985,-3.055 2.767,-0.833 5.155,-0.921 21.708,-0.805 10.23,0.072 18.96,0.345 19.401,0.606 0.878,0.52 -3.634,2.139 -9.71,3.484 -3.539,0.784 -3.891,0.97 -3.403,1.806 0.505,0.864 5.842,0.657 12.724,-0.492 6.01,-1.005 14.528,-1.393 16.145,-0.736 0.541,0.219 0.693,0.707 0.488,1.567 l -0.296,1.249 11.633,-0.07 c 7.258,-0.044 12.851,0.169 14.871,0.566 5.365,1.054 9.221,2.601 10.618,4.259 1.857,2.206 4.302,2.406 16.2,1.326 17.069,-1.55 36.504,-0.786 55.128,2.167 5.773,0.915 7.224,1.51 5.074,2.081 -1.605,0.426 -2.621,1.573 -1.844,2.081 0.297,0.194 3.502,0.694 7.123,1.112 3.621,0.418 11.404,1.397 17.294,2.175 8.05,1.063 12.722,1.399 18.808,1.352 4.78,-0.038 7.983,0.134 7.817,0.418 -0.155,0.265 -0.548,0.483 -0.875,0.485 -1.529,0.007 -4.329,1.175 -4.329,1.805 0,1.126 1.712,1.34 10.802,1.347 4.884,0.005 9.163,0.251 9.963,0.574 1.328,0.536 1.353,0.605 0.474,1.288 -0.51,0.397 -2.864,1.199 -5.23,1.782 -8.164,2.013 -14.005,2.297 -41.261,2.005 -26.834,-0.287 -29.9,-0.5 -43.493,-3.017 -8.972,-1.661 -15.105,-1.564 -26.9,0.426 -15.093,2.546 -20.05,2.896 -43.091,3.045 -16.562,0.107 -22.55,-0.032 -26.402,-0.618 z m -56.952,-0.664 c -0.8004,-0.537 2.0201,-1.107 5.518,-1.116 3.032,-0.007 3.068,0.803 0.055,1.24 -3.0914,0.449 -4.7752,0.411 -5.573,-0.124 z m 251.701,-5.564 c -0.931,-0.725 -0.932,-0.768 -0.049,-1.13 0.96,-0.394 8.723,0.062 10.664,0.626 2.548,0.74 0.795,1.257 -4.264,1.257 -3.883,0 -5.654,-0.21 -6.351,-0.753 z M 58.0905,272.498 c 0.7284,-0.771 9.1138,-1.334 9.1138,-0.612 0,0.733 -2.4699,1.194 -6.3888,1.194 -2.3905,0 -3.1267,-0.157 -2.725,-0.582 z m 307.8805,-1.921 c -0.479,-0.115 -0.871,-0.457 -0.871,-0.759 0,-0.313 0.482,-0.413 1.12,-0.232 0.617,0.175 1.775,0.321 2.574,0.325 0.799,0.004 1.297,0.172 1.107,0.373 -0.403,0.427 -2.67,0.596 -3.93,0.293 z M 72.684,266.875 c 0,-0.551 8.2519,-1.717 11.802,-1.668 4.0245,0.057 0.9797,0.849 -4.8278,1.256 -2.8769,0.202 -5.623,0.485 -6.1024,0.629 -0.4795,0.144 -0.8718,0.047 -0.8718,-0.217 z m 386.897,-1.149 c -4.002,-0.443 -5.215,-1.021 -4.546,-2.165 0.444,-0.761 18.803,-0.36 25.112,0.549 4.934,0.71 5.737,1.591 1.45,1.591 -1.792,0 -6.601,0.103 -10.685,0.229 -4.085,0.125 -9.184,0.033 -11.331,-0.204 z m 17.354,-6.877 c -1.077,-0.29 -0.45,-0.402 2.241,-0.402 2.055,0 4.409,0.181 5.231,0.402 1.077,0.29 0.45,0.402 -2.242,0.402 -2.054,0 -4.408,-0.181 -5.23,-0.402 z m -9.714,-2.635 c -0.926,-0.314 -0.446,-0.436 1.868,-0.475 1.777,-0.03 3.113,0.174 3.113,0.475 0,0.613 -3.17,0.613 -4.981,0 z m -265.515,-2.467 c -6.811,-1.17 -8.913,-2.422 -3.363,-2.002 12.668,0.96 17.867,1.507 18.098,1.902 0.26,0.445 -12.236,0.53 -14.735,0.1 z m 262.526,-1.248 c -6.3,-0.805 -13.67,-3.225 -13.313,-4.372 0.27,-0.868 8.866,-1.848 20.374,-2.323 5.391,-0.222 9.971,-0.584 10.179,-0.804 0.208,-0.22 0.113,-0.68 -0.211,-1.023 -0.453,-0.479 -3.261,-0.408 -12.172,0.307 -6.37,0.511 -11.993,1.016 -12.494,1.121 -2.432,0.508 -16.089,-1.174 -31.966,-3.939 -1.644,-0.286 -5.267,-1.582 -8.051,-2.88 -2.784,-1.297 -6.371,-2.715 -7.971,-3.15 -1.599,-0.435 -4.491,-1.253 -6.425,-1.817 -2.236,-0.652 -6.663,-1.231 -12.151,-1.59 -4.749,-0.309 -8.725,-0.659 -8.835,-0.775 -0.51,-0.54 7.389,-0.877 22.012,-0.941 13.885,-0.06 16.997,0.081 24.128,1.095 5.379,0.765 8.857,1.526 10.14,2.219 1.075,0.58 3.409,1.377 5.189,1.77 3.871,0.858 4.201,1.112 2.388,1.841 -0.761,0.306 -1.262,0.686 -1.112,0.844 0.149,0.158 3.15,0.399 6.669,0.536 10.096,0.394 18.379,1.228 24.581,2.475 4.06,0.817 7.761,1.166 12.703,1.197 3.836,0.022 7.254,0.084 7.597,0.132 0.448,0.063 0.623,1.471 0.623,5.014 v 4.927 l -5.605,0.341 c -7.24,0.442 -22.122,0.325 -26.277,-0.205 z m -26.513,-14.112 c 0.169,-0.541 -0.6,-0.672 -3.448,-0.586 -3.953,0.118 -4.591,0.285 -4.128,1.077 0.462,0.791 7.314,0.347 7.576,-0.491 z M 10.4149,248.475 C 9.18201,248.378 6.54803,247.91 4.56165,247.434 1.00078,246.581 0.950042,246.545 0.950042,244.881 v -1.687 l 6.427148,-0.359 c 8.18381,-0.457 14.05811,0.028 17.18351,1.42 2.7048,1.204 0.6562,1.319 21.0812,-1.187 11.4087,-1.399 25.5663,-2.308 29.358,-1.883 2.1822,0.244 3.8296,0.099 5.7287,-0.506 3.0526,-0.971 18.8511,-1.743 17.1121,-0.836 -2.1173,1.105 -22.3197,3.843 -43.0348,5.832 -6.1342,0.59 -13.9203,1.541 -17.3026,2.115 -4.7674,0.81 -8.2505,1.024 -15.4981,0.952 -5.1417,-0.051 -10.3573,-0.171 -11.5903,-0.267 z m 358.1721,-0.103 -2.242,-0.339 1.681,-0.39 c 2.495,-0.578 9.029,-0.479 9.029,0.137 0,0.29 -0.756,0.527 -1.681,0.527 -0.925,0 -2.326,0.091 -3.113,0.203 -0.788,0.111 -2.441,0.049 -3.674,-0.138 z m 40.982,-0.56 c -2.578,-0.445 -3.338,-1.086 -1.286,-1.086 2.987,0 7.628,0.687 7.628,1.129 0,0.516 -3.227,0.494 -6.342,-0.043 z m 11.075,-2.389 -1.993,-0.695 3.3,-0.055 c 3.736,-0.063 6.414,0.382 6.414,1.065 0,0.697 -5.457,0.475 -7.721,-0.315 z M 92.3841,245.214 c 0.7141,-0.811 5.771,-1.746 8.3359,-1.541 l 2.102,0.168 -1.992,0.67 c -2.8274,0.952 -9.1262,1.476 -8.4459,0.703 z m 270.2249,-2.497 c -5.165,-0.37 -7.971,-0.811 -7.971,-1.252 0,-0.496 4.391,-1.321 11.458,-2.154 9.085,-1.07 28.878,-0.585 36.739,0.901 2.759,0.522 1.931,1.611 -1.495,1.966 -3.729,0.386 -34.834,0.819 -38.731,0.539 z m -352.84872,-2.155 -8.874172,-0.186 0.156502,-1.437 0.15651,-1.437 14.82008,-0.14 c 14.0639,-0.132 17.0951,-0.485 13.4501,-1.563 -1.7581,-0.52 -16.7728,-0.525 -23.41319,-0.007 l -5.106067,0.398 v -1.883 c 0,-1.711 0.102387,-1.849 1.120847,-1.513 0.61646,0.203 1.56301,0.694 2.10345,1.089 1.50721,1.104 23.16836,0.979 30.40096,-0.175 4.3548,-0.695 9.4936,-0.882 25.0318,-0.912 10.7536,-0.019 19.5523,0.14 19.5525,0.358 2e-4,0.217 -0.2798,0.41 -0.6223,0.429 -0.3425,0.017 -4.5601,0.215 -9.3725,0.436 -4.8124,0.22 -9.0395,0.591 -9.3936,0.822 -1.3389,0.876 0.746,1.327 6.1629,1.335 6.8781,0.01 6.4393,0.796 -0.8834,1.582 -2.9654,0.318 -8.4575,1.068 -12.2047,1.666 -7.1406,1.14 -22.9998,1.559 -43.08572,1.138 z m 93.80872,-2.78 c 3.287,-1.288 19.927,-2.727 19.927,-1.723 0,0.221 -1.177,0.729 -2.616,1.128 -3,0.832 -19.348,1.394 -17.311,0.595 z m 228.03,-0.491 c -0.343,-0.116 -1.158,-0.649 -1.811,-1.186 -0.741,-0.608 -2.007,-0.975 -3.362,-0.975 -1.196,0 -2.175,-0.2 -2.175,-0.445 0,-0.244 4.267,-0.994 9.482,-1.666 9.016,-1.161 9.965,-1.189 19.303,-0.565 16.692,1.116 18.725,1.916 10.32,4.063 -2.814,0.719 -6.153,0.9 -17.311,0.938 -7.603,0.026 -14.104,-0.048 -14.446,-0.164 z M 161.355,235.13 c 1.773,-0.601 6.054,-0.601 4.733,0 -0.548,0.249 -2.118,0.446 -3.487,0.437 -1.965,-0.012 -2.228,-0.104 -1.246,-0.437 z m 106.854,0.263 c -0.274,-0.099 -1.563,-0.332 -2.864,-0.517 -1.302,-0.186 -2.367,-0.588 -2.367,-0.895 0,-0.666 12.15,-0.315 13.699,0.396 0.844,0.386 0.691,0.515 -0.996,0.838 -2.046,0.392 -6.584,0.5 -7.472,0.178 z m 28.146,-1.91 c -2.055,-0.25 -6.763,-1.043 -10.462,-1.761 -3.698,-0.719 -9.527,-1.565 -12.952,-1.881 -3.424,-0.316 -9.029,-1.138 -12.454,-1.826 -3.424,-0.688 -7.627,-1.415 -9.34,-1.616 -3.13,-0.368 -3.858,-0.865 -2.242,-1.53 1.132,-0.465 5.508,-0.685 27.447,-1.38 15.601,-0.495 18.49,-0.714 20.876,-1.582 4.08,-1.485 12.109,-1.377 19.805,0.268 3.285,0.701 8.663,1.427 11.95,1.612 3.288,0.185 10.686,0.814 16.44,1.398 5.753,0.583 16.111,1.23 23.016,1.438 6.906,0.207 12.675,0.503 12.822,0.658 0.32,0.339 -19.238,1.541 -24.898,1.531 -2.202,-0.002 -6.686,-0.361 -9.963,-0.793 -9.175,-1.211 -16.669,-0.957 -16.669,0.565 0,0.383 0.392,0.94 0.871,1.239 1.346,0.839 0.197,1.352 -5.273,2.355 -10.444,1.916 -20.323,2.361 -28.974,1.305 z m 21.359,-7.79 c 1.206,-0.808 0.075,-1.632 -2.238,-1.632 -2.792,0 -6.748,1.018 -6.383,1.642 0.352,0.603 7.72,0.594 8.621,-0.01 z m -163.333,6.839 c -4.495,-0.294 -5.721,-0.587 -8.718,-2.085 -2.828,-1.414 -4.428,-1.83 -8.468,-2.199 -2.74,-0.251 -6.739,-0.821 -8.886,-1.267 -2.148,-0.446 -5.021,-0.812 -6.385,-0.812 -2.232,0 -2.45,-0.102 -2.173,-1.026 0.258,-0.859 -0.043,-1.126 -1.834,-1.629 -1.179,-0.331 -3.6,-1.263 -5.381,-2.071 -4.003,-1.815 -11.167,-2.415 -27.8963,-2.337 -6.1647,0.029 -10.648,-0.128 -9.9631,-0.349 0.685,-0.221 6.329,-0.659 12.5423,-0.973 6.2133,-0.315 13.9471,-0.944 17.1861,-1.398 4.991,-0.7 7.22,-0.735 14.607,-0.229 4.795,0.329 9.615,0.813 10.71,1.075 1.096,0.263 2.834,0.484 3.861,0.491 1.999,0.012 2.586,0.882 0.786,1.162 -2.032,0.317 -1.411,1.222 1.456,2.125 2.048,0.645 5.349,0.969 11.582,1.137 6.47,0.174 9.195,0.451 10.57,1.074 2.222,1.008 6.692,1.08 15.367,0.246 4.011,-0.385 7.86,-0.439 10.711,-0.149 2.907,0.295 3.759,0.503 2.457,0.601 -3.631,0.271 -5.231,0.708 -5.231,1.427 0,0.391 0.337,0.847 0.747,1.014 0.411,0.167 0.748,0.822 0.748,1.455 0,1.15 0.009,1.151 7.846,0.799 7.864,-0.353 14.072,-0.019 14.072,0.755 0,0.773 -5.414,2.562 -8.567,2.831 -5.28,0.45 -36.187,0.696 -41.746,0.332 z M 26.3558,231.511 c 0.411,-0.269 2.9889,-0.629 5.7288,-0.799 2.9988,-0.187 4.4705,-0.131 3.6976,0.139 -1.9007,0.665 -10.3346,1.256 -9.4264,0.66 z m 65.0089,-0.454 c -0.8219,-0.123 -1.7074,-0.444 -1.9677,-0.711 -0.5702,-0.587 7.6008,-0.659 12.231,-0.108 l 3.187,0.379 -2.491,0.365 c -2.6995,0.397 -8.5599,0.437 -10.9593,0.075 z m 155.6723,0.054 c -0.685,-0.103 -3.094,-0.451 -5.355,-0.774 -4.209,-0.601 -5.59,-1.54 -2.241,-1.523 2.954,0.015 10.521,0.941 11.172,1.367 0.409,0.267 0.295,0.51 -0.371,0.786 -1.024,0.425 -1.255,0.435 -3.205,0.144 z M 8.92048,229.869 c 0,-0.295 0.67251,-0.537 1.49442,-0.537 0.822,0 1.4979,-0.178 1.5021,-0.395 0.024,-1.245 1.5971,-1.824 9.5806,-3.524 9.3251,-1.986 14.3686,-2.307 23.2899,-1.481 4.0501,0.376 3.873,0.404 -4.0691,0.656 -7.6745,0.244 -9.5379,0.537 -8.7449,1.376 0.1672,0.177 2.5023,0.486 5.1891,0.687 4.2581,0.319 4.5974,0.411 2.6433,0.715 -1.2329,0.193 -3.9229,0.476 -5.9778,0.629 -9.5274,0.714 -22.7747,1.91 -23.7868,2.148 -0.61644,0.145 -1.12082,0.019 -1.12082,-0.274 z M 480.173,229.078 c 0,-1.628 0.136,-1.596 -11.458,-2.682 -5.068,-0.474 -9.384,-0.971 -9.589,-1.103 -0.975,-0.626 -0.179,-1.232 1.619,-1.232 2.161,0 2.676,-0.737 0.872,-1.249 -0.617,-0.175 -4.423,-0.321 -8.46,-0.325 -7.928,-0.007 -19.805,-0.924 -20.471,-1.58 -0.226,-0.223 0.278,-0.659 1.121,-0.97 1.697,-0.626 1.895,-1.214 0.802,-2.372 -0.642,-0.679 -0.537,-0.808 0.871,-1.065 4.044,-0.737 17.413,-0.946 22.972,-0.359 6.292,0.665 7.092,0.903 9.635,2.87 1.012,0.782 3.315,1.611 6.181,2.224 3.269,0.699 4.628,1.221 4.779,1.833 0.244,0.986 3.315,1.508 8.902,1.516 1.948,0.002 4.582,0.155 5.853,0.339 l 2.312,0.336 v 2.234 c 0,2.081 -0.107,2.257 -1.557,2.564 -0.856,0.181 -4.443,0.329 -7.97,0.329 h -6.414 z M 61.8859,228.097 c -3.884,-0.335 -7.2279,-0.788 -7.4307,-1.005 -0.2029,-0.218 -0.2375,-0.395 -0.077,-0.395 0.1605,0 3.1084,-0.593 6.5508,-1.318 8.888,-1.871 21.6308,-1.636 23.5878,0.435 0.7085,0.75 0.7449,1.003 0.1963,1.361 -1.7832,1.167 -14.1929,1.668 -22.8272,0.922 z m 155.5111,-0.102 c 1.662,-0.805 5.925,-0.964 10.762,-0.4 4.69,0.546 1.774,1.08 -6.029,1.105 -5.666,0.016 -6.092,-0.046 -4.733,-0.705 z m -110.81,-0.292 c -3.85,-0.799 -3.413,-0.981 2.065,-0.86 3.467,0.076 5.549,0.348 5.953,0.776 0.497,0.527 -0.022,0.647 -2.592,0.601 -1.767,-0.032 -4.209,-0.264 -5.426,-0.517 z M 3.4408,224.13 c 0,-0.354 0.9608,-0.612 2.36623,-0.636 1.30142,-0.02 2.75763,-0.12 3.23601,-0.217 0.47839,-0.097 0.99596,0.04 1.15026,0.304 0.1542,0.264 -0.46134,0.483 -1.36796,0.486 -0.90661,0.002 -2.48902,0.153 -3.51646,0.333 -1.23941,0.216 -1.86808,0.126 -1.86808,-0.27 z M 215.04,222.098 c 0.895,-0.118 2.24,-0.115 2.989,0.005 0.748,0.12 0.016,0.216 -1.628,0.213 -1.644,-0.002 -2.256,-0.101 -1.361,-0.218 z M 32.3337,220.876 c -1.507,-0.22 -7.3914,-0.424 -13.0765,-0.452 -6.1976,-0.032 -10.33672,-0.254 -10.33672,-0.556 0,-1.418 12.14412,-1.72 27.64752,-0.689 9.463,0.63 12.2047,1.031 12.2047,1.785 0,0.551 -12.5345,0.483 -16.439,-0.088 z m 193.2833,-0.493 c -2.603,-0.228 -9.664,-0.595 -15.692,-0.815 -12.237,-0.447 -15.716,-0.794 -15.746,-1.568 -0.012,-0.29 0.676,-0.742 1.527,-1.004 1.704,-0.524 1.785,-1.539 0.143,-1.795 -0.575,-0.09 -1.313,-0.505 -1.641,-0.923 -0.327,-0.417 -0.904,-0.759 -1.281,-0.759 -0.378,0 -0.686,-0.21 -0.686,-0.467 0,-0.964 6.869,-1.904 13.699,-1.875 4.932,0.019 9.891,0.475 16.937,1.552 9.02,1.378 11.26,1.525 23.662,1.546 7.535,0.012 18.519,-0.092 24.41,-0.234 8.99,-0.217 12.23,-0.07 20.175,0.912 5.206,0.643 13.724,1.534 18.93,1.979 11.315,0.969 19.786,2.3 19.353,3.041 -0.376,0.642 -7.763,0.211 -20.752,-1.211 -12.182,-1.334 -19.087,-1.369 -20.407,-0.104 -0.853,0.818 -2.676,0.964 -15.98,1.285 -30.521,0.737 -42.034,0.846 -46.651,0.44 z M 0.950042,218.527 c 0,-0.821 2.155238,-1.096 3.692538,-0.472 1.32917,0.539 0.33907,1.262 -1.72933,1.262 -1.41297,0 -1.963208,-0.221 -1.963208,-0.79 z m 54.174058,-0.65 c 1.1645,-0.111 3.0699,-0.111 4.2343,0 1.1645,0.111 0.2118,0.202 -2.1171,0.202 -2.3289,0 -3.2816,-0.091 -2.1172,-0.202 z m 333.3889,-0.69 c -3.151,-0.201 -9.876,-0.426 -14.945,-0.499 l -9.216,-0.133 4.733,-0.714 c 14.913,-2.25 25.555,-2.895 29.64,-1.795 0.822,0.221 1.214,0.431 0.872,0.465 -0.891,0.089 -0.773,1.644 0.124,1.644 0.411,0 0.747,0.205 0.747,0.455 0,0.457 -3.922,1.205 -5.424,1.035 -0.442,-0.05 -3.38,-0.256 -6.531,-0.458 z m 34.123,-0.171 c -2.633,-0.845 -1.384,-1.391 3.154,-1.38 3.983,0.009 5.498,0.697 3.397,1.543 -1.758,0.707 -4.013,0.651 -6.551,-0.163 z M 68.4497,216.109 c -15.6982,-1.244 -18.5589,-1.519 -19.4223,-1.87 -0.8981,-0.364 -0.897,-0.39 0.0308,-0.762 0.5279,-0.211 2.7021,-0.557 4.8315,-0.767 3.6555,-0.362 5.3911,-1.168 3.8134,-1.773 -0.9481,-0.363 10.6843,-1.535 15.7847,-1.591 2.223,-0.021 5.2492,0.205 6.7251,0.508 2.0785,0.426 14.4278,1.78 19.3714,2.123 0.4109,0.028 0.0747,0.28 -0.7473,0.559 -0.8955,0.304 -5.3141,0.37 -11.0251,0.163 -9.1171,-0.33 -11.6408,-0.156 -11.6408,0.798 0,0.239 4.4273,0.623 9.8385,0.853 l 9.8385,0.419 -3.9852,0.653 c -5.6576,0.926 -16.4159,1.242 -23.4132,0.687 z m 93.4033,0.212 c -7.875,-0.476 -7.499,-1.481 0.754,-2.012 3.677,-0.237 6.904,-0.81 9.832,-1.747 8.015,-2.565 5.511,-2.977 -11.161,-1.839 -11.187,0.764 -14.247,0.806 -19.428,0.266 -3.382,-0.352 -7.158,-0.646 -8.391,-0.652 -1.954,-0.01 -2.114,-0.092 -1.246,-0.632 1.161,-0.722 55.948,-0.876 58.004,-0.163 1.144,0.397 1.161,0.462 0.309,1.121 -0.545,0.422 -0.805,1.103 -0.653,1.716 0.234,0.948 -0.234,1.059 -7.035,1.668 -5.434,0.485 -7.68,0.903 -8.839,1.643 -1.561,0.997 -3.999,1.124 -12.146,0.631 z m 329.528,-1.524 c -1.37,-0.417 -3.225,-0.908 -4.122,-1.089 -0.897,-0.182 -1.765,-0.561 -1.93,-0.843 -0.181,-0.31 0.267,-0.397 1.133,-0.22 0.788,0.161 3.282,0.448 5.542,0.638 3.587,0.302 4.11,0.473 4.11,1.345 0,1.209 -1.182,1.252 -4.733,0.169 z m -82.693,-0.224 c -0.197,-0.336 1.323,-0.527 4.205,-0.527 2.676,0 4.513,0.215 4.513,0.527 0,0.31 -1.734,0.528 -4.205,0.528 -2.313,0 -4.344,-0.238 -4.513,-0.528 z M 0.950042,213.115 c 0,-1.57 1.168518,-2.688 1.756978,-1.681 0.16194,0.277 -0.05505,0.504 -0.4822,0.504 -0.42714,0 -0.77663,0.229 -0.77663,0.509 0,0.323 4.16473,0.39 11.34691,0.184 6.2408,-0.18 12.2373,-0.133 13.3256,0.103 l 1.9787,0.43 -1.9927,0.464 c -1.0959,0.256 -7.2045,0.603 -13.5746,0.772 L 0.950042,214.706 Z M 347.664,212.656 c -3.672,-0.567 -6.476,-1.387 -6.476,-1.894 0,-0.406 3.287,-0.472 11.289,-0.226 6.209,0.192 13.652,0.348 16.539,0.348 3.003,0 5.047,0.196 4.776,0.458 -1.147,1.111 -20.986,2.109 -26.128,1.314 z m -42.343,-1.462 c -6.85,-0.451 -7.917,-0.611 -4.981,-0.747 5.553,-0.257 17.2,0.464 16.38,1.014 -0.379,0.253 -1.137,0.426 -1.685,0.384 -0.548,-0.043 -4.919,-0.336 -9.714,-0.651 z M 26.9785,211.016 c -5.0002,-0.086 -9.0913,-0.362 -9.0913,-0.614 0,-0.253 5.8845,-0.581 13.0765,-0.731 9.8696,-0.205 13.7446,-0.477 15.8004,-1.111 2.7402,-0.844 11.9889,-1.208 11.2661,-0.444 -0.2054,0.218 -2.5227,0.514 -5.1496,0.659 -3.1915,0.176 -4.8443,0.483 -4.9817,0.923 -0.1219,0.391 0.2674,0.686 0.9568,0.725 3.1013,0.176 -3.9222,0.9 -8.0535,0.83 -2.6028,-0.044 -8.8235,-0.151 -13.8237,-0.237 z M 284.523,210.5 c 1.028,-0.114 2.709,-0.114 3.737,0 1.027,0.114 0.187,0.207 -1.869,0.207 -2.054,0 -2.895,-0.093 -1.868,-0.207 z m 107.726,-0.67 -3.487,-0.341 4.483,-0.047 c 2.466,-0.026 5.604,0.138 6.974,0.363 2.454,0.405 2.439,0.411 -0.996,0.388 -1.918,-0.012 -5.056,-0.176 -6.974,-0.363 z M 0.950042,207.99 v -1.468 l 4.109758,0.322 c 2.26037,0.176 6.7998,0.5 10.0876,0.72 l 5.9778,0.4 -4.7324,0.343 c -2.6029,0.188 -7.14229,0.525 -10.08762,0.747 l -5.355138,0.404 z m 88.297558,0.949 c 0.4795,-0.132 1.2641,-0.132 1.7435,0 0.4795,0.133 0.0872,0.241 -0.8717,0.241 -0.959,0 -1.3513,-0.108 -0.8718,-0.241 z m 167.0054,-0.49 c -10.225,-1.568 -14.464,-1.784 -35.788,-1.821 -12.373,-0.019 -23.504,-0.211 -24.737,-0.421 l -2.242,-0.381 2.366,-0.402 c 1.838,-0.313 2.366,-0.621 2.366,-1.383 5.95337,-5.21605 25.91862,-0.38652 31.633,-0.315 8.084,0.097 11.82,0.382 16.439,1.253 6.399,1.207 15.289,2.214 19.553,2.215 1.438,0 2.615,0.237 2.615,0.527 0,0.29 -1.088,0.527 -2.418,0.527 -1.329,0 -3.739,0.097 -5.355,0.215 -1.615,0.118 -3.61,0.112 -4.432,-0.014 z m 66.005,-0.233 c -8.766,-0.486 -14.065,-1.227 -20.793,-2.909 -4.804,-1.201 -5.976,-1.275 -20.066,-1.275 -122.11493,-8.24768 -42.68037,-12.78706 36.127,-0.237 5.179,0.843 20.271,1.72 32.041,1.862 9.079,0.109 10.335,0.698 3.079,1.443 -17.446,1.793 -17.886,1.809 -30.388,1.116 z m 103.616,0.136 c 0,-0.347 1.889,-0.624 4.959,-0.727 2.727,-0.092 4.801,-0.007 4.608,0.186 -0.641,0.646 -9.567,1.15 -9.567,0.541 z m -55.046,-0.981 c -1.096,-0.457 -4.122,-1 -6.725,-1.207 l -4.732,-0.377 5.729,-0.087 c 5.361,-0.081 14.955,0.599 18.062,1.279 2.939,0.644 0.551,1.268 -4.766,1.246 -3.856,-0.014 -6.189,-0.279 -7.568,-0.854 z m 78.958,0.296 c -9.634,-0.726 -9.63,-0.918 0.014,-0.717 5.077,0.106 9.784,0.427 10.461,0.712 1.528,0.646 -1.945,0.647 -10.475,0.005 z m -349.205,-0.473 c 0,-0.29 0.056,-0.528 0.124,-0.529 0.069,-0.001 4.048,-0.841 8.842,-1.866 11.41933,-4.63973 24.77247,-0.008 33.348,-0.569 3.057,-0.205 5.831,-0.084 7.75,0.34 1.644,0.364 6.015,0.844 9.714,1.068 3.834,0.232 0.836,0.257 -6.974,0.059 -22.007,-0.558 -29.771,-0.369 -36.999,0.904 -6.66,1.173 -15.805,1.516 -15.805,0.593 z m -25.6553,-0.583 c -5.7988,-0.304 -15.6918,-1.808 -15.6918,-2.386 0,-0.123 4.9877,-0.173 11.0839,-0.111 29.335415,-4.31674 65.60607,-0.15239 14.5709,2.672 -1.9178,0.09 -6.4012,0.009 -9.963,-0.175 z M 290.377,206.14 c 0.685,-0.232 2.03,-0.429 2.989,-0.437 1.406,-0.012 1.55,0.072 0.747,0.437 -0.548,0.249 -1.893,0.446 -2.989,0.438 -1.712,-0.012 -1.817,-0.075 -0.747,-0.438 z m 107.352,-0.066 c -2.466,-0.285 -5.717,-0.855 -7.224,-1.266 -2.582,-0.705 -2.223,-0.734 6.227,-0.497 14.662,0.41 21.274,0.877 20.72,1.464 -0.686,0.726 -14.254,0.932 -19.723,0.299 z m 95.022,-0.824 c 0.48,-0.133 1.264,-0.133 1.744,0 0.479,0.132 0.087,0.241 -0.872,0.241 -0.959,0 -1.351,-0.109 -0.872,-0.241 z m -29.764,-0.968 c -23.61686,-3.57981 38.73436,0.67055 15.94,0.656 -4.931,-0.002 -12.105,-0.298 -15.94,-0.656 z M 35.2147,203.643 c 1.4476,-0.108 3.6893,-0.106 4.9816,0.002 1.2922,0.108 0.1078,0.196 -2.632,0.194 -2.7399,-0.001 -3.7972,-0.09 -2.3496,-0.196 z m 147.1873,0.009 c 0.754,-0.121 1.986,-0.121 2.74,0 0.753,0.121 0.137,0.22 -1.37,0.22 -1.507,0 -2.123,-0.099 -1.37,-0.22 z"
     fill="#fdebad"
     id="path770"
     sodipodi:nodetypes="cccccccscccccccccccccscsccsccccscccccscsccccccsccccsccssccccccccccccccccccccsccsccccccccccccccccccccccccccsccsccssccccscsccsccccscccccccsscscccccccsccccccccccccccsccscccccssccccccsccccccccccccccccccsccccsccccccccccccccccsccssccsssccsccsscccscccscsccssccccccccsccccccsccccccscccccscccccccccsccccccccccccccsscccssccccsccsccccsccccsccccsccsccccsccccccscsccccsscccccccccccsccccccccccccscccccsccccsccccccsccccsccccccscccccscscsccccccccccccccscccssccccccccsssccscccscccccccccscscsccscccccccccccccscscccsccccccscscccccccsscccccccccccscssssssccccccssscccccccccccccccsccccccccccccccccccccscsccssscscssccccccscscscccccccsscccccccsccsccccccccccscccccccsccccccccccsscccscccccsccsscccccsccccsscccccsscscccccccccccccccscccccsccccsc"
     inkscape:export-filename="water01.svg"
     inkscape:export-xdpi="96"
     inkscape:export-ydpi="96"
     style="display:none"
     sodipodi:insensitive="true" />
</svg>
